<svg xmlns="http://www.w3.org/2000/svg" xmlns:xlink="http://www.w3.org/1999/xlink" version="1.1" id="Calque_2" x="0px" y="0px" viewBox="0 0 64.1330795 54.5351219" xml:space="preserve"> <path fill="#FFFFFF" d="M63.0646553,42.7904854l0.0018768-0.0049438c-0.0013809-0.0003929-0.0240211-0.0086975-0.0281754-0.0102806 c-0.0814629-0.0177956-0.2438965-0.1787453-0.3759804-0.3124123c-0.1850739-0.1850739-0.3764763-0.3764763-0.5757866-0.4650574 c-0.275238-0.1218033-0.7964516-1.7526703-0.7964516-2.4945488c0-0.3780594-0.1099396-0.5204239-0.2080116-0.6469688 c-0.0957031-0.1233826-0.186657-0.2404404-0.186657-0.6548805c0-0.4808769-0.1407814-0.6928406-0.2657471-0.8794975 c-0.1115189-0.167675-0.2080116-0.3116188-0.2080116-0.6612053c0-0.5647125-0.3511658-0.6248245-0.6904678-0.6833496 c-0.2388573-0.0411301-0.5093498-0.0870018-0.7806358-0.2831497c-0.3598671-0.2594185-0.348793-0.48246-0.3345566-0.7656059 c0.0102806-0.2135468,0.0221443-0.4555664-0.1494827-0.7054977c-0.2024765-0.2910576-0.4176064-0.3416748-0.6264076-0.392292 c-0.2040558-0.0474586-0.4144402-0.0980759-0.6904678-0.3733139l-0.0846291-0.0854187 c-0.5307045-0.5314941-0.8233414-0.8241348-2.0105057-1.2844467c-0.7541389-0.2918491-1.0554771-0.4963017-1.1828156-0.6042614 c0.967289-0.4160213,1.8700218-1.2698154,2.2766495-2.1940002c0.2277832-0.5172596,0.471386-0.7687702,0.7292252-1.0361004 c0.2175026-0.2246189,0.4429131-0.4571476,0.6493416-0.8510246c0.29422-0.5615501,0.2159195-0.9285355,0.1328735-1.3145027 c-0.0458717-0.216711-0.0933266-0.4381676-0.0798798-0.7165699c0.0276794-0.5488949-0.1969414-0.8589344-0.344841-1.0629902 c-0.0719719-0.0996552-0.1289177-0.1787472-0.1289177-0.2388573c0-0.2720737,0.0790901-1.1658096,0.2309456-1.6625042 c0.1146812-0.3701496,0.0585289-0.8494434,0.009491-1.2717934c-0.0221443-0.1882381-0.043499-0.3669853-0.043499-0.50144 c0-0.2720757,0.4571495-0.7402973,0.7450409-0.9696636l0.2491379-0.1993103l-0.318737-0.0174007 c0,0-0.7901268-0.0379639-1.5399132-0.0775089c-0.3456306-0.0189819-0.3915024-0.1423645-0.4547768-0.3116207 c-0.0553665-0.14711-0.1233826-0.3306026-0.3907127-0.3970394c-0.1874466-0.0474548-0.2950134-0.1977291-0.431839-0.3891315 c-0.1589737-0.2230377-0.3385124-0.4745483-0.693634-0.6295681c-0.6904716-0.3021297-1.5011597-0.6453876-2.3869858-0.874754 c-0.4729652-0.1218014-0.7450409-0.0632725-1.0076256-0.0047455c-0.261795,0.0601101-0.5346603,0.1170559-1.0495453,0.0031643 c-0.8462791-0.1850739-1.2860298-0.1075649-1.6411514-0.0458736c-0.1004448,0.0189819-0.1945648,0.0348015-0.2902641,0.0442924 c-0.4429131,0.0379639-1.774025-0.1202202-2.5190697,0.5710411c-0.0308456,0.0284729-0.0672264,0.0351944-0.0990601,0.0603065 l5.3372955-15.1256723h4.4061928V0.9998764H44.5369568v1.2702107h4.6308136l-5.6894531,16.2375031 c-0.2559624,0.2989674-0.6741562,0.4794922-1.2231522,0.5046043c-0.6659508,0.0332184-0.8834534,0.7181511-1.0574532,1.2670479 c-0.0711823,0.226202-0.1384125,0.4397488-0.2262039,0.5852776c-0.1178474,0.1977291-0.328228,0.3369293-0.5512695,0.4824581 c-0.3321838,0.2198753-0.6754417,0.4460773-0.7276421,0.8921528c-0.0403366,0.3432579-0.2736549,0.6042595-0.4990654,0.8573532 c-0.1890297,0.2119656-0.3677788,0.412859-0.4437065,0.6596241c-0.1004448,0.324276-0.4342117,0.6406422-0.8961067,1.0772266 c-0.2175026,0.2056389-0.4634781,0.4381676-0.7331772,0.7165699c-0.609005,0.6279869-2.4099236,2.9738445-3.7244225,4.6869678 c-0.5670891,0.7387161-1.0147476,1.3208294-1.2172203,1.57234c-0.412859,0.5089569-0.7799435,0.8769302-1.0100002,1.0956154 c0.1110249-0.738121,0.3862629-1.881588,1.0906734-3.1314316c0.0814629-0.1439476,0.2697029-0.4223499,0.5077667-0.7750988 c1.5161858-2.2446175,5.0673981-7.5010452,3.3558578-10.0114117c-1.4435234-2.1153049-4.1268024-2.3241062-5.7391834-2.1787758 l-0.0012856-0.0041523c-0.0020752,0.0005932-0.0175972,0.005537-0.0226402,0.0071182 c-0.5031204,0.04706-0.9068832,0.1263485-1.1226063,0.1937752c-0.4310493,0.1328735-0.844698,0.1518555-1.2449017,0.1692543 c-0.643013,0.0284748-1.2504368,0.0553646-1.7661152,0.571043c-0.3240776,0.3258572-0.6600189,0.3966427-0.9766808,0.4037609 l-0.0048447-0.0003948l-0.0000992,0.000988c-0.0544739,0.0009899-0.1062794-0.0021744-0.1593685-0.0037556 c-0.006031-0.5312977-0.0717773-2.1281567-0.6520119-2.2117968c-0.4808769-0.0680189-0.8818722-0.8051519-0.8818722-1.0629911 c0-0.9411898-0.1273365-1.4853401-0.3891296-1.6625051c-0.0751381-0.049036-0.1977291-0.0996552-0.3693581-0.0284729 c-0.5330772,0.2088022-1.223547-0.0411272-1.3500938-0.2641659c-0.034008-0.0601091-0.0695992-0.1423645-0.1099358-0.235693 c-0.1558113-0.3590755-0.3693581-0.8526068-0.7845898-0.8526068c-0.1996078,0-0.5356483-0.0435009-0.8435116-0.1328745 l-1.4596348-4.4955654c-0.5227947-1.6435232-1.9424896-4.7059488-0.0751381-4.9289875c0.7474155-0.0759277,1.5691776,0,2.3158016,0 c0-0.6722784,0-0.7482063,0-1.2702107H7.4896679c0,0.8209707,0,0.6722785,0,1.2702107c1.5683861,0,1.6427317,0,2.0168352,0 c2.0160446,0,2.7634602,2.9864984,3.2862558,4.6300216l0.5916042,1.8230605 c-0.4252157,0.0359869-0.9073782,0.0893736-1.3429747,0.1384106c-0.5615501,0.0632734-1.0930462,0.1233826-1.3224115,0.1233826 c-0.4357948,0-2.2643919,0.1914024-2.3419018,0.1993113l-0.25072,0.0268908l0.177165,0.1787472 c0.0031633,0.0031633,0.3029203,0.3116207,0.2072201,0.6295691c-0.0237274,0.0806732-0.0514097,0.2008924-0.0838375,0.3432579 c-0.1004457,0.4429121-0.309248,1.3619566-0.6003046,1.3872662c-0.2483478,0.0205641-0.4682226,0.1787472-0.6018872,0.4318399 c-0.1289191,0.2451839-0.1463194,0.5188408-0.0450821,0.6960058c0.0379639,0.0664368-0.0648551,0.2910576-0.1407833,0.4555674 C6.8948989,13.649785,6.71457,14.0436611,6.905972,14.3426266c0.1257553,0.1977291,0.1415739,0.6279879,0.1550193,1.0092087 c0.0158186,0.4160223,0.029264,0.7750969,0.1708379,0.9396076c0.0648551,0.0759277,0.0577369,0.2499294,0.0498276,0.4350052 c-0.0134454,0.3306026-0.0308456,0.7434597,0.31953,1.040844c0.1842837,0.1550198,0.2254114,0.4508228,0.2697024,0.7640247 c0.0632734,0.4492397,0.1344562,0.9585896,0.6991696,1.0392647c0.4547768,0.0648537,0.6422234,0.4476566,0.8075247,0.7845879 c0.113101,0.2309475,0.2103844,0.4302578,0.3843851,0.5077686c0.0957012,0.0427094,0.2641659,0.1755829,0.476923,0.3448391 c0.4911585,0.3907127,1.3137112,1.0424271,2.4463024,1.5122299c0.6294699,0.2606068,3.264307,1.537344,6.3163528,3.3127518 l1.2119789,3.7350998c-1.2406502-0.1925869-2.6250496-0.3211117-4.1501331-0.3224964l-0.0033607-0.0025692l-0.0019779,0.0027676 c-1.7950821-0.0015812-3.7699986,0.1635227-5.908536,0.5983276c-0.0181913,0.0047455-1.8452072,0.4745502-2.3624659,0.5773697 c-0.5496864,0.1107273-1.4695215,0.6453857-1.7028418,0.9380245c-0.0529914,0.0664368-0.2420201,0.12813-0.4247217,0.1882381 c-0.4057398,0.1328735-0.9617538,0.3163681-1.2203832,0.8336258c-0.359076,0.7181511-0.6691151,1.0281906-0.8201799,1.178463 L3.578589,33.8007393c-0.9063897,0.9348602-1.721033,1.4489555-2.3015652,1.4505386 c-0.1376194,0.0063286-0.4642676,0.0474548-0.5125135,0.2483482c-0.0435004,0.1787453,0.1613468,0.324276,0.31953,0.4176025 c0.3179482,0.186657,0.8130615,0.2578392,1.2923566,0.3274384c0.4951131,0.0711823,1.0566635,0.1518555,1.1215186,0.354332 c0.1834924,0.5757866,0.5148861,1.2638817,1.0495455,1.2638817c0.2182927,0,0.9316988,0.0284729,0.9316988,0.4033699 c0,0.5283318,0.8336253,0.7007484,1.1207275,0.7007484c0.0840349,0,0.185173-0.0442886,0.2859163-0.0846252l0.001977,0.0023727 l0.0057344-0.0047455c0.0264955-0.0106773,0.0477514-0.0108757,0.0749393-0.0221481 c0.1241736-0.0522003,0.3139935-0.126545,0.3709393-0.0933266c0.0166092,0.009491,0.030055,0.0442924,0.0355916,0.0933266 c0.0102816,0.0980759,0.0482454,0.1708412,0.1107278,0.2151299c0.1138921,0.0822563,0.2546749,0.0458755,0.4199767,0.0079117 c0.2791934-0.0632744,0.5718322-0.1328773,0.8019881,0.2483444c0.2182932,0.365406,0.6675329,0.491951,1.2362022,0.491951 c0.6706963,0,1.508276-0.1755829,2.3300381-0.3495865l0.4041576-0.0854187 c1.263093-0.2610016,3.5694027-0.8035698,4.8230057-1.4869194c0.3266468-0.177166,0.643013-0.4429131,0.9775715-0.7228966 c0.8047562-0.6734657,1.7949829-1.4888992,3.5788937-1.7259789l0.5082626,1.5660133 c-0.1514606,0.3050957-0.2368793,0.6252213-0.1903133,0.9524612c0.2182922,1.5185585,0.0324268,3.3582306-0.8731728,4.0431633 l-0.2325287,0.1755829l0.2878933,0.0411263c0.0915489,0.0122604,1.9572201,0.2786026,2.8134861,0.3511658l3.0614376,9.4340477 c-1.3445568,0-3.2870464,0-4.4821205,0c0,0.6722755,0,0.746624,0,1.2702103h14.0427113v-0.9811325 c0.0363808,0.0411263,0.068512,0.0862083,0.1012383,0.1380157c0.073555,0.1138916,0.1637192,0.2562561,0.3614464,0.3891296 c0.231739,0.1534386,0.512516,0.1803284,0.8367882,0.2119675c0.3938789,0.0379639,0.8842468,0.0854187,1.4647789,0.3859673 c0.7015419,0.3606567,1.3429756,0.3195267,1.8618164,0.2799835c0.2973824-0.0189819,0.5536385-0.0379639,0.7671852,0.0189819 c0.0688095,0.0189819,0.1526489,0.0363808,0.2356949,0.0363808c0.0854187,0,0.1708374-0.0189819,0.2388573-0.0775108 c0.1494827-0.1281281,0.1225891-0.3559113,0.0949097-0.5963478c-0.0102844-0.0933304-0.0221481-0.1914024-0.0221481-0.2831497 c0-0.2989655,0.1265488-0.8526077,0.2491417-1.385685c0.0498276-0.2151299,0.0996552-0.4334221,0.1431541-0.6406403 c0.0719719-0.3400955,0.1827011-0.491951,0.3005486-0.6517143c0.1312904-0.1787491,0.2673302-0.3622398,0.3321838-0.77668 l0.030056-0.1898193c0.0972824-0.6074257,0.1297073-0.8130608,0.1297073-1.2891922 c0-0.1949615-0.106575-0.4290733-0.2366791-0.6817703l0.0088959-0.0189819l-0.0244179-0.0114708 c-0.0406342-0.0779037-0.0728645-0.149086-0.1179466-0.232132c-0.2151299-0.3970413-0.4587288-0.8462791-0.4587288-1.2275009 c0-0.4476585-0.2499313-0.8193893-0.471386-1.1468277c-0.1637192-0.2436028-0.3187408-0.4729691-0.3187408-0.669117 c0-0.2878914-0.1502724-0.5378227-0.2958031-0.7782593c-0.1368294-0.2262039-0.2776108-0.4603119-0.2958031-0.7292252 c-0.0103798-0.1538315-0.084034-0.3054924-0.1838875-0.4589272l0.007515-0.0235329l-0.0271873-0.0086975 c-0.144146-0.2117691-0.345829-0.427887-0.5723267-0.6619987c-0.2926407-0.3037109-0.6256142-0.6469688-0.8605156-1.0345154 c-0.1645126-0.2699013-0.361351-0.5119209-0.5607605-0.7339706c0.2203674,0.1388054,0.4181976,0.2613983,0.5678787,0.3480034 c0.7980347,0.461895,1.600811,1.0455894,2.3767014,1.610302c0.6406403,0.4666405,1.2448997,0.9063911,1.774025,1.2211761 c0.4207649,0.2499275,0.9728241,0.6691132,1.5565224,1.1136093c0.991806,0.7529526,2.1149063,1.6071396,2.8971252,1.8444138 c0.4935303,0.1502762,1.0360985,0.3954582,1.5612679,0.6311531c0.7569046,0.3416748,1.472683,0.6643677,1.9614716,0.6643677 c0.5378227,0,0.888195,0.1755829,1.1966553,0.3321838c0.1289177,0.0648575,0.2507172,0.1265488,0.3804283,0.1740036 c0.1605568,0.0585289,0.3408852,0.0775108,0.5346603,0.0775108c0.1795387,0,0.3709373-0.0174026,0.5678787-0.0332184 c0.2080078-0.0189819,0.4231377-0.0363846,0.6366844-0.0363846c0.546524,0,0.9522629-0.3258553,1.3105469-0.6121674 c0.0877953-0.069603,0.1740036-0.1392021,0.2602119-0.2008934c0.1629295-0.1186371,0.3385124-0.177166,0.5251694-0.2388573 c0.280777-0.0917435,0.5710411-0.1882362,0.8035698-0.4982758c0.2135468-0.284729,0.3661957-0.4350052,0.5591774-0.6248245 c0.1202202-0.1186371,0.2523041-0.2499275,0.4199753-0.431839c0.3440514-0.3748932,0.5433617-0.7719345,0.6888885-1.061409 c0.0427094-0.0838356,0.0806732-0.1597672,0.1162643-0.2230377c0.1233826-0.2151299,0.9459381-0.5283318,1.385685-0.491951 c1.3580017,0.1059837,1.3809395-0.0332184,1.3896408-0.0949097C63.1848755,42.8915253,63.1703415,42.8199463,63.0646553,42.7904854z M62.0045319,42.23032c0.1226921,0.0591202,0.2570457,0.1815147,0.3868561,0.3092461 c-0.2301559-0.0834389-0.5237846-0.1898193-0.8540916-0.3092461H62.0045319z M61.3581543,41.0510635 c0.1197243,0.376873,0.2630806,0.7153854,0.4097939,0.9356537h-0.9053993 c-0.5387154-0.1939735-1.1661072-0.4187889-1.8394737-0.6592293L61.3581543,41.0510635z M61.2900391,40.8149757 l-2.7835312,0.3284264c-0.3935776-0.1401901-0.7990227-0.2841339-1.219986-0.432827l3.773262-1.0507317 C61.0831146,39.9595985,61.1677437,40.384716,61.2900391,40.8149757z M60.8907242,39.0049667 c0.075531,0.0980721,0.128624,0.2012863,0.1445389,0.4094963l-4.1492424,1.1549339 c-0.6058426-0.2135468-1.2286873-0.431839-1.8644867-0.6532974l5.6424942-1.5581055 C60.6895332,38.7253761,60.793045,38.8788147,60.8907242,39.0049667z M60.2053947,36.8200607 c0.0316391,0.2946167,0.1209106,0.4828529,0.2234344,0.6362915c0.1043015,0.1571922,0.1930809,0.328228,0.2112732,0.6560631 l-6.022625,1.6627045c-0.5498848-0.1910057-1.1031303-0.3818169-1.6555862-0.5712395L60.2053947,36.8200607z M58.8082428,35.8903389 c0.3171577,0.2293663,0.6303596,0.2831459,0.8818703,0.3258553c0.3121147,0.052597,0.4525032,0.0915489,0.4786034,0.3598671 l-7.5887375,2.4981079c-0.7016411-0.2392502-1.3932991-0.4727707-2.0659714-0.6963997l7.8943291-3.0033073 C58.4584618,35.5431252,58.5683975,35.716732,58.8082428,35.8903389z M57.784008,34.0664864 c0.1937714,0.0474548,0.3337669,0.0806732,0.4832497,0.2958031c0.1249619,0.1803284,0.1162643,0.3543282,0.1067734,0.5536423 c-0.0034599,0.0688095-0.0059319,0.1401863-0.0036583,0.2127533l-8.2192955,3.1280746 c-0.6011963-0.1985207-1.1699638-0.3820152-1.719059-0.5568047l8.6131744-4.0150871 C57.338028,33.9525948,57.5849915,34.0194283,57.784008,34.0664864z M56.8562622,33.5069122l-8.7644348,4.0854759 c-0.6311493-0.1989136-1.2196922-0.378849-1.7374458-0.5283318l8.6632996-4.730072 C56.0779037,32.7515869,56.3668823,33.0171394,56.8562622,33.5069122z M54.7309723,32.2153473l-8.7106514,4.7553825 c-0.1650047-0.0462685-0.3442459-0.0984688-0.4923477-0.137619c-0.3946648-0.1040077-0.8163223-0.2099876-1.2480621-0.316761 l4.778019-3.6856689c0.5004539-0.0585289,0.950386-0.0846291,1.221077-0.0059319 c0.5852776,0.1724205,1.5066948-0.3037109,2.3972664-0.7656059c0.3514633-0.1819115,0.6795921-0.3491898,0.9579964-0.460907 C53.7487526,31.7166748,54.0392189,31.9286404,54.7309723,32.2153473z M34.3982086,50.5274239 c-0.6890869-0.3578911-1.1563225-0.8328362-1.4186096-1.4102058l1.6337357-9.0409584 c0.2603111,0.5137024,0.5092506,1.0244331,0.7369385,1.5185585L34.3982086,50.5274239z M35.5467148,42.032589 c0.2879944,0.6386681,0.5545311,1.2504387,0.7821159,1.7795639c0.0016823,0.003952,0.0029678,0.0067215,0.0046501,0.0106773 l-0.3162689,7.4247208c-0.0771141-0.0984688-0.2013855-0.1914024-0.4357948-0.2554665 c-0.352253-0.0956993-0.6647644-0.21315-0.9530525-0.3436508L35.5467148,42.032589z M32.8040161,48.7225533 c-0.1614456-0.5532455-0.3192329-1.0396614-0.4582367-1.4667549c-0.2253113-0.6920509-0.4191837-1.2921562-0.5397987-1.9045258 l2.0785255-6.6282692c0.1891289,0.3325806,0.3697548,0.6647644,0.5453377,1.0020905L32.8040161,48.7225533z M29.7582989,38.3243828 c0.0243206-0.2598152,0.0514088-0.4970932,0.0813656-0.7140007l0.2759304,0.680584 c-0.0229359,0.1627312-0.0619869,0.357296-0.0958977,0.5225983c-0.0125561,0.0608978-0.0207615,0.1134949-0.0326252,0.1726151 L29.7582989,38.3243828z M29.9143066,39.4907837c-0.006031,0.0779076-0.0195751,0.1670837-0.0116653,0.2244225 c0.0289669,0.2103844-0.1331711,0.5366364-0.2849274,0.8257179c0.0229359-0.5603638,0.0533867-1.1074791,0.0903625-1.6190071 l0.1977291,0.5718346L29.9143066,39.4907837z M29.9113407,37.1415672c0.0492344-0.2530937,0.0949097-0.4587326,0.1383114-0.6362915 c0.0126553,0.2861137,0.0180931,0.5490913,0.0190811,0.7596741c0.0006924,0.11409,0.0035591,0.1902161,0.005537,0.2784042 L29.9113407,37.1415672z M30.1095638,35.5692253c-0.0031624,0.0059319-0.0060291,0.0110741-0.0091934,0.0174026 c-0.0312424,0.0610962-0.0638676,0.1344528-0.0987663,0.2273865h-0.0000992 c-0.0966892,0.2574425-0.2073174,0.6548805-0.3345566,1.3180618c-0.1708374,0.889782-0.2598152,2.4289017-0.3112259,3.9387627 v0.0001945c-0.0000992,0.0033646-0.0001965,0.0067253-0.0002956,0.0100861 c-0.0034599,0.1032143-0.006031,0.2044525-0.0091953,0.3072701l-0.3204193-0.986866 c0.0849247-1.0677338,0.3015366-2.3820381,0.4726715-3.4102287c0.1811199-1.0867195,0.2412281-1.4774323,0.2072201-1.6055603 c-0.0281773-0.1044006-0.0921421-0.2074165-0.1618423-0.3068771c-0.0357876-0.0510139-0.0716763-0.1030159-0.1078606-0.1502724 c-0.0098858-0.0130501-0.022541-0.0308456-0.0340099-0.0460701c-0.0622845-0.0824547-0.1370258-0.1844826-0.1384106-0.2165146 c0.0324287-0.0664368,0.0490379-0.1724205,0.0703926-0.3068733c0.0027676-0.0177994,0.0072174-0.0415268,0.010479-0.0616951 c0.0126553-0.077507,0.0287704-0.1649055,0.0507183-0.2497292c0.0321312-0.1247673,0.0749397-0.2331238,0.1349487-0.2501297 c0.1028194-0.0316353,0.1977291-0.1186371,0.2973843-0.2119637c0.1297112-0.1202202,0.2625847-0.2483482,0.4247227-0.2467651 c0.0964909,0.0063286,0.2001019,0.0743446,0.309248,0.2024727c0.2269936,0.2689133,0.4595222,0.4002037,0.6453876,0.4318428 c-0.058527,0.1091461-0.1210098,0.2578354-0.1210098,0.4191856c0,0.0616913-0.0411282,0.0901642-0.1914024,0.1629257 c-0.1708374,0.0838394-0.4057388,0.197731-0.4951134,0.5140953c-0.0371723,0.1344566-0.0767193,0.1850739-0.1360378,0.2625847 c-0.0217495,0.0280762-0.0452785,0.060112-0.0695019,0.0953064c-0.0001965,0.0003967-0.0003948,0.0007896-0.0005932,0.000988 C30.1669064,35.4664078,30.1389275,35.5134659,30.1095638,35.5692253z M23.2920685,39.2544975l-0.5977364-0.108551 c0.0011864-0.2398453-0.0222435-0.472374-0.0416203-0.7088585l0.3773651,0.0102806L23.2920685,39.2544975z M22.6767349,39.3877678 l0.6998615,0.1273384l0.305788,0.9423752l-1.0554771-0.3867569C22.6569614,39.848278,22.6683311,39.6187172,22.6767349,39.3877678z M13.8739405,10.231842l1.0693178,3.2951527v0.4300604c-0.2599144-0.2467651-0.5123158-0.4824581-0.7513695-0.6995649 c-0.1124086-0.1020279-0.208703-0.1797352-0.3179483-0.2768202V10.231842z M29.0509243,20.2758789 c0.0372715,0.1649075,0.0719719,0.3460274,0.1067734,0.5283318l-7.1819115-0.7480068 c-0.0053387-0.0929337-0.0171032-0.1985207-0.0171032-0.2768211c0-0.1957512,0.1456261-0.3448391,0.3369293-0.4755383 L29.0509243,20.2758789z M22.6473732,19.1090813c0.2610016-0.111124,0.5521564-0.2058353,0.8259125-0.2867069 c0.1605568-0.04706,0.2949123-0.0901642,0.4232388-0.1340599l4.7469788,0.4599171l0.0450821,0.0047455l0.0208607-0.0146313 c0.0997543,0.235693,0.1912041,0.5394039,0.2774143,0.8838482L22.6473732,19.1090813z M29.8705101,32.7883644 c-0.0328236-0.1759758-0.057045-0.3547249-0.09758-0.5283318l0.3032188,0.1067772 c0.0041523,0.1449318,0.0086994,0.2969856,0.011961,0.4215546H29.8705101z M30.0940418,33.0307808 c0.0008907,0.0371742,0.0018787,0.0761261,0.0026703,0.1103325c-0.0515079,0.0158195-0.1064777,0.0221481-0.1528454,0.0500259 c-0.008007-0.0537796-0.0202656-0.1061783-0.0290661-0.159565L30.0940418,33.0307808z M29.6932468,31.9758987 c-0.0556622-0.2145367-0.1123104-0.4280834-0.178648-0.638073l0.5330772,0.1233845 c0.0077114,0.2258053,0.0151253,0.4484482,0.0211563,0.6469669L29.6932468,31.9758987z M29.177372,34.9839478l0.00247-0.0023727 c0.0084038,0.0114708,0.01404,0.0223427,0.0229378,0.0340118c-0.0428085,0.0276794-0.0907574,0.0608978-0.1357403,0.0907555 l-1.6382847-0.4049492c0.4744511-0.1010399,0.8913631-0.1957512,1.1918125-0.2687111L29.177372,34.9839478z M28.8950138,34.3642654 c0.0892754-0.022541,0.1535378-0.0383606,0.2014866-0.0510139c-0.0003948,0.0025711-0.000988,0.0055351-0.0013847,0.0079079 c-0.0126534,0.0775108-0.026001,0.1532402-0.0397434,0.2020798L28.8950138,34.3642654z M27.623024,36.0813446l-0.1540318-0.4745483 l0.7020378,0.1652985c-0.1300068,0.105587-0.252697,0.1985207-0.3866596,0.3179512L27.623024,36.0813446z M27.3816948,35.3376846 l-0.1402874-0.4320374l1.5537529,0.3824081c-0.1232834,0.0866051-0.2509174,0.1898193-0.3835926,0.2918472L27.3816948,35.3376846z M27.1612282,34.5109825l0.4895763-0.6999626c0.4760323,0.1158714,0.867239,0.2246208,1.1777725,0.3199272 C28.496294,34.2147827,27.9130917,34.3547745,27.1612282,34.5109825z M27.0346813,34.2691574l-0.2074184-0.6388626 c0.1932812,0.0399437,0.3987217,0.0800819,0.5704498,0.1198235L27.0346813,34.2691574z M28.3397923,38.2885933l-0.3862648-2.0245476 c0.1487923-0.1324768,0.2855206-0.2366829,0.4291706-0.3515625l0.770155,1.6893959l0.0005932-0.0003929 c-0.120615,0.739109-0.2264996,1.5195465-0.3035145,2.2582626L28.3397923,38.2885933z M28.577858,35.7568703 c0.1584797-0.1212082,0.3042049-0.2339134,0.4479542-0.3329735l0.3524513,0.8004074 c-0.0359859,0.2279816-0.0764217,0.47435-0.1186371,0.7274437c-0.0114689,0.0688095-0.0244198,0.1502724-0.0361843,0.2214546 L28.577858,35.7568703z M29.2303619,35.2876587c0.037075-0.0243187,0.0768185-0.0522003,0.1122112-0.0747414 c0.0578365,0.0818596,0.1095428,0.163723,0.1282272,0.2345085c0.007515,0.0377655-0.0061283,0.1664886-0.0266933,0.3254623 L29.2303619,35.2876587z M29.0234394,33.2813034l0.510931-0.1666832c0.0561562,0.0889778,0.11063,0.1724167,0.1669827,0.2623863 c-0.0117645,0.0108757-0.0269909,0.0209579-0.0383587,0.0314369c-0.0751381,0.069603-0.152647,0.1423645-0.2008934,0.1550217 c-0.0525951,0.0154228-0.0921421,0.0502205-0.1298084,0.0873947C29.2375793,33.5282669,29.1269512,33.4044914,29.0234394,33.2813034 z M29.1477127,32.5068016c0.084034,0.1320801,0.1674747,0.262188,0.2519054,0.3958511l-0.543951,0.1775627 c-0.1669827-0.1908112-0.3434563-0.3816185-0.5292225-0.5734138H29.1477127z M29.0898762,31.9632435 c-0.1020279-0.1593704-0.2061329-0.326252-0.3075676-0.483448l0.1545258-0.9538441 c0.0922394,0.2337151,0.1913033,0.467432,0.2686138,0.7001591L29.0898762,31.9632435z M29.2867146,32.2726898l0.0858154-0.5490932 c0.0997543,0.3470135,0.1579857,0.6914577,0.2242241,1.0362949C29.4928474,32.5953827,29.3899307,32.4348259,29.2867146,32.2726898z M29.4262123,31.067728c-0.0542755-0.1597633-0.116066-0.3151798-0.1758785-0.4721756l0.768177,0.0757294 c0.007019,0.1807251,0.0147305,0.3685665,0.0207615,0.5376263L29.4262123,31.067728z M29.1565113,30.3436451 c-0.0916481-0.2273884-0.1913033-0.4488449-0.2930355-0.6695099l1.1259689,0.2882881 c0.0069199,0.1587772,0.0136433,0.3151798,0.0197716,0.467432L29.1565113,30.3436451z M28.733469,29.3913822 c-0.1418705-0.2924404-0.2916489-0.576973-0.4475594-0.8561668l1.651432,0.3155766 c0.0148296,0.2946167,0.0283756,0.5785542,0.0408325,0.8581429L28.733469,29.3913822z M28.764513,30.0769081l-0.1788464,1.0985832 c-0.1408806-0.2173042-0.278204-0.4229431-0.4178009-0.636095l0.1669827-1.3508835 C28.4870987,29.4851055,28.6357918,29.7813034,28.764513,30.0769081z M28.1370201,28.2605705 c-0.1687622-0.290266-0.3443451-0.5716343-0.5235863-0.845686l2.2712135,0.4516125 c0.0142365,0.2495346,0.0270901,0.4919491,0.0397434,0.735157L28.1370201,28.2605705z M28.1358337,28.8250866l-0.1730118,1.4020958 c-0.1528454-0.2321339-0.3083591-0.4727688-0.4596214-0.6997623l0.1800327-1.528841 C27.8535767,28.2746086,27.9856586,28.5496502,28.1358337,28.8250866z M27.4194622,27.1297588 c-0.2059345-0.3033161-0.4150333-0.5943737-0.6268005-0.874752l3.0375118,0.7141953 c0.0140381,0.2180958,0.0265942,0.4326324,0.0393486,0.6481571L27.4194622,27.1297588z M27.4771996,27.6782589l-0.1814175,1.5401115 c-0.1464176-0.2184906-0.2892761-0.4265022-0.4342117-0.6402473l0.1446381-1.5630474 C27.161623,27.2361374,27.3346367,27.4575939,27.4771996,27.6782589z M26.5591431,25.9497128 c-0.2376709-0.3037128-0.4751434-0.5963516-0.7095509-0.8684254l3.8976345,0.7039146 c0.0235291,0.3100395,0.0452785,0.6204739,0.0659428,0.9301167L26.5591431,25.9497128z M26.7902889,26.710968l-0.1434536,1.5505905 c-0.1489887-0.2182922-0.3008442-0.4456806-0.4481525-0.6592274l0.0581322-1.6375904 c0.0087013,0.0106773,0.0171051,0.0201683,0.0258045,0.0312405C26.4712524,26.2344418,26.6164837,26.4725075,26.7902889,26.710968z M26.0244846,25.6825809l-0.0567493,1.5899391c-0.2063293-0.2969894-0.4106827-0.5884418-0.6136513-0.875742v-1.4989834 C25.573761,25.1437683,25.7971954,25.4055614,26.0244846,25.6825809z M25.5903702,24.7894382 c-0.3165646-0.3555164-0.6247253-0.6857243-0.9106407-0.9746056l4.9759483,0.8634834 c0.0253086,0.2839375,0.0493336,0.5696564,0.0719738,0.8573513L25.5903702,24.7894382z M23.3381386,22.8843212 c0.0859127,0.0757294,0.1564026,0.1350479,0.25774,0.2275848v0.5659008L23.3381386,22.8843212z M25.1120644,24.6253242v1.4260216 c-0.4328289-0.6086102-0.8573532-1.1938877-1.2741661-1.7584038v-0.9544392 C24.2068615,23.6847267,24.6387005,24.110239,25.1120644,24.6253242z M24.3787861,23.5180416 c-0.3146858-0.3070736-0.5919018-0.5635281-0.8222561-0.7679787l5.9735889,0.6434097 c0.0367775,0.3379192,0.0712814,0.6845379,0.103611,1.0357037L24.3787861,23.5180416z M23.2379894,22.472847 c-0.1243725-0.105587-0.2289715-0.1923904-0.2843342-0.2368793c-0.2745476-0.2192822-0.455864-0.4881935-0.6015911-0.7675838 l7.0418205,0.7913113c0.0381622,0.2849274,0.0729618,0.5848808,0.1072674,0.8868141L23.2379894,22.472847z M22.2560673,21.2141037 l-0.0037575,0.0336132c-0.1354446-0.3250656-0.226696-0.6517143-0.2614956-0.9467258l7.2140408,0.7513695 c0.0536842,0.3025265,0.1044006,0.6224518,0.1520538,0.9601727L22.2560673,21.2141037z M24.0040894,24.9353638 c0.2976818,0.40732,0.5945721,0.8122692,0.9005566,1.242527h-0.4970913L24.0040894,24.9353638z M24.4866467,26.4214935h0.588541 c0.252203,0.356308,0.5069771,0.7199306,0.7644196,1.091465h-0.9985313L24.4866467,26.4214935z M24.9201679,27.7565594h1.0900803 c0.1613464,0.2341118,0.3276367,0.4828548,0.4910603,0.7228966h-1.3464355L24.9201679,27.7565594z M25.233963,28.7230587h1.4325466 c0.160656,0.2368793,0.3190365,0.4672337,0.4815693,0.7102432h-1.6834641L25.233963,28.7230587z M25.5437069,29.6769028h1.7673016 c0.165102,0.2479534,0.3345566,0.5101414,0.5016384,0.7640247h-1.7894478 c-0.1005459-0.0802765-0.2072201-0.1593685-0.3091488-0.2392521L25.5437069,29.6769028z M27.9726086,30.6845303 c0.1559086,0.2380657,0.3089523,0.4670353,0.4664421,0.7104397l-1.2014008,0.0703926 c-0.2926388-0.2612-0.5932846-0.5214119-0.9101467-0.7808323H27.9726086z M28.589325,31.6292782 c0.1329727,0.2062321,0.2692089,0.4237347,0.403368,0.6339207h-0.9078732 c-0.1916981-0.1906128-0.3838902-0.3804321-0.5914078-0.5710411L28.589325,31.6292782z M28.4700947,32.997364 c0.2666378,0.2916527,0.5080643,0.5817223,0.7267532,0.869812c-0.0124569,0.0342064-0.0203667,0.0723686-0.0301533,0.1087494 c-0.3966446-0.1356392-0.8932419-0.2738533-1.4626026-0.411869l-0.300745-1.2041702 C28.0663319,32.7193604,28.4380627,32.9746284,28.4700947,32.997364z M27.4374561,33.5003891 c-0.2182941-0.0502243-0.4601154-0.0974808-0.6995659-0.1455307l-0.5106354-1.5725365 c0.3260555,0.1475048,0.631052,0.291256,0.8869133,0.4235344L27.4374561,33.5003891z M30.3311195,32.7709656 c-0.0029659-0.1166611-0.007019-0.2580376-0.0106773-0.3918991l0.728138-0.1447372 c-0.0361843,0.1589737-0.0674267,0.3068771-0.0912533,0.4448891L30.3311195,32.7709656z M30.9155083,32.9307327 c-0.0340099,0.2406349-0.0500259,0.4247208-0.057539,0.5635262c-0.0371742-0.0353928-0.0718746-0.0612946-0.1114216-0.1079597 c-0.1319828-0.157589-0.2670326-0.2360878-0.4073219-0.2661438c-0.0006905-0.0328217-0.0016804-0.0699959-0.00247-0.1051903 L30.9155083,32.9307327z M31.4917889,33.9573402c0.0504208-0.0039558,0.1161652-0.0098877,0.2133503-0.0183907v0.134655 c-0.1003475-0.0087013-0.1806259-0.0126534-0.2642651-0.0170059c0.0113697-0.0199699,0.0236282-0.0466614,0.0333176-0.0628777 C31.4814072,33.9818573,31.4849663,33.9694023,31.4917889,33.9573402z M31.4796276,33.7159119 c0.0586281-0.0306473,0.1017323-0.05299,0.1742001-0.0907555l0.0277805,0.0727615 C31.5937176,33.7058296,31.5277748,33.7117615,31.4796276,33.7159119z M31.7051392,34.3174057v0.128521 c-0.1238785-0.0482445-0.2479534-0.0966873-0.3586807-0.1318855c0.0011864-0.0063248,0.0030651-0.0126534,0.0044479-0.0189819 C31.4558029,34.2992134,31.569397,34.305542,31.7051392,34.3174057z M32.0264473,34.8403969l-0.7574997,0.0272865 c-0.0558586-0.0502243-0.1091461-0.1091461-0.1656971-0.1569977c0.0696011-0.0395432,0.1171551-0.0984688,0.1586781-0.1684647 C31.4882298,34.6130104,31.7459698,34.7152367,32.0264473,34.8403969z M34.7063675,33.3321228 c-0.3054924,0.0518036-0.6303596,0.0990601-0.9626427,0.1423645l-0.6972923-0.5749969 c0.1681671-0.0875931,0.3568039-0.1856689,0.5410843-0.2815666v0.0185852L34.7063675,33.3321228z M33.8826294,35.8041267 l-1.7644348-0.0719719c-0.0638657-0.0739517-0.1235809-0.1581841-0.1883373-0.2293663l1.4730816,0.0324287 C33.5605278,35.6218224,33.7198982,35.7111969,33.8826294,35.8041267z M33.4980469,34.5515137 c0.2435036,0.0379639,0.5010452,0.0800819,0.7684708,0.1247673l-0.0121574,1.0629921 c-0.2359924-0.1368294-0.4691124-0.2704926-0.6959076-0.3954582L33.4980469,34.5515137z M34.3358231,36.0657234 c0.182209,0.1067734,0.3639221,0.2145348,0.5487976,0.3260536l-2.294548-0.0854187 c-0.0866051-0.1123085-0.1769676-0.215126-0.2655487-0.3230858L34.3358231,36.0657234z M34.495491,35.8784752v-1.1636353 c0.2366791,0.040535,0.480381,0.0828476,0.7315941,0.127533v1.4742699 C34.9811134,36.16716,34.7378044,36.0208397,34.495491,35.8784752z M35.3103294,36.650013 c0.3460274,0.2119637,0.6894836,0.4251175,1.0304642,0.6406403l-3.168705-0.1704407 c-0.1276321-0.188633-0.2512131-0.3835945-0.3835945-0.5637245L35.3103294,36.650013z M35.4691086,36.463356v-1.5770836 c0.2859154,0.0518036,0.5774651,0.1051903,0.8777161,0.1617393l0.2938271,2.145359 C36.2553749,36.9489784,35.8628845,36.7047844,35.4691086,36.463356z M36.5981407,35.0962601 c0.3406868,0.0648537,0.6872063,0.1320801,1.0403481,0.202076l0.3659973,2.7701836 c-0.3504753-0.2269936-0.7146912-0.4612999-1.0956154-0.704113L36.5981407,35.0962601z M36.6785164,34.8659058l1.398735-1.7228127 c0.3908119-0.0114708,0.8094025-0.0201683,1.2482605-0.0257072l-1.6246376,1.9472351 C37.3540573,34.9962082,37.0135689,34.9297714,36.6785164,34.8659058z M36.4079247,34.8140984 c-0.2950134-0.0555611-0.5815201-0.1081581-0.8630867-0.1591721l0.8835526-1.4220657 c0.3467178-0.0348015,0.8025818-0.0605049,1.3274536-0.0794868L36.4079247,34.8140984z M36.3840981,32.9955864l-1.7047195-0.9461327 c0.2181931-0.1134968,0.4354973-0.2267952,0.6648636-0.3460255l2.0916748,1.2217655 C37.0290909,32.9433861,36.6711998,32.9663239,36.3840981,32.9955864z M35.2890739,34.6082649 c-0.2414246-0.0433044-0.4728699-0.083046-0.7011452-0.1221962l0.5332756-0.9841003 c0.2714806-0.0535812,0.5212135-0.1093407,0.703022-0.1694527c0.068119-0.022541,0.1733093-0.042511,0.2951126-0.0610962 L35.2890739,34.6082649z M34.336319,34.4429626c-0.2781067-0.0466652-0.5454369-0.0903625-0.7984314-0.1299095l0.2552681-0.5997124 c0.3538361-0.0462685,0.6986771-0.097477,1.0219612-0.1538315L34.336319,34.4429626z M33.2896385,34.2758827 c-0.2609024-0.0393486-0.503418-0.0741501-0.7290268-0.1038094l0.0768204-0.3230896 c0.2735558-0.0284729,0.5713348-0.0628777,0.8774223-0.1006432L33.2896385,34.2758827z M33.3043709,35.2081718 c-0.2251167-0.1214027-0.446373-0.2384605-0.6561661-0.3428612l-0.0859108-0.4488449 c0.2140427,0.0284729,0.4435043,0.0611,0.6892815,0.0980759L33.3043709,35.2081718z M32.9297714,35.2821236l-1.2535019-0.0284729 c-0.052496-0.0537834-0.1072674-0.1004448-0.1604576-0.1520538l0.9871635-0.0365791 C32.6416817,35.1334305,32.7834549,35.2054062,32.9297714,35.2821236z M32.3184929,34.1402397 c-0.1340599-0.0166092-0.253685-0.0294609-0.3713341-0.0417213v-0.181118 c0.1270409-0.0118637,0.2776108-0.0266953,0.4350052-0.0423164L32.3184929,34.1402397z M32.3768234,34.7375793 c-0.1439476-0.0680199-0.2963943-0.145134-0.4296646-0.2020798V34.342514 c0.1147804,0.0118675,0.2313423,0.0245209,0.3617439,0.0407333L32.3768234,34.7375793z M31.9242229,33.675972l-0.0600109-0.1605568 c0.0872974-0.0454788,0.1788445-0.0931282,0.2797852-0.1457253l0.1800346,0.2669334 C32.1833458,33.6508598,32.0395966,33.6650963,31.9242229,33.675972z M30.8879242,34.8403969 c0.0662403,0.0549698,0.1282272,0.1253624,0.1935768,0.1836891l-0.4396496,0.6349106 c-0.0010872-0.1755829-0.0088978-0.3677788-0.0042515-0.5297165C30.682682,34.977623,30.7792721,34.9020882,30.8879242,34.8403969z M30.6690388,36.0469398l0.590023-0.8545837c0.0753345,0.0711823,0.1514606,0.1388054,0.2255096,0.2139435l-0.8103924,1.3477173 c-0.0135441-0.2501259-0.0233307-0.4901695-0.0292625-0.7240829L30.6690388,36.0469398z M31.6647034,35.577137 c0.0875931,0.0937233,0.1710358,0.1973305,0.2569485,0.296196l-1.1826172,1.8912773 c-0.0168076-0.2026711-0.0256062-0.3897247-0.0387554-0.5860672L31.6647034,35.577137z M32.0836906,36.071064 c0.1039047,0.1249619,0.2087021,0.2467651,0.3099403,0.3782539l-1.4847469,2.9977684 c-0.0499268-0.4342117-0.0926361-0.8603172-0.1314907-1.2852364L32.0836906,36.071064z M32.5615044,36.6541634 c0.1435509,0.1935768,0.2772141,0.4047546,0.4152298,0.6088104l-1.7943916,4.2930908 c-0.0778065-0.5441513-0.1511631-1.1017456-0.2203693-1.6712074L32.5615044,36.6541634z M33.139267,37.5026207 c0.1998062,0.305687,0.3918991,0.6171112,0.5793457,0.937233l-2.007246,6.4040489 c-0.1298084-0.712616-0.2954063-1.6862335-0.4629822-2.8172455L33.139267,37.5026207z M33.3425331,37.3709335l3.4147797,0.1834908 c0.5890312,0.3752899,1.1572075,0.7430649,1.6627007,1.0709c0.0547714,0.0355911,0.1021271,0.0660439,0.1553154,0.1008415 l-0.0002937,0.0003967c0.0066223,0.0043488,0.4771194,0.3646126,0.9403,0.8759384l-5.5940514-1.2951241 C33.7339363,37.9878464,33.5423355,37.6762276,33.3425331,37.3709335z M38.7227364,38.5333824 c-0.0002975-0.0001984-0.0035591-0.0027695-0.0037575-0.0029678l-0.0002937,0.0003967 c-0.0569458-0.0369759-0.1078644-0.0699959-0.1665878-0.1079597c-0.0882874-0.0573425-0.1884346-0.1218033-0.2800827-0.1813164 l-0.3818169-2.8929749c0.3514633,0.0699959,0.7057953,0.1419716,1.0638809,0.2161179l0.7216148,3.583046 C39.4003525,38.9721413,39.0774612,38.76334,38.7227364,38.5333824z M37.9713669,35.1184044l1.6722946-2.0045776 c0.5543327-0.0053368,1.1269531-0.0075111,1.6967087-0.0065231l-2.3205452,2.2242508 C38.6670761,35.2587929,38.3178864,35.1876106,37.9713669,35.1184044z M41.6885719,33.1082916 c0.070591,0.0003967,0.1414757,0.0003967,0.2116699,0.0007896l0.0290642,0.0146332l0.0074158-0.0146332 c0.4591255,0.0019798,0.9058952,0.0051422,1.3303223,0.0090981l-2.7632637,2.5265808 c-0.3987198-0.0862122-0.7980347-0.1708374-1.1959648-0.2538834L41.6885719,33.1082916z M43.6233521,33.1217384 c0.564415,0.0057335,1.0795975,0.0122566,1.4965096,0.0177956c0.1689606,0.001976,0.2991638,0.0035591,0.4407387,0.0055351 l-3.2963409,2.8923798c-0.4841385-0.1109276-0.9751968-0.220665-1.4708061-0.3290215L43.6233521,33.1217384z M45.9247169,33.149025 c0.1411781,0.0015793,0.2782059,0.0031624,0.3625374,0.0031624c0.5441513,0,1.2132645-0.1012383,1.8610229-0.1977272 c0.1445427-0.0217514,0.2882919-0.0423164,0.4320412-0.0628777l-4.6021423,3.5504189 c-0.4613037-0.1125069-0.9336777-0.2254105-1.4212761-0.3381157L45.9247169,33.149025z M43.8702164,18.3557339 c0.0688095-0.1502743,0.3068733-0.2056389,0.609005-0.275238c0.2204666-0.0502243,0.4718781-0.1150799,0.7223015-0.226202 l-1.4804955,9.2335472c-0.4321365,0.2222462-0.9003563,0.4634762-1.419693,0.7317944l1.1712494-8.9725456 C43.6775284,18.680603,43.8061523,18.4965172,43.8702164,18.3557339z M50.9139137,32.5550461 c-0.2151299,0.052597-0.4140434,0.0798836-0.5660973,0.0387535c-0.418396-0.1249619-1.1201363-0.0429039-1.887619,0.069603 l-8.5977516-3.3072147c0.3107338-0.1609516,0.6131592-0.3175545,0.9149933-0.4741554L50.9139137,32.5550461z M41.070076,28.7305717 c0.3763771-0.1949596,0.7397041-0.382803,1.0913658-0.5647125l10.8605576,3.4452286 c-0.1485901,0.0743465-0.2995567,0.1510658-0.4580383,0.2329254c-0.4169121,0.2169075-0.8603172,0.441925-1.2622032,0.5939789 L41.070076,28.7305717z M53.6261635,31.3362446c-0.0853233,0.0322304-0.1850739,0.0812664-0.2791939,0.1239758 l-10.8793449-3.4525452c0.5031204-0.2598152,0.9589844-0.4947166,1.3786659-0.7104397l11.4794502,2.7988529 C54.8626595,30.637867,54.2620583,31.0989704,53.6261635,31.3362446z M55.9269371,29.1912804 c-0.1059837,0.2408352-0.2506218,0.4761314-0.4192848,0.7011471l-11.330761-2.7650414 c0.5741081-0.2946167,1.036396-0.5303097,1.3394165-0.6821651L56.3153763,28.52355 C56.1822052,28.6985397,56.0512085,28.9089241,55.9269371,29.1912804z M57.3118286,27.2883377 c-0.1898193,0.363821-0.3930855,0.5742054-0.609005,0.7972431c-0.0698967,0.0723686-0.1404839,0.1467152-0.2110748,0.2258072 l-10.6349525-2.0464954c0.4318428-0.2254105,0.9339752-0.5036163,1.4907799-0.8231468l10.1016769,1.5035324 C57.4208755,27.050272,57.3778725,27.1625824,57.3118286,27.2883377z M57.4225578,26.1383457 c0.0423126,0.1969376,0.0761261,0.3737087,0.0644608,0.5666904l-9.7964821-1.4586449 c0.3939743-0.2283783,0.8073273-0.4715843,1.229084-0.7213154l8.4235497,0.9485054 C57.345047,25.7278614,57.3822212,25.948328,57.4225578,26.1383457z M57.3172684,25.227211l-8.0501404-0.907774 c0.3045044-0.1809216,0.6115761-0.3640194,0.9187469-0.5475121l6.7091408,0.4124641 c0.0294647,0.0893726,0.0777092,0.1747913,0.1439476,0.2661419C57.1651154,24.6249275,57.2981873,24.8618069,57.3172684,25.227211z M50.5559273,23.5514584c0.6428146-0.3833961,1.2709999-0.7582912,1.8384819-1.0916615l4.5831604,0.4765263 c-0.0638657,0.3946667-0.0981712,0.7806339-0.1073685,1.0052547L50.5559273,23.5514584z M57.1061935,22.3356228 c-0.0327263,0.1063786-0.0589256,0.2345066-0.0846291,0.3622398l-4.2734184-0.4440994 c0.787159-0.4579411,1.4251328-0.8130627,1.7687836-0.9615574l2.6354332,0.3956566 C57.1657066,21.9231606,57.1628418,22.1505489,57.1061935,22.3356228z M57.1054001,21.1634846 c0.010479,0.0893745,0.0153236,0.182703,0.0246162,0.2752399l-2.2146606-0.3321857 c0.458828-0.2052422,0.9148903-0.4156265,1.3493004-0.6279869c0.0974808-0.0474548,0.1880417-0.0893726,0.2838402-0.1356411 l0.5419769,0.1647072c-0.0099869,0.0421162-0.0293617,0.0854187-0.0293617,0.1259537 C57.0611115,20.7822628,57.0824661,20.9673386,57.1054001,21.1634846z M57.1768799,20.2812176l-0.3053932-0.0929317 c0.1857681-0.088583,0.3674812-0.1694546,0.5454369-0.2487431C57.3240891,20.0467129,57.2421303,20.1621857,57.1768799,20.2812176z M56.8368835,19.631876c0.2273903,0.0118637,0.4261055,0.0223446,0.6073265,0.0316372 c-0.2319374,0.1014347-0.4695091,0.2070217-0.7139015,0.3238792L56.8368835,19.631876z M56.4260025,19.6101265 c0.0548706,0.0029659,0.106678,0.005537,0.161644,0.008503l-0.152153,0.5103378 c-0.0934258,0.0452805-0.1818085,0.0866051-0.2768173,0.1328735c-0.4377747,0.2125587-0.8967018,0.4247227-1.3584976,0.6301632 l0.9889412-1.6741714C55.8609924,19.3918343,55.9859581,19.5879803,56.4260025,19.6101265z M55.0271721,18.4901905 c0.1293144,0.1765709,0.2699966,0.3472118,0.5074692,0.4049473c0.059021,0.015028,0.0908585,0.0423145,0.1207161,0.0723686 l-1.2417412,2.1040344c-0.335743,0.1467152-0.9280396,0.4739571-1.6621094,0.8994694L55.0271721,18.4901905z M54.3704147,17.8637848 c0.2349014,0.1026211,0.3730164,0.2625828,0.4972878,0.4274902l-2.5856018,3.953392 c-0.5516663,0.3238792-1.1603737,0.6873055-1.784111,1.0600243l3.3205643-5.669878 C54.0027351,17.7119293,54.2001686,17.7890434,54.3704147,17.8637848z M52.1194687,17.0337181 c0.5247726,0.1427593,1.0115814,0.3203201,1.4729805,0.5073719l-3.5251122,6.0202541 c-0.3073692,0.1832943-0.6146393,0.3665905-0.9194412,0.5475121L52.1194687,17.0337181z M50.0813751,17.020668 c0.4941254,0.0909557,0.7885437,0.0336132,1.043911-0.0205631c0.2201729-0.0490379,0.4365845-0.0731602,0.7521591-0.016016 l-3.0785408,7.3311958c-0.4339142,0.2570477-0.8568573,0.5053959-1.2607193,0.7391109L50.0813751,17.020668z M47.7536125,17.0143414 c0.1478996,0,0.2720757,0,0.3606567-0.009491c0.1028175-0.009491,0.2032661-0.0268917,0.3100395-0.0458736 c0.3286247-0.0549698,0.711132-0.1158695,1.4156418,0.0221462l-2.6111107,8.2496471 c-0.5842896,0.3349533-1.1126213,0.6275921-1.5557327,0.8561668l2.0200005-9.0714092 C47.7114944,17.0153294,47.7359161,17.0143414,47.7536125,17.0143414z M45.7375679,17.5126171 c0.4469643-0.4140434,1.1568146-0.4800854,1.7053146-0.4923439l-2.0518341,9.2153549 c-0.3165665,0.1587772-0.8024826,0.4065304-1.4025917,0.7147903l1.4805946-9.2373028 C45.5606003,17.6549816,45.6513557,17.5923023,45.7375679,17.5126171z M41.1963272,20.9471703 c0.0912514-0.1653023,0.1612473-0.3701496,0.2323303-0.5935822c0.167675-0.5283318,0.3400955-1.0740643,0.8375816-1.0977917 c0.4144402-0.0203667,0.7044067-0.1239758,0.9409904-0.2493362L42.0397377,27.95508 c-0.3674774,0.1898193-0.7486,0.3871536-1.1425743,0.5912094L41.1963272,20.9471703z M39.6886444,22.8651409 c0.1194267-0.1743965,0.2173042-0.3661938,0.2443924-0.597538c0.0395432-0.3353481,0.3219032-0.520422,0.6208687-0.7181511 c0.1351471-0.0889778,0.2671318-0.1850739,0.3878441-0.2926388l-0.291748,7.4174061 c-0.3168602,0.1641159-0.635006,0.3292198-0.9613571,0.498476V22.8651409z M47.9717064,32.7335968 c-0.5935822,0.0891762-1.1971512,0.1749878-1.6844521,0.1749878c-0.2135468,0-0.6240349-0.0047455-1.1642303-0.0110703 c-0.0217476-0.0003967-0.0473557-0.0005951-0.0695-0.0007935l-6.468998-2.8773518 c0.3318863-0.1724186,0.660511-0.3428612,0.9894333-0.5133038L47.9717064,32.7335968z M38.9807739,23.8288708 c0.0609016-0.1977291,0.2222481-0.3796387,0.3938751-0.5710411c0.0245171-0.027483,0.0470581-0.0616913,0.0719719-0.0899658 v6.1301899c-0.3392029,0.1759796-0.6782074,0.3519592-1.0204773,0.5297165l-0.0099869-5.2147064 C38.6828957,24.3421764,38.9001007,24.0902691,38.9807739,23.8288708z M44.4409599,32.8892097 c-0.7327843-0.008503-1.5902367-0.0174026-2.4829826-0.0213547l-4.4846878-2.2713146 c0.2769165-0.1439457,0.5563087-0.2888813,0.8356018-0.4340153L44.4409599,32.8892097z M37.3285484,25.6843605 c0.2513161-0.2570477,0.4862175-0.4808769,0.6912613-0.6754417c0.0611-0.0577374,0.0980759-0.1004467,0.1547241-0.1546249 l0.009491,5.0992317c-0.2863121,0.1484947-0.5718307,0.2971878-0.8554764,0.4442978V25.6843605z M37.2090225,30.733963 l4.2119255,2.132309c-0.6244316-0.0011864-1.251133,0.0005913-1.8542061,0.0069199l-2.9644508-1.824049 C36.802887,30.9449387,37.0050659,30.8399448,37.2090225,30.733963z M36.4775238,26.6777496 c0.2379684-0.2936268,0.4441986-0.5411835,0.609005-0.7288284v4.5748558c-0.2046471,0.106575-0.407814,0.2119656-0.609005,0.3165627 V26.6777496z M39.1124611,32.8785324c-0.4332237,0.0065231-0.8446999,0.0160141-1.2265129,0.0288658l-2.2879219-1.3358555 c0.2488403-0.1297112,0.4952126-0.2574444,0.7532501-0.3918991L39.1124611,32.8785324z M35.6049461,27.7749481 c0.2201729-0.2809734,0.4317436-0.5485001,0.630558-0.7970448v3.9881935 c-0.2601128,0.1352463-0.5082626,0.2645607-0.7590828,0.3950615L35.6049461,27.7749481z M34.7750778,28.8420925 c0.1929855-0.2495346,0.3845825-0.4962997,0.5758858-0.7418804l-0.121109,3.3890743 c-0.2102852,0.1093445-0.4096947,0.2131519-0.6105881,0.3177509L34.7750778,28.8420925z M33.8295364,30.0697899 c0.2183952-0.2845306,0.4468689-0.5815201,0.6851311-0.8907681l-0.1448364,2.7579231 c-0.1832924,0.0953045-0.3672791,0.191206-0.5402946,0.2811718V30.0697899z M33.8295364,32.4917717 c0.1905136-0.0992584,0.3878479-0.2018814,0.591507-0.3078613l1.5572166,0.8638763 c-0.0940208,0.0166092-0.1713333,0.0344048-0.2299614,0.0537834c-0.1755829,0.0581322-0.4208641,0.1127052-0.6886902,0.1649055 l-1.230072-0.7660027V32.4917717z M32.9500389,31.2144432c0.1874466-0.2430077,0.3985252-0.5180492,0.6374779-0.8294716v1.9590988 c-0.2190819,0.11409-0.4400444,0.2291679-0.6374779,0.3319855V31.2144432z M33.4118347,33.5158119 c-0.284729,0.0346031-0.5592766,0.06604-0.8141479,0.0927353l-0.2436028-0.3484001 c0.1391029-0.0723686,0.3014374-0.1569977,0.4592247-0.2392502L33.4118347,33.5158119z M32.3671341,31.9610691 c0.0777092-0.0960979,0.199707-0.2521057,0.3408852-0.4338188v1.2749577 c-0.1530418,0.0794868-0.3090515,0.1609497-0.4444962,0.2313423l-0.151062-0.7762833 C32.1973839,32.1591911,32.2780571,32.0712051,32.3671341,31.9610691z M31.9113693,32.4909821l0.1281281,0.6594276 c-0.0944157,0.0492325-0.1780548,0.0927315-0.2608032,0.1358376l-0.1757812-0.4705925 C31.6995029,32.7171822,31.7972794,32.6167374,31.9113693,32.4909821z M31.4165535,33.0036926l0.1500759,0.3932838 c-0.2475567,0.1289177-0.3892288,0.2028694-0.4732647,0.2465668c0.0024719-0.076519,0.0120621-0.2074165,0.0273857-0.3636246 C31.1579227,33.2478867,31.2602482,33.1553497,31.4165535,33.0036926z M31.1092815,31.9757004l-0.7955627,0.1581841 c-0.0057335-0.1983223-0.0129509-0.4174061-0.0203648-0.6434116l1.031353-0.22719 C31.2375088,31.5151901,31.1673164,31.7518711,31.1092815,31.9757004z M31.4282188,30.9918003l-1.1429729,0.2509193 c-0.0062275-0.1821098-0.0141373-0.3798389-0.0215511-0.5755901l1.3625488-0.1680698 C31.5510082,30.6685143,31.4895153,30.8300591,31.4282188,30.9918003z M32.0491867,29.6531754 c-0.112606,0.2001019-0.2040558,0.3930855-0.2965927,0.5862675l-1.4979954,0.1880398 c-0.006031-0.1522522-0.0124569-0.305294-0.0191803-0.4638729l2.011694-0.626009 C32.1593208,29.4708691,32.0920944,29.5768528,32.0491867,29.6531754z M32.5664444,28.8622608 c-0.0408287,0.0601082-0.0674248,0.1004448-0.1044006,0.1554146l-2.237896,0.6944237 c-0.0125561-0.284729-0.0261002-0.5734138-0.0411263-0.8733692l2.977005-0.8638783 C32.9373856,28.313364,32.7345161,28.6135178,32.5664444,28.8622608z M33.3628998,27.6620445l-3.1929283,0.9273491 c-0.0128536-0.246172-0.025507-0.4909611-0.040041-0.7438564l4.0709438-1.5339813 C33.913475,26.797575,33.6291389,27.2507687,33.3628998,27.6620445z M34.3937569,25.9789772l-4.2793484,1.6146545 c-0.0128517-0.2163162-0.0257053-0.4324341-0.0399418-0.6517162l5.1403618-2.5111561 C34.9587669,24.9602776,34.680069,25.4810944,34.3937569,25.9789772z M35.3837852,24.078207l-5.3267174,2.6021137 c-0.0207615-0.30826-0.0433025-0.6177044-0.06703-0.9267559l5.8783817-2.8678608 C35.7285271,23.2801743,35.566391,23.6795864,35.3837852,24.078207z M35.9770737,22.5626144l-6.0072041,2.9307404 c-0.0224438-0.2807751-0.0467644-0.5593758-0.0717754-0.8367901l6.3793297-3.3449802 C36.2199821,21.7125778,36.1144943,22.1329498,35.9770737,22.5626144z M36.3038216,21.0236912l-6.4282684,3.370882 c-0.0333176-0.3553181-0.0696011-0.7041111-0.1075649-1.0465794l6.4356823-3.595108 C36.3167725,20.1360855,36.344059,20.5643673,36.3038216,21.0236912z M35.9223022,19.1229229 c0.0837364,0.1227894,0.1452332,0.258234,0.2020798,0.395853l-6.3867455,3.5682163 c-0.0321312-0.2774143-0.0657444-0.5492916-0.1013355-0.8126659l5.6809483-3.825264 C35.5313911,18.6531181,35.7437515,18.8611298,35.9223022,19.1229229z M35.1526413,18.2659645l-5.5538101,3.7420216 c-0.0474548-0.3327789-0.0974808-0.6519127-0.1508675-0.9528561l4.9285927-3.3032608 C34.6457634,17.8993759,34.9104233,18.0597343,35.1526413,18.2659645z M34.1345367,17.6217632l-4.7371922,3.1759224 c-0.038063-0.1995068-0.0757294-0.4013882-0.1167583-0.5817184l3.848793-2.9605942 C33.4703636,17.344944,33.8069954,17.4651623,34.1345367,17.6217632z M32.814991,17.1911106l-3.6004467,2.771368 c-0.0947113-0.3768711-0.1960487-0.7070789-0.3069744-0.963335l2.7887688-1.96068 C32.0592728,17.0594234,32.4320908,17.1104374,32.814991,17.1911106z M30.7615757,17.0313454 c0.1795387-0.0092926,0.3534412-0.0221462,0.5501804-0.0193768l-2.5164967,1.7692776 c-0.0310421-0.0563526-0.0625801-0.1095409-0.0949097-0.1556129L30.7615757,17.0313454z M28.6238289,18.3768902 c-0.0021744-0.0802765,0.0101833-0.1607533,0.0497284-0.2426128c0.2532921-0.5216084,1.2256241-0.9063892,1.611393-1.0424271 L28.6238289,18.3768902z M26.3973026,17.9159851c0.4492397-0.4492397,0.9854813-0.4729691,1.6055584-0.4998589 c0.4160213-0.0174007,0.8454895-0.0363827,1.3058014-0.1803284c0.0214539-0.006525,0.0652523-0.0138416,0.0902634-0.020565 c-0.3885365,0.2054405-0.7806339,0.4785042-0.9428692,0.8130627c-0.0688095,0.1423645-0.09412,0.2863102-0.0751381,0.4286747 l-2.4023075-0.2362862C26.1184063,18.1497002,26.2586937,18.0551853,26.3973026,17.9159851z M25.2511654,18.3919182 l3.21982,0.3171577c0.0396442,0.0494328,0.0765209,0.1237774,0.1142864,0.1904125l-4.267189-0.4130554 c0.005537-0.004549,0.0176964-0.007515,0.0228386-0.0120621c0.1218014-0.1091461,0.3258572-0.1012363,0.5829048-0.0901642 C25.0274353,18.3895454,25.1374722,18.3940926,25.2511654,18.3919182z M24.3994484,16.1743889 c0.2654514,0.0379639,0.4310493,1.0283871,0.4429131,1.9689846c-0.2524014-0.0079098-0.4900703-0.0051422-0.663578,0.1506691 c-0.1138916,0.1012363-0.4342136,0.1961479-0.7735157,0.2958031c-0.1061802,0.0314388-0.2176991,0.0684128-0.3279343,0.1030159 l0.4114742-3.3093891C23.6762543,15.7391863,23.9948959,16.1174412,24.3994484,16.1743889z M22.8832626,13.4046011 c0.0759277-0.0316372,0.1170559-0.0142374,0.1431561,0.0047455c0.0852203,0.058527,0.2820606,0.3151798,0.2828522,1.4558783 l-0.4858208,3.9073219c-0.2642651,0.0929317-0.510437,0.2062302-0.7076721,0.346817l-0.5827065-1.7941933l0.2218513-3.9399471 C22.0882931,13.5070238,22.5075779,13.5532932,22.8832626,13.4046011z M20.0172806,12.0145664 c0.2265968,0.0391502,0.4271927,0.05655,0.5311985,0.05655c0.2562561,0,0.4334221,0.4081125,0.5623417,0.7054968 c0.0442905,0.1028194,0.0846272,0.1929836,0.1218014,0.2594204c0.0517063,0.09056,0.1560078,0.1747923,0.285223,0.2493362 l-0.1918964,3.4017296l-1.3331871-4.10604L20.0172806,12.0145664z M12.5088196,9.0535746 c0.3274393-0.0357885,0.6541862-0.0694027,0.9519663-0.0947123l0.171134,0.5271454v3.2838831 c-0.3955564-0.3464212-0.7710438-0.6651602-1.1231003-0.9494944V9.0535746z M11.3928375,9.1769581 c0.2047482-0.021553,0.4302578-0.0468626,0.6762333-0.0749397c0.0633717-0.0071182,0.1324778-0.0144339,0.1977291-0.0217505 v2.5471449c-0.3091497-0.2447882-0.6010962-0.4698038-0.8739624-0.6695099V9.1769581z M10.281601,9.2518969 c0.188633-0.0138407,0.3476076-0.0233316,0.437376-0.0233316c0.1000509,0,0.2539835-0.0114689,0.4318399-0.0278797v1.5822268 c-0.3170576-0.226202-0.6066322-0.4243259-0.869216-0.592989V9.2518969z M10.0395803,9.2716703v0.760663 c-0.5083609-0.315773-0.9026327-0.5257616-1.1715441-0.6542854C9.2063503,9.3448296,9.6419477,9.3040972,10.0395803,9.2716703z M9.7850046,10.1658001l-1.085928,0.104599c0.0149288-0.063076,0.031538-0.1384106,0.0441923-0.1813173 C8.8026867,9.8897705,8.7544413,9.715374,8.6889925,9.5658903C8.9286404,9.6778049,9.2924614,9.8660431,9.7850046,10.1658001z M8.6379786,10.5191422l1.4797049-0.1407833c0.2495337,0.1591721,0.5226965,0.3442459,0.8227501,0.5560141l-2.5122452,0.3286257 C8.505599,11.0397625,8.5751009,10.7910194,8.6379786,10.5191422z M7.4390492,12.2957363 c0.0450821-0.0854187,0.1740012-0.284729,0.4081125-0.3052931c0.207912-0.0166092,0.3604598-0.2001019,0.4851279-0.4701996 l2.8937635-0.3796396c0.2680216,0.1949606,0.5532455,0.4132538,0.8564625,0.6521101l-4.6997204,0.6837463 C7.3963399,12.4159555,7.4081044,12.3542643,7.4390492,12.2957363z M7.2595115,13.4346552 c0.1233826-0.2689114,0.2301564-0.50144,0.1305008-0.6770239c-0.0050421-0.0088978-0.0012851-0.0257044-0.0051408-0.0359869 l4.9576578-0.722106c0.3503761,0.2819614,0.7228975,0.5971413,1.115983,0.9403992l-6.3139806,0.7675838 C7.179431,13.6161709,7.2186804,13.5240288,7.2595115,13.4346552z M7.1100283,14.2129164 c-0.0441923-0.0692053-0.0453787-0.1581831-0.0323286-0.2532902l6.6268864-0.8053503 c0.1195269,0.1061802,0.2257071,0.1921921,0.3488922,0.3041067c0.2365828,0.2151299,0.4861164,0.4484491,0.7431641,0.6930399 l-7.506681,0.9844933C7.2732534,14.7764444,7.2449784,14.4246845,7.1100283,14.2129164z M7.3052855,15.378727l7.7139997-1.012373 c0.0915489,0.0881872,0.1965427,0.1977291,0.290266,0.2894754l0.3537378,1.0902777l-8.1391182,1.0009041 c0.0001979-0.0035591,0.0000992-0.007513,0.0002966-0.0110722c0.009491-0.2325306,0.0181913-0.4539871-0.1091461-0.6026783 C7.3322754,16.03578,7.3169518,15.693511,7.3052855,15.378727z M7.7577882,17.5822182 c-0.1873479-0.1599636-0.2306509-0.3705444-0.2363849-0.5908146l8.2182093-1.0103941l0.4226456,1.3022432l-8.0644751,1.1460361 C8.0511189,18.1069908,7.995162,17.7811337,7.7577882,17.5822182z M8.6048594,19.330143 c-0.3183441-0.0454788-0.403862-0.2851257-0.4652567-0.6614037l8.0987816-1.1505852l0.578949,1.7841091L9.5554409,20.172863 C9.3854933,19.8300018,9.146637,19.4082451,8.6048594,19.330143z M10.3891649,21.0179558 c-0.2349014-0.186655-0.4049482-0.3211117-0.5291224-0.3764744c-0.064064-0.0284729-0.1240749-0.1265469-0.1842833-0.2392521 l7.2177-0.8656578l0.5714378,1.7611713l-5.8642464,0.583498C11.1006927,21.5712013,10.6927786,21.2583942,10.3891649,21.0179558z M12.7785225,22.495388c-0.3034153-0.1253605-0.5766773-0.2637711-0.8318462-0.4057407l5.5946426-0.5564098l0.4322357,1.3319035 l-3.7855215,0.2958031C13.5141726,22.827177,13.0057125,22.5895061,12.7785225,22.495388z M14.6083059,23.3701401 l3.4420652-0.2685165l0.4341145,1.3382301l-1.6901875,0.0763245C15.9757996,24.0726719,15.2313499,23.6841335,14.6083059,23.3701401 z M17.2065639,24.7415886l1.3559265-0.0616913l0.3325787,1.024828 C18.3214588,25.3735294,17.7377625,25.0326462,17.2065639,24.7415886z M27.760643,32.279808 c-0.4085083-0.2303543-0.957304-0.5156784-1.6367016-0.8156319l-0.2785988-0.8583412 C26.5384808,31.1594753,27.185154,31.7198391,27.760643,32.279808z M20.304285,30.0474472l0.4377708,1.3491058l-1.6418419-1.5310154 C19.5270119,29.9141788,19.9059582,29.9853611,20.304285,30.0474472z M18.7017899,29.8244095l2.1938019,2.0449123 l0.2663422,0.8209705c-0.2818623-0.0162125-0.5557175-0.0351944-0.8531017-0.0464668l-3.9223499-2.9550591 C17.203598,29.699049,17.9680176,29.7516441,18.7017899,29.8244095z M15.9863777,29.6899529l3.9049492,2.9441833 c-0.4267979-0.0128517-0.8492451-0.0272865-1.2995739-0.0300522l-5.524744-2.7492237 C14.0846205,29.7488766,15.0631809,29.6915359,15.9863777,29.6899529z M10.2040911,30.2795811 c0.8280888-0.1680698,1.6253319-0.2873001,2.4041862-0.3810234l5.4332952,2.7013721 c-0.4688148,0.0017815-0.9761887,0.0237274-1.4689274,0.0377655l-6.3994989-2.3502045 C10.1807594,30.2855129,10.2014217,30.2803726,10.2040911,30.2795811z M7.834507,30.858532 c0.3676767-0.0733585,1.3444586-0.3183441,1.9228153-0.4650593l6.1586637,2.2608318 c-0.5808287,0.0229378-1.1851873,0.062088-1.7968616,0.103611l-6.3776488-1.8685379 C7.7709374,30.8814678,7.8068252,30.864069,7.834507,30.858532z M6.2740302,31.7111397 c0.1322808-0.1660938,0.6180019-0.4808769,1.073668-0.6831551l6.0810556,1.7813416 c-0.4477577,0.0348015-0.8703041,0.0535851-1.3335829,0.0992584c-0.00702,0.0003967-0.1821089,0.0102844-0.4365854,0.0284729 l-5.4659209-1.1693687C6.2179742,31.748312,6.2553449,31.7342739,6.2740302,31.7111397z M5.7346253,31.9784679 c0.0397439-0.0130501,0.0680189-0.0257034,0.1048956-0.0379639l4.9862304,1.0673428 c-0.4110794,0.0395432-0.8877048,0.0927353-1.3940887,0.1637192l-4.6661067-0.62957 C5.0067854,32.2311668,5.4011555,32.0880089,5.7346253,31.9784679z M4.6128101,32.7662201l3.9804821,0.5378227 c-0.6278887,0.1099396-1.2526131,0.2465668-1.7963676,0.4191856H3.9842298 C4.1487403,33.5353851,4.3682194,33.2387924,4.6128101,32.7662201z M3.7525904,33.9699936l0.0031636-0.0031624h2.3724508 C5.790484,34.09832,5.43645,34.2432556,5.0607653,34.4018364c-0.3293176,0.1388054-0.6682253,0.2799835-1.0060449,0.4148331 l-0.9401026-0.2483482C3.3214424,34.3909607,3.5331113,34.1961975,3.7525904,33.9699936z M2.8765523,34.7557678l0.7943759,0.209198 c-0.90026,0.3410835-1.7634456,0.5947685-2.381052,0.5271454C1.732097,35.4901352,2.2736766,35.2275505,2.8765523,34.7557678z M2.4111972,36.0042305c-0.4563586-0.0648537-0.9277444-0.1328735-1.203774-0.2958031 c-0.013149-0.0077095-0.0155218-0.0110741-0.0270889-0.0183868c0.105785,0.0172005,0.1974324,0.0547676,0.3149822,0.0547676 c0.5889359,0,1.3170726-0.2115669,2.0709143-0.4868088l-0.825815,0.797245 C2.633049,36.0380402,2.5261765,36.0208397,2.4111972,36.0042305z M3.0291002,36.112587l1.1073811-1.0677376 c0.3425655-0.1364326,0.6850319-0.2793922,1.0184031-0.4199753c0.3740044-0.157196,0.7256651-0.301342,1.0602226-0.4318428 l-2.5872836,2.1989441C3.5075054,36.2573242,3.2985058,36.1715088,3.0291002,36.112587z M4.0932775,37.2977715 c-0.1491866-0.2115669-0.2627819-0.4757347-0.3375235-0.6979828l3.1122541-2.6448212 c0.6316447-0.2008934,1.3762927-0.3503761,2.1063075-0.4668388L4.0932775,37.2977715z M4.547461,37.6192818 c-0.110333,0-0.2093954-0.0547714-0.3004494-0.135643l5.2169795-4.0718346 c0.7010479-0.0980721,1.3374386-0.1609497,1.8203917-0.201088l-5.623807,4.8435669 C5.5306683,37.7788467,5.1494465,37.6192818,4.547461,37.6192818z M6.7705274,38.6684303 c-0.0627789,0.0237274-0.133368,0.0549698-0.17064,0.0549698c-0.2498302,0-0.8041635-0.1447372-0.8591323-0.418396 l5.9517403-5.1267166c0.2428112-0.0172005,0.4121666-0.0268898,0.4200754-0.0276833 c0.5341654-0.0525932,1.0489521-0.0941162,1.5582037-0.1324768L6.7705274,38.6684303z M7.8519073,38.8451996 c-0.0790915,0.0173988-0.196938,0.039547-0.2246203,0.0316353c0-0.0015793-0.0079088-0.0110703-0.0118637-0.0458717 c-0.0142365-0.1312904-0.0664368-0.2246208-0.1534376-0.275238c-0.0446868-0.0270882-0.1005449-0.0142365-0.1522512-0.0166092 l6.7822027-5.5532188c0.6696091-0.0464668,1.312623-0.0788918,1.9382372-0.1030159l-7.2102852,6.2173882 C8.5092573,38.7168732,8.1050005,38.7876625,7.8519073,38.8451996z M8.9856853,39.2770386l7.428875-6.4060211 c0.6206703-0.0199699,1.2191963-0.0302544,1.7954769-0.0308456l-7.4132538,6.664257 C9.9834251,39.6234627,9.2846518,39.6195068,8.9856853,39.2770386z M12.6290388,39.1489105l-0.4049492,0.0854187 c-0.3243742,0.068615-0.6584368,0.1386108-0.9853821,0.1981239l7.3354483-6.5934677 c0.4476585,0.0023727,0.8789043,0.0106773,1.2990799,0.0233307l-5.8848104,5.9779396 C13.4811516,38.9646263,13.0060091,39.07061,12.6290388,39.1489105z M17.3688984,37.6954041 c-0.7479095,0.4033699-1.8765459,0.7571068-2.9278708,1.0311584l5.7640963-5.8563347 c0.3620415,0.0130501,0.6935329,0.0357857,1.0333309,0.0557594l0.1642132,0.506382L17.3688984,37.6954041z M18.5344124,36.8168945 l2.9536743-3.1213493l0.3693581,1.1381302l-0.3820114,0.4725723C20.1058636,35.6020508,19.237833,36.2347832,18.5344124,36.8168945z M21.8504257,35.2271538l0.096096-0.11903l0.0343056,0.105587C21.9392052,35.2196426,21.8912563,35.220829,21.8504257,35.2271538z M22.9502926,38.2011948l-0.3154755-0.0084991c-0.009491-0.0850258-0.0069218-0.17519-0.0188847-0.2586327 c-0.026001-0.1819077,0.0129528-0.362236,0.0719738-0.5411835L22.9502926,38.2011948z M22.1687698,41.5141449l0.2825546,0.1811218 c-0.1657963,0.0695992-0.3336678,0.126545-0.5030231,0.1724167C22.0320396,41.7628899,22.1004543,41.6391106,22.1687698,41.5141449z M22.5083694,42.1146469c-0.1321831-0.0175972-0.2564545-0.0346031-0.3686657-0.0500259 c0.1398926-0.042511,0.2790947-0.0925369,0.4165154-0.1506691L22.5083694,42.1146469z M22.2966003,41.3092995 c0.0326252-0.073555,0.0589237-0.1502762,0.0872002-0.2285767l0.6901722,0.2896729 c-0.1195278,0.0741501-0.2396469,0.1457253-0.3600655,0.206234L22.2966003,41.3092995z M23.1650276,42.1998711 c-0.1412773-0.0177956-0.2786999-0.0355911-0.4150333-0.0533867L22.834919,41.78899 c0.1311932-0.0664368,0.261694-0.1463203,0.3917007-0.2279816L23.1650276,42.1998711z M22.447567,40.843647 c0.0512123-0.1732101,0.1086521-0.3406868,0.1419697-0.527935l1.1883507,0.4359894l0.0261993,0.0806732 c-0.1597652,0.1384125-0.3190365,0.2677269-0.478405,0.3804321L22.447567,40.843647z M23.4047737,42.2299232l0.0803757-0.8312531 c0.1331711-0.0949097,0.2661438-0.2062302,0.3993149-0.3185387l0.1163635,0.3584824v0.8601189 C23.8153572,42.2787628,23.6155529,42.255825,23.4047737,42.2299232z M24.2428474,42.3236465v-0.1391983l0.0464668,0.1431541 C24.2727051,42.3260193,24.2599506,42.3252296,24.2428474,42.3236465z M29.5691719,42.0751038 c0.0079079-0.3098412,0.0169048-0.6262093,0.0277805-0.9481125c0.0033607-0.0079079,0.0074139-0.0152245,0.0106773-0.022934 c0.0427094-0.099659,0.1051922-0.216713,0.1724186-0.3432579c0.1898212-0.3590775,0.4057407-0.7656097,0.3630314-1.0788116 c-0.0221462-0.1581802,0.0498276-0.5093498,0.1138916-0.8193893c0.1004467-0.4887848,0.1573925-0.7956581,0.0909557-0.9570084 c-0.0332184-0.0822525-0.0348015-0.3416748-0.0363827-0.6422234c-0.0021744-0.3519554-0.0223427-0.8474655-0.075037-1.3868713 c0.0581322-0.1492844,0.1096401-0.2412262,0.155611-0.3088493c0.0010891,3.6548195,1.157011,9.7373581,1.1698647,9.8010292 c0.122591,0.6374779,0.3219013,1.2512283,0.5536404,1.9614716c0.1439476,0.4429131,0.3076668,0.9459343,0.4753418,1.523304 c0.0304489,0.1051903,0.0950089,0.192585,0.136631,0.2918472l-0.0029678,0.0166092l0.0117645,0.0021744 c0,0.0001984,0.0000992,0.0001984,0.0000992,0.0001984l-0.4492416,1.282074L29.5691719,42.0751038z M33.8096657,50.4516907 c0.4522057,0.323288,1.0147476,0.586071,1.708477,0.7745056c0.3559113,0.0964928,0.3661957,0.2262039,0.3796387,0.3907127 c0.0127563,0.1593704,0.052597,0.3060837,0.2318382,0.3970413h-2.8711243L33.8096657,50.4516907z M37.5903435,52.6277008 c-0.1550217-0.1028214-0.2214584-0.207222-0.2910576-0.3163681c-0.1305008-0.2056389-0.2538834-0.3986206-0.8320427-0.4539871 c-0.1187363-0.011467-0.1840858-0.032032-0.2310486-0.0585251l0.3177528-7.4682236 c0.062088,0.1427612,0.1323776,0.3076668,0.1877441,0.4322357c0.162632,0.3650055,0.3680725,0.7644196,0.5975342,1.1804428 l0.5114288,6.7836838C37.7558441,52.7032318,37.6647873,52.6771317,37.5903435,52.6277008z M38.3156128,52.8017006 c-0.0810699-0.0079079-0.1459236-0.0193787-0.2179947-0.0284729l-0.4776154-6.3362236 c0.3629303,0.6250191,0.7715378,1.2783165,1.2016983,1.9312172l0.4680252,4.61203 C38.9203682,52.8661613,38.5934219,52.8281975,38.3156128,52.8017006z M39.8681793,53.2129784 c-0.1135941-0.0589256-0.219677-0.1000519-0.326252-0.1423645l-0.4336205-4.2721329 c0.3782578,0.5633278,0.7624435,1.1173668,1.1331863,1.6385803l0.372818,3.0100288 C40.3753548,53.4101143,40.1284904,53.3472366,39.8681793,53.2129784z M41.6018677,53.4676514 c-0.231739,0.0158195-0.4796906,0.0292664-0.7395058,0.0122604l-0.3255615-2.6313782 c0.2325287,0.3230896,0.456459,0.630558,0.6661491,0.9146957l0.45438,1.7016563 C41.6383476,53.4662666,41.6209488,53.4660721,41.6018677,53.4676514z M42.4497299,53.4929619 c-0.1674767-0.0446854-0.3529472-0.0474548-0.5447426-0.0403366l-0.3112259-1.1634369 c0.4260063,0.5690613,0.7508774,0.9912148,0.9239883,1.2138557C42.4924393,53.498497,42.4829483,53.5022545,42.4497299,53.4929619z M42.715477,53.1164856c0.010479,0.0913506,0.01651,0.1854706,0.0131493,0.2645607 c-0.1798325-0.2315407-0.5595741-0.7248726-1.0566635-1.3916168l1.0678368,0.4324341 c-0.0198746,0.1350479-0.0480499,0.2845306-0.0480499,0.3845825C42.6917496,52.9076843,42.7036133,53.0136681,42.715477,53.1164856z M42.7714348,52.172924l-1.3779716-0.5587845c-0.2138443-0.2898712-0.4428139-0.6044579-0.6802864-0.9344673l2.1796646,0.9364471 C42.8494377,51.807518,42.8041611,52.0026779,42.7714348,52.172924z M42.947216,51.3669815 c-0.0006905,0.0031624-0.0012856,0.0059319-0.001976,0.0090942l-2.5054245-1.0772285 c-0.3637238-0.5109329-0.7402-1.0535011-1.1112366-1.6053619l3.7408333,2.1230164 C43.0303612,50.9976234,42.9888382,51.1826973,42.947216,51.3669815z M43.4312553,49.9844589 c-0.1014328,0.1384087-0.2078133,0.3193321-0.2902641,0.5925941l-4.112072-2.3332024 c-0.4511185-0.6843414-0.8790016-1.3692741-1.2534027-2.020195l5.9208946,3.1705818 C43.6368942,49.6793633,43.5438652,49.8320084,43.4312553,49.9844589z M43.8765411,47.872715 c0,0.4571495-0.0324249,0.6564598-0.126545,1.2512283l-0.0033607,0.0211563l-6.1939583-3.3155212 c-0.2263031-0.4106827-0.4291725-0.8047562-0.5895309-1.1648178c-0.0790901-0.1779594-0.1753845-0.4021835-0.2677231-0.6157303 l6.9943657,3.2949562C43.7925072,47.547451,43.8765411,47.7374649,43.8765411,47.872715z M42.6655502,44.7689629 c0.193676,0.2892761,0.3821106,0.589035,0.3821106,0.9318962c0,0.4251175,0.2389565,0.8810806,0.4603157,1.2907753 l-6.958477-3.2779503c-0.2427139-0.5647163-0.5273438-1.2193947-0.8382721-1.9053192L42.6655502,44.7689629z M41.6659317,42.3932495 c0.0221481,0.3274384,0.1858673,0.599514,0.3306046,0.8383713c0.1344566,0.2230377,0.2610016,0.431839,0.2610016,0.6532936 c0,0.1783524,0.085022,0.3529472,0.1897202,0.5291252l-6.8818588-2.930542 c-0.2366791-0.5136986-0.4966927-1.0449982-0.7687683-1.5792618l6.7519493,2.1864891 C41.6117554,42.1959152,41.6596069,42.2979431,41.6659317,42.3932495z M39.7642746,39.9103661 c0.1040039,0.1326752,0.2123604,0.2619896,0.3000526,0.4059372c0.2491379,0.4096947,0.5916061,0.7640266,0.893734,1.0756454 c0.1222,0.126545,0.233223,0.2455788,0.3354492,0.3610535l-6.6575356-2.155838 c-0.1754837-0.3365364-0.3557129-0.6687202-0.5448418-1.0007057L39.7642746,39.9103661z M40.4004669,39.5949898 c-0.1202202-0.069603-0.2738533-0.1641159-0.4421234-0.26931l-0.7459297-3.7078133 c0.4083099,0.0850258,0.8180046,0.1716309,1.2274017,0.2602119l1.225029,4.5299721 C41.2458572,40.1177826,40.8235092,39.8391838,40.4004669,39.5949898z M42.7977333,41.2179489 c-0.2698021-0.1961479-0.5462265-0.3918991-0.8214645-0.5872574l-1.2699165-4.6938858 c0.5048027,0.1101341,1.0048599,0.2220497,1.4979973,0.3349533l2.0564804,5.9633064 C43.8105011,41.9461823,43.3223076,41.6003571,42.7977333,41.2179489z M46.1330261,43.5558929 c-0.5739098-0.4369774-1.1122246-0.8431129-1.5404091-1.1025352l-2.1110535-6.1185265 c0.4927406,0.1138954,0.970356,0.227787,1.4364014,0.3416786l3.0660858,7.5152817 C46.6971474,43.9818039,46.4103394,43.7662773,46.1330261,43.5558929z M48.9542236,45.3623466 c-0.4392548-0.1340599-1.0090141-0.4915543-1.6011124-0.9081688l-3.1439896-7.7060928 c0.434906,0.1073685,0.859726,0.2143402,1.2571602,0.3191376c0.1466179,0.0387535,0.324276,0.0905571,0.4876022,0.1362343 l4.3135567,8.6797066C49.823143,45.6846428,49.374691,45.4906731,48.9542236,45.3623466z M52.4057808,46.6452103 c-0.4225502,0-1.0863266-0.2930336-1.7925148-0.6097946l-4.3448944-8.743969 c0.5216064,0.1502724,1.1145973,0.3313942,1.7531624,0.5324821l5.0665092,8.9272652 C52.8913994,46.6922722,52.6761742,46.6452103,52.4057808,46.6452103z M55.0640488,47.1972694 c-0.3804321,0.0316391-0.7402992,0.0616951-0.9989281-0.0300522c-0.1154747-0.0427094-0.2309494-0.1012383-0.3535385-0.1629295 c-0.0803795-0.0403366-0.1797371-0.0767174-0.2677269-0.117054l-5.0822258-8.9559364 c0.5478058,0.1743965,1.1152878,0.3574944,1.7151985,0.5558167l5.4332962,8.6844521 C55.3600464,47.1786842,55.208786,47.1844177,55.0640488,47.1972694z M56.8815727,46.6025009 c-0.3271446,0.260807-0.6678314,0.522995-1.0979881,0.5477104l-5.3439255-8.5420876 c0.6722794,0.2234344,1.3640366,0.4569511,2.0653801,0.6962013l4.555378,7.1593704 C57.0010986,46.5091743,56.9420776,46.5540581,56.8815727,46.6025009z M57.7420883,46.121624 c-0.1587753,0.052597-0.3207169,0.1162682-0.479393,0.2093964l-4.3911667-6.9021263 c0.556015,0.1906128,1.1129189,0.3826065,1.6664619,0.5749969l3.8275375,5.7558899 C58.1894493,45.9559288,57.98312,46.0417442,57.7420883,46.121624z M59.0107155,45.0554695 c-0.1581802,0.1550217-0.3054886,0.310833-0.4759331,0.5216103l-3.6181412-5.4411049 c0.6450882,0.2246208,1.2771301,0.4462738,1.8915749,0.6629868l2.5486259,3.899807 C59.2274284,44.8371773,59.1091843,44.9570007,59.0107155,45.0554695z M60.0729179,43.6254959 c-0.1222954,0.243206-0.2998581,0.5651093-0.555027,0.8769264l-2.3338928-3.5711823 c0.4294662,0.1518555,0.8439064,0.2989655,1.2449989,0.4417267l1.727066,2.0937538 C60.1292686,43.5171394,60.103466,43.5653839,60.0729179,43.6254959z M60.315136,43.2782822l-1.4423332-1.7471313 c0.7044067,0.2513123,1.3581009,0.4856224,1.9175758,0.6873055l0.7033195,0.5836945 C61.0650215,42.8575172,60.5592308,43.0483246,60.315136,43.2782822z M61.8483238,42.7809944l-0.3865585-0.3201218 c0.3725204,0.1348495,0.6991692,0.2530937,0.9420815,0.3412781C62.208786,42.7989883,62.0122414,42.7928581,61.8483238,42.7809944z"></path> </svg>