<?xml version="1.0" encoding="utf-8"?>
<!-- Generator: Adobe Illustrator 25.2.2, SVG Export Plug-In . SVG Version: 6.00 Build 0)  -->
<svg version="1.1" id="Calque_1" xmlns="http://www.w3.org/2000/svg" xmlns:xlink="http://www.w3.org/1999/xlink" x="0px" y="0px"
	 viewBox="0 0 24 24" enable-background="new 0 0 24 24" xml:space="preserve">
<g id="spa-24px" transform="translate(417 65)">
	<path id="Tracé_2594" fill="none" d="M-417-65h24v24h-24V-65z M-403.0299988-43.5100021
		C-403.6690674-43.2780838-404.3286743-43.1073189-405-43C-404.3309631-43.1180229-403.6722717-43.2885513-403.0299988-43.5100021z
		 M-405-43c-0.6690369-0.1180229-1.3277283-0.2885513-1.9700012-0.5100021C-406.3277283-43.2885513-405.6690369-43.1180229-405-43z"
		/>
	<path id="Tracé_2595" fill="#13262F" d="M-408.4500122-53c-1.0808105-0.7258606-2.2732849-1.2697334-3.5299988-1.6100006
		C-410.7232971-54.2697334-409.5308228-53.7258606-408.4500122-53z M-398.019989-54.6100006
		c-1.2738037,0.3419189-2.4807434,0.8963737-3.5700073,1.6399994
		C-400.5007324-53.7136269-399.2937927-54.2680817-398.019989-54.6100006z"/>
	<path id="Tracé_2596" fill="#13262F" d="M-401.5100098-55.3699989c-0.1724243-2.8770485-1.3926086-5.5913162-3.4299927-7.6300011
		c-2.0516968,2.0411835-3.3100891,4.7458496-3.5499878,7.6300011C-407.1949768-54.6833-406.0170288-53.7956123-405-52.7399979
		C-403.9776611-53.7896042-402.8007202-54.6765442-401.5100098-55.3699989z M-408.0100098-52.7200012
		c-0.1399841-0.0999985-0.2999878-0.1899986-0.4499817-0.2899971
		C-408.3099976-52.9000015-408.1499939-52.8199997-408.0100098-52.7200012z M-401.5899963-52.9700012
		c-0.1300049,0.090004-0.269989,0.1600037-0.3999939,0.2600021
		C-401.8599854-52.8100014-401.7200012-52.8800011-401.5899963-52.9700012z M-405-49.5499992
		c-2.1971436-3.3909264-5.9594727-5.4413986-10-5.4500008c-0.018158,5.1413918,3.1956177,9.7399063,8.0299988,11.4899979
		C-406.3309326-43.2780838-405.6713257-43.1073189-405-43c0.6690369-0.1180229,1.3277283-0.2885513,1.9700012-0.5100021
		C-398.1956177-45.2600937-394.981842-49.8586082-395-55C-399.0405273-54.9913979-402.8028564-52.9409256-405-49.5499992z"/>
</g>
</svg>
