<?xml version="1.0" encoding="utf-8"?>
<!-- Generator: Adobe Illustrator 25.2.2, SVG Export Plug-In . SVG Version: 6.00 Build 0)  -->
<svg version="1.1" id="Calque_1" xmlns="http://www.w3.org/2000/svg" xmlns:xlink="http://www.w3.org/1999/xlink" x="0px" y="0px"
	 viewBox="0 0 24 24" enable-background="new 0 0 24 24" xml:space="preserve">
<g id="t-shirt-2-line" transform="translate(1113 625)">
	<path id="Tracé_2564" fill="none" d="M-1113-625h24v24h-24V-625z"/>
	<path id="Tracé_2565" d="M-1104-622c0,1.6568604,1.3431396,3,3,3s3-1.3431396,3-3h6c0.5522461,0,1,0.4476929,1,1v7
		c0,0.5523071-0.4477539,1-1,1h-2v8c0,0.5523071-0.4477539,1-1,1h-12c-0.5522461,0-1-0.4476929-1-1v-8h-2
		c-0.5522461,0-1-0.4476929-1-1v-7c0-0.5523071,0.4477539-1,1-1H-1104z M-1093-620h-3.4169922l-0.0169678,0.0410156
		c-0.7719727,1.7310791-2.4564209,2.8768921-4.3500977,2.9589844H-1101c-1.9726562,0.0004272-3.7611084-1.1589966-4.56604-2.960022
		L-1105.5839844-620H-1109v5h3v9h10v-9h3V-620z"/>
</g>
</svg>
