<?xml version="1.0" encoding="utf-8"?>
<!-- Generator: Adobe Illustrator 25.2.2, SVG Export Plug-In . SVG Version: 6.00 Build 0)  -->
<svg version="1.1" id="Calque_1" xmlns="http://www.w3.org/2000/svg" xmlns:xlink="http://www.w3.org/1999/xlink" x="0px" y="0px"
	 viewBox="0 0 24 24" enable-background="new 0 0 24 24" xml:space="preserve">
<g>
	<g id="wifi-line_2_" transform="translate(1 104)">
		<path id="Tracé_2568_2_" fill="none" d="M-1-104h24v24H-1V-104z"/>
	</g>
	<g id="Groupe_120" transform="translate(-384.097 -350)">
		<g id="Groupe_117">
			<path id="Tracé_2560" d="M404.0969849,362c-0.0038452-1.1029663-0.8970337-1.9961548-2-2h-2v-3
				c-0.0038452-1.1029663-0.8970337-1.9961548-2-2h-4c-1.1032104,0.0032959-1.9967041,0.8967896-2,2v3h-2
				c-1.1032104,0.0032959-1.9967041,0.8967896-2,2v5h1.3299866l0.6700134,2h1l0.6700134-2h8.6700134l0.6600037,2h1l0.6700134-2
				h1.3299866L404.0969849,362z M395.0969849,360h-1v-3h4v3H395.0969849z M390.0969849,362h12v3h-12V362z"/>
		</g>
	</g>
</g>
</svg>
