<?xml version="1.0" encoding="utf-8"?>
<!-- Generator: Adobe Illustrator 25.2.2, SVG Export Plug-In . SVG Version: 6.00 Build 0)  -->
<svg version="1.1" id="Calque_1" xmlns="http://www.w3.org/2000/svg" xmlns:xlink="http://www.w3.org/1999/xlink" x="0px" y="0px"
	 viewBox="0 0 24 24" enable-background="new 0 0 24 24" xml:space="preserve">
<g>
	<g id="bottle-soda-classic-outline" transform="translate(1 137)">
		<path id="Tracé_2563" d="M8.9999933-135v2h0.9099998c-0.2600002,1.7899933-1.9099998,3.5-2.9099998,5v4.7699966
			c1.231595,1.1140747,1.3268623,3.0156174,0.2127857,4.2472076c-0.0673323,0.07444-0.1383505,0.1454544-0.2127857,0.2127914
			v1.7699966c0,1.1045685,0.8954306,2,2,2h4c1.1006966,0.0038757,1.9961271-0.8852768,2-1.9859772
			c0.0000172-0.0046692,0.0000172-0.009346,0-0.0140228v-1.7699966c-1.231595-1.1140823-1.3268633-3.0156174-0.2127867-4.2472153
			c0.0673332-0.0744324,0.1383505-0.1454544,0.2127867-0.2127838V-128c-1-1.5-2.6499996-3.2100067-2.9099998-5h0.9099998v-2
			H8.9999933z M10.9999933-130.5c0.5736017,0.8486633,1.2086353,1.6541595,1.8999996,2.4099884L12.9999933-128v3.9999924
			c-1.333333,1.7777786-1.333333,4.2222214,0,6v1h-4v-1c1.333333-1.7777786,1.333333-4.2222214,0-6V-128l0.1000004-0.0900116
			C9.791358-128.8458405,10.4263926-129.6513367,10.9999933-130.5z"/>
	</g>
	<g id="wifi-line_3_" transform="translate(1 104)">
		<path id="Tracé_2568_3_" fill="none" d="M-1-104h24v24H-1V-104z"/>
	</g>
</g>
</svg>
