<?xml version="1.0" encoding="utf-8"?>
<!-- Generator: Adobe Illustrator 26.0.0, SVG Export Plug-In . SVG Version: 6.00 Build 0)  -->
<svg version="1.1" id="Calque_1" xmlns="http://www.w3.org/2000/svg" xmlns:xlink="http://www.w3.org/1999/xlink" x="0px" y="0px"
	 viewBox="0 0 60.1 60.1" style="enable-background:new 0 0 60.1 60.1;" xml:space="preserve">
<style type="text/css">
	.st0{fill:#5C6A6B;}
</style>
<g id="Bleu_traces">
	<g>
		<path class="st0" d="M14.1,13.4c5.2-5.6,12.2-8.6,19.8-8.6s14.6,3.1,19.8,8.6c0,0,0.1,0.1,0.1,0.1c0,0,0.1,0,0.1-0.1
			c0.1-0.1,0.1-0.2,0-0.3c-5.3-5.6-12.4-8.8-20.1-8.8s-14.8,3.1-20.1,8.8c-0.1,0.1-0.1,0.2,0,0.3C13.9,13.5,14.1,13.5,14.1,13.4z"/>
		<path class="st0" d="M47.7,19.6c0,0,0.1,0,0.1,0c0.1-0.1,0.1-0.2,0-0.3c-3.6-4-8.6-6.2-13.9-6.2c-5.3,0-10.4,2.3-13.9,6.2
			c-0.1,0.1-0.1,0.2,0,0.3c0.1,0.1,0.2,0.1,0.3,0c3.5-3.9,8.5-6.1,13.7-6.1c5.2,0,10.2,2.2,13.7,6.1C47.6,19.6,47.7,19.6,47.7,19.6z
			"/>
		<path class="st0" d="M33.9,20.1c-3.4,0-6.7,1.5-8.9,4.1c-0.1,0.1-0.1,0.2,0,0.3c0.1,0.1,0.2,0.1,0.3,0c2.2-2.5,5.3-4,8.6-4
			s6.5,1.5,8.6,4c0,0,0.1,0.1,0.1,0.1c0,0,0.1,0,0.1,0c0.1-0.1,0.1-0.2,0-0.3C40.6,21.6,37.4,20.1,33.9,20.1z"/>
		<path class="st0" d="M56.4,44.6c-0.3-0.6-1.8-1.1-3.4-1c0.3-0.2,0.6-0.5,0.5-0.9c-0.1-0.5-1.4-1.2-3.2-0.9c-0.7,0.1-1.3,0.3-2,0.4
			c-0.6,0.1-1.2,0.3-1.8,0.4c0.1-0.1,0.1-0.3,0.1-0.4c0-0.1-0.1-0.3-0.3-0.4c-0.7-0.5-2.9-0.6-3.9-0.5c0.3-0.9,0.4-1.8,0.4-2.8
			c0-5-4.1-9.1-9.1-9.1c-4.6,0-8.5,3.4-9,7.9c-1.6-0.7-3.2-1-6.3-1.1c-0.2,0-0.4,0-0.6,0c-4.8,0-7.6,2.5-7.7,2.6l-5.9,3.8
			c-0.1,0.1-0.1,0.2-0.1,0.3C4.4,43,4.5,43,4.6,43l5.9-3.8c0,0,2.9-2.5,7.5-2.5c0.2,0,0.4,0,0.5,0c5,0.2,6.1,0.7,9.5,3.2
			c3.6,2.6,8,5.7,10.8,6.5c2.2,0.6,4.7,1.8,5.4,3.1c0.2,0.4,0.2,0.7,0.1,1c-0.1,0.3-0.3,0.5-0.6,0.6c-1.1,0.4-3.3-0.5-4.1-0.9
			c-1.8-1-6.3-2.1-9.8-2.8c-0.1,0-0.2,0-0.2,0.2c0,0.1,0,0.2,0.2,0.2c4.9,1,8.2,1.9,9.7,2.7c0,0,2,1.1,3.6,1.1c0.3,0,0.6,0,0.8-0.1
			c0.4-0.2,0.7-0.5,0.8-0.9c0.1-0.3,0.1-0.7,0-1c0.9,0,3.9,0,5.4,0c2.1,0,4.4,0.4,4.4,1.4c-0.1,0.3-1.6,0.7-4.7,1.2
			c-0.3,0-0.6,0.1-0.7,0.1l-0.2,0c-1.4,0.2-5.2,0.9-6.3,0.8c-1.8-0.1-4.4-0.1-6.4,0c-1.8,0.1-3.8,0-7-2c-2.3-1.4-4.3-2.2-6.6-3
			c-1-0.4-1.9-0.7-2.9-1.2c-2.5-1.1-5.2,0.9-5.3,1L3.7,55.4c-0.1,0.1-0.1,0.2,0,0.3c0,0.1,0.1,0.1,0.2,0.1c0,0,0.1,0,0.1,0l10.8-7.5
			c0,0,2.6-1.9,4.9-0.9c1,0.4,2,0.8,3,1.2c2.2,0.8,4.3,1.6,6.5,3c3.4,2.1,5.4,2.1,7.3,2c2-0.1,4.6-0.1,6.3,0c1,0.1,3.9-0.4,6.4-0.8
			l0.2,0c0.2,0,0.4-0.1,0.7-0.1c3.3-0.5,5-0.9,5-1.5c0-1.7-4-1.8-4.8-1.8c-1.2,0-3.2,0-4.5,0c2.3-0.8,7.5-2.5,8.6-2.8
			c1.3-0.4,2-0.8,2.2-1.2C56.6,45,56.5,44.8,56.4,44.6z M46.2,42.1C46.3,42.2,46.3,42.2,46.2,42.1c0.1,0.2,0.1,0.3,0,0.4
			c-0.1,0.1-0.3,0.2-0.4,0.2c-1.2,0.2-3.4,0.6-4.3,0.8c0.4-0.5,0.7-1.1,0.9-1.8C43.1,41.5,45.6,41.7,46.2,42.1z M36.2,30.2
			c0,0.1,0,0.2,0,0.3c0,0.5,0.3,1,0.5,1.5L32.4,30c0.5-0.1,0.9-0.1,1.4-0.1C34.7,29.8,35.5,29.9,36.2,30.2z M35.9,39.3
			c0,0.1,0,0.2,0,0.3c-0.2-0.3-0.7-0.9-1.3-1.7l1.3,0.5c0,0.2-0.1,0.3-0.1,0.5C35.8,39,35.8,39.2,35.9,39.3z M28.4,31.7
			c0.3-0.3,0.7-0.5,1.1-0.7l0.6,7.8c-0.1,0-0.2-0.1-0.3-0.1c-0.2-0.1-0.3-0.2-0.3-0.4c-0.2-0.2-0.3-0.5-1-0.5c-0.1,0-0.2,0-0.3-0.1
			L28.4,31.7z M29.8,31.3c0.4,0.7,0.9,1.5,1.4,2.3l0.6,5.5C31.3,39,31,39,30.6,38.9c-0.1,0-0.2,0-0.3,0L29.8,31.3z M31.6,34.2
			c0.5,0.7,0.9,1.3,1.3,1.9l0.4,3.6c-0.3,0-0.6-0.1-0.9-0.3c-0.1-0.1-0.3-0.1-0.4-0.2L31.6,34.2z M33.3,36.6
			c0.3,0.4,0.5,0.8,0.8,1.1l0.5,2c0,0,0,0-0.1,0c-0.3,0-0.6,0-0.9,0L33.3,36.6z M34.5,38.3c0.5,0.7,0.9,1.2,1.1,1.4c0,0,0,0-0.1,0
			c-0.2-0.1-0.4-0.1-0.6,0L34.5,38.3z M34.3,37.5c-0.3-0.3-0.5-0.7-0.8-1.1l2.6,1.1C36,37.7,36,38,35.9,38.2L34.3,37.5z M33.1,35.9
			c-0.4-0.6-0.9-1.3-1.3-1.9l4.5,2.5c0,0.2-0.1,0.4-0.1,0.7c0,0,0,0,0,0L33.1,35.9z M31.5,33.5c-0.5-0.8-1-1.6-1.5-2.4l7,3.8
			c-0.1,0.3-0.2,0.5-0.3,0.7c-0.1,0.2-0.2,0.4-0.3,0.7L31.5,33.5z M29.9,30.7c0.6-0.3,1.3-0.5,2-0.7l5.1,2.4
			c0.1,0.2,0.2,0.5,0.2,0.6c0,0.5,0,0.8-0.2,1.5l0,0L29.9,30.7z M28.1,32l-0.2,5.1c-0.1-0.1-0.2-0.2-0.5-0.3
			c-0.4-0.1-0.8-0.3-1.1-0.4l0.3-2.5C26.9,33.2,27.5,32.5,28.1,32z M26.1,34.5L26,36.2c-0.1-0.1-0.3-0.2-0.4-0.2
			C25.7,35.5,25.9,35,26.1,34.5z M38.6,45.8c-2.8-1-7.1-4-10.2-6.3c-1.2-0.9-2.2-1.5-3.1-2c0-0.4,0.1-0.9,0.2-1.3
			c0.5,0.3,1.1,0.6,1.8,0.8c0.4,0.1,0.4,0.3,0.5,0.5c0,0.3,0.1,0.5,0.6,0.6c0.5,0.1,0.6,0.2,0.8,0.4c0.1,0.1,0.2,0.3,0.4,0.5
			c0.3,0.2,0.6,0.2,1,0.3c0.5,0,1.1,0.1,1.7,0.5c0.8,0.4,1.6,0.4,2.2,0.3c0.4,0,0.7,0,0.9,0c0.1,0,0.2,0,0.3,0c0.1,0,0.2,0,0.3-0.1
			c0.2-0.2,0.1-0.4,0.1-0.7c0-0.1,0-0.2,0-0.3c0-0.4,0.2-1,0.3-1.6c0.1-0.3,0.1-0.5,0.2-0.8c0.1-0.4,0.2-0.6,0.4-0.8
			c0.2-0.2,0.3-0.4,0.4-0.9l0-0.2c0.1-0.7,0.2-1,0.2-1.5c0-0.2-0.1-0.5-0.3-0.8l0,0l0,0c0-0.1-0.1-0.2-0.1-0.3
			c-0.3-0.5-0.5-1-0.5-1.5c0-0.1,0-0.2,0-0.2c3.5,1.1,6,4.4,6,8.3c0,1.9-0.6,3.7-1.6,5.1c0,0,0,0,0,0C40.3,44.5,39.5,45.2,38.6,45.8
			z M39.1,46C39,46,39,46,39.1,46c0.8-0.6,1.5-1.3,2.1-2.1c0.5-0.1,3-0.5,4.5-0.8c0,0,0,0,0,0c0,0,0.1,0,0.2,0
			c0.2,0,0.4-0.1,0.6-0.1c0.6-0.1,1.3-0.2,2-0.4c0.6-0.1,1.3-0.3,2-0.4c1.7-0.3,2.7,0.4,2.7,0.6c0.1,0.3-0.9,0.8-1.6,1c0,0,0,0,0,0
			c0,0,0,0,0,0c-1.9,0.6-11.2,2.2-11.9,2.3C39.4,46.1,39.2,46,39.1,46z M56.1,45c-0.2,0.5-1.5,0.9-1.9,1c-1.3,0.4-8.5,2.8-9.6,3.1
			c-0.7-1.2-2.7-2.2-4.2-2.7c2.3-0.4,9.5-1.6,11.2-2.2c0,0,0,0,0,0c0,0,0,0,0,0c1.9-0.6,4.1,0,4.4,0.5C56.2,44.9,56.1,45,56.1,45z"
			/>
	</g>
</g>
<g id="Calque_2_00000003809008304749907790000016341312070344029320_">
</g>
</svg>
