<?xml version="1.0" encoding="utf-8"?>
<!-- Generator: Adobe Illustrator 25.4.1, SVG Export Plug-In . SVG Version: 6.00 Build 0)  -->
<svg version="1.1" xmlns="http://www.w3.org/2000/svg" xmlns:xlink="http://www.w3.org/1999/xlink" x="0px" y="0px"
	 viewBox="0 0 60.109684 60.109684" enable-background="new 0 0 60.109684 60.109684" xml:space="preserve">
<g id="Bleu_traces">
	<g>
		<path fill="#5C6A6B" d="M30.8658905,23.8815022c-0.4570312,0-0.8291016,0.3720703-0.8291016,0.8300781
			c0,0.4570312,0.3720703,0.8291016,0.8291016,0.8291016c0.4580078,0,0.8300781-0.3720703,0.8300781-0.8291016
			C31.6959686,24.2535725,31.3238983,23.8815022,30.8658905,23.8815022z M30.8658905,25.27701
			c-0.3115234,0-0.5654297-0.2539062-0.5654297-0.5654297c0-0.3125,0.2539062-0.5664062,0.5654297-0.5664062
			c0.3125,0,0.5664062,0.2539062,0.5664062,0.5664062C31.4322968,25.0231037,31.1783905,25.27701,30.8658905,25.27701z"/>
		<path fill="#5C6A6B" d="M29.6940155,24.7115803c0-0.3457031-0.2802734-0.6259766-0.625-0.6259766
			c-0.3457031,0-0.6259766,0.2802734-0.6259766,0.6259766c0,0.3447266,0.2802734,0.625,0.6259766,0.625
			C29.4137421,25.3365803,29.6940155,25.0563068,29.6940155,24.7115803z M28.7067108,24.7115803
			c0-0.1992188,0.1630859-0.3623047,0.3623047-0.3623047s0.3613281,0.1630859,0.3613281,0.3623047
			s-0.1621094,0.3613281-0.3613281,0.3613281S28.7067108,24.910799,28.7067108,24.7115803z"/>
		<path fill="#5C6A6B" d="M29.2731171,36.1979065c0.4570312,0,0.8291016-0.3720703,0.8291016-0.8291016
			c0-0.4580078-0.3720703-0.8300781-0.8291016-0.8300781c-0.4580078,0-0.8300781,0.3720703-0.8300781,0.8300781
			C28.4430389,35.8258362,28.8151093,36.1979065,29.2731171,36.1979065z M29.2731171,34.8023987
			c0.3115234,0,0.5654297,0.2539062,0.5654297,0.5664062c0,0.3115234-0.2539062,0.5654297-0.5654297,0.5654297
			c-0.3125,0-0.5664062-0.2539062-0.5664062-0.5654297C28.7067108,35.0563049,28.9606171,34.8023987,29.2731171,34.8023987z"/>
		<path fill="#5C6A6B" d="M30.4449921,35.3688049c0,0.3447266,0.2802734,0.625,0.625,0.625
			c0.3457031,0,0.6259766-0.2802734,0.6259766-0.625s-0.2802734-0.625-0.6259766-0.625
			C30.7252655,34.7438049,30.4449921,35.0240784,30.4449921,35.3688049z M31.4322968,35.3688049
			c0,0.1992188-0.1630859,0.3613281-0.3623047,0.3613281s-0.3613281-0.1621094-0.3613281-0.3613281
			s0.1621094-0.3613281,0.3613281-0.3613281S31.4322968,35.1695862,31.4322968,35.3688049z"/>
		<path fill="#5C6A6B" d="M25.4381561,27.4039631c0.1279297,0.0742188,0.2695312,0.1123047,0.4140625,0.1123047
			c0.0712891,0,0.1435547-0.0097656,0.2138672-0.0283203c0.2148438-0.0566406,0.3945312-0.1943359,0.5058594-0.3867188
			s0.140625-0.4160156,0.0830078-0.6298828c-0.0576172-0.2148438-0.1953125-0.3935547-0.3867188-0.5039062
			c-0.1923828-0.1123047-0.4179688-0.1416016-0.6298828-0.0830078c-0.2148438,0.0566406-0.3935547,0.1943359-0.5039062,0.3857422
			c-0.1113281,0.1923828-0.140625,0.4160156-0.0830078,0.6298828
			C25.1090546,27.1149006,25.2457733,27.2936115,25.4381561,27.4039631z M25.3629608,26.4029865
			c0.0761719-0.1308594,0.1972656-0.2246094,0.34375-0.2636719c0.0488281-0.0126953,0.0976562-0.0195312,0.1464844-0.0195312
			c0.0986328,0,0.1953125,0.0263672,0.2822266,0.0761719c0.1308594,0.0761719,0.2246094,0.1972656,0.2636719,0.34375
			c0.0390625,0.1455078,0.0195312,0.2978516-0.0556641,0.4287109c-0.0761719,0.1318359-0.1982422,0.2255859-0.3447266,0.2636719
			c-0.1474609,0.0400391-0.2978516,0.0195312-0.4277344-0.0566406c-0.1308594-0.0761719-0.2246094-0.1972656-0.2636719-0.34375
			C25.2682343,26.6861897,25.2877655,26.5338459,25.3629608,26.4029865z"/>
		<path fill="#5C6A6B" d="M25.2662811,27.7008381c-0.1435547-0.0839844-0.3144531-0.1064453-0.4746094-0.0625
			c-0.1611328,0.0429688-0.2958984,0.1464844-0.3789062,0.2919922c-0.0839844,0.1445312-0.1064453,0.3134766-0.0625,0.4746094
			c0.0429688,0.1611328,0.1464844,0.2958984,0.2910156,0.3789062c0.0966797,0.0556641,0.203125,0.0849609,0.3115234,0.0849609
			c0.0546875,0,0.109375-0.0078125,0.1630859-0.0214844c0.1621094-0.0439453,0.296875-0.1474609,0.3798828-0.2919922
			c0.0839844-0.1435547,0.1064453-0.3125,0.0634766-0.4736328S25.4127655,27.7848225,25.2662811,27.7008381z M25.2672577,28.4234943
			c-0.0488281,0.0830078-0.1259766,0.1425781-0.2197266,0.1679688c-0.09375,0.0224609-0.1904297,0.0117188-0.2744141-0.0361328
			c-0.0830078-0.0488281-0.1425781-0.1259766-0.1679688-0.21875c-0.0253906-0.09375-0.0117188-0.1904297,0.0361328-0.2744141
			c0,0,0,0,0-0.0009766c0.0478516-0.0830078,0.1259766-0.1425781,0.21875-0.1679688
			c0.03125-0.0078125,0.0634766-0.0117188,0.0947266-0.0117188c0.0625,0,0.1240234,0.015625,0.1796875,0.0478516
			c0.0839844,0.0488281,0.1445312,0.1269531,0.1689453,0.2207031C25.3278046,28.2428303,25.3151093,28.33951,25.2672577,28.4234943z
			"/>
		<path fill="#5C6A6B" d="M34.7008514,32.6754456c-0.3955078-0.2285156-0.9052734-0.0927734-1.1337891,0.3037109
			c-0.2285156,0.3955078-0.0927734,0.9042969,0.3037109,1.1337891c0.1279297,0.0742188,0.2705078,0.1113281,0.4140625,0.1113281
			c0.0722656,0,0.1445312-0.0087891,0.2158203-0.0283203c0.2148438-0.0576172,0.3935547-0.1953125,0.5039062-0.3867188
			c0.1113281-0.1923828,0.140625-0.4160156,0.0830078-0.6298828C35.029953,32.9645081,34.8922577,32.7857971,34.7008514,32.6754456z
			 M34.7760468,33.6764221c-0.0761719,0.1308594-0.1972656,0.2246094-0.34375,0.2636719
			c-0.1445312,0.0400391-0.296875,0.0195312-0.4287109-0.0556641c-0.2705078-0.15625-0.3632812-0.5029297-0.2080078-0.7724609
			c0.1054688-0.1816406,0.2958984-0.2832031,0.4912109-0.2832031c0.0957031,0,0.1933594,0.0244141,0.28125,0.0751953
			c0.1308594,0.0761719,0.2246094,0.1972656,0.2636719,0.34375C34.8707733,33.393219,34.8512421,33.5455627,34.7760468,33.6764221z"
			/>
		<path fill="#5C6A6B" d="M35.4967499,31.2955647c-0.2998047-0.1748047-0.6806641-0.0693359-0.8535156,0.2285156
			c-0.0839844,0.1455078-0.1064453,0.3134766-0.0634766,0.4755859c0.0439453,0.1611309,0.1474609,0.2958965,0.2929688,0.3798809
			c0.0976562,0.0566406,0.2050781,0.0839844,0.3105469,0.0839844c0.2167969,0,0.4277344-0.1123047,0.5429688-0.3125
			C35.8990936,31.8522053,35.7965546,31.4684162,35.4967499,31.2955647z M35.4977264,32.018219
			c-0.1005859,0.1738281-0.3203125,0.2304688-0.4931641,0.1328125c-0.0839844-0.0488281-0.1435547-0.1269531-0.1689453-0.2197247
			c-0.0253906-0.09375-0.0117188-0.1914062,0.0361328-0.2744141c0.0673828-0.1152344,0.1894531-0.1806641,0.3144531-0.1806641
			c0.0605469,0,0.1230469,0.015625,0.1787109,0.0478516C35.5377655,31.6246662,35.5973358,31.8463459,35.4977264,32.018219z"/>
		<path fill="#5C6A6B" d="M25.9498749,32.3981018c0.0488281-0.2158203,0.0107422-0.4384747-0.1083984-0.6259747
			c-0.2441406-0.3867188-0.7587891-0.5039062-1.1445312-0.2578125c-0.1875,0.1181641-0.3173828,0.3027344-0.3662109,0.5185528
			c-0.0488281,0.2167969-0.0107422,0.4394531,0.1083984,0.6259766c0.1181641,0.1875,0.3027344,0.3183594,0.5185547,0.3662109
			c0.0615234,0.0146484,0.1230469,0.0205078,0.1845703,0.0205078c0.1552734,0,0.3076172-0.0429688,0.4414062-0.1289062
			C25.7711639,32.7984924,25.9020233,32.6139221,25.9498749,32.3981018z M25.0162811,32.7672424
			c-0.1474609-0.0332031-0.2734375-0.1210938-0.3544922-0.2490234c-0.0800781-0.1279297-0.1064453-0.2792969-0.0732422-0.4267578
			c0.0332031-0.147459,0.1220703-0.2734356,0.2490234-0.3544903c0.09375-0.0585938,0.1982422-0.0869141,0.3017578-0.0869141
			c0.1875,0,0.3710938,0.0927734,0.4794922,0.2626953c0.0800781,0.1279278,0.1064453,0.2802715,0.0732422,0.4267559
			c-0.0332031,0.1474609-0.1210938,0.2734375-0.2490234,0.3544922
			C25.3151093,32.7740784,25.1608124,32.8014221,25.0162811,32.7672424z"/>
		<path fill="#5C6A6B" d="M26.2379608,33.1236877c-0.1640625-0.0341797-0.3300781-0.0068359-0.4716797,0.0830078
			c-0.140625,0.0888672-0.2382812,0.2275391-0.2753906,0.390625s-0.0078125,0.3310547,0.0820312,0.4716797
			c0.0888672,0.1416016,0.2275391,0.2392578,0.390625,0.2763672c0.046875,0.0107422,0.0927734,0.015625,0.1396484,0.015625
			c0.1162109,0,0.2314453-0.0332031,0.3330078-0.0976562c0.2910156-0.1845703,0.3779297-0.5722656,0.1933594-0.8623047
			C26.5406952,33.2594299,26.4010468,33.1607971,26.2379608,33.1236877z M26.2936249,34.0406799
			c-0.0810547,0.0498047-0.1777344,0.0683594-0.2714844,0.046875c-0.0947266-0.0214844-0.1748047-0.078125-0.2265625-0.1591797
			c-0.0507812-0.0820312-0.0673828-0.1787109-0.046875-0.2724609c0.0214844-0.0947266,0.078125-0.1748047,0.1591797-0.2265625
			h0.0009766c0.0576172-0.0371094,0.1240234-0.0556641,0.1914062-0.0556641c0.0263672,0,0.0537109,0.0029297,0.0800781,0.0087891
			c0.09375,0.0205078,0.1748047,0.0771484,0.2265625,0.1601562C26.5133514,33.7096252,26.4625702,33.9332581,26.2936249,34.0406799z
			"/>
		<path fill="#5C6A6B" d="M30.0699921,17.4586506c-6.9375,0-12.5820312,5.6445312-12.5820312,12.5820312
			c0,6.9365215,5.6445312,12.5790997,12.5820312,12.5790997s12.5810547-5.6425781,12.5810547-12.5790997
			C42.6510468,23.1031818,37.0074921,17.4586506,30.0699921,17.4586506z M30.0699921,42.3561096
			c-6.7919922,0-12.3183594-5.5244141-12.3183594-12.3154278c0-6.7919922,5.5263672-12.3183594,12.3183594-12.3183594
			s12.3173828,5.5263672,12.3173828,12.3183594C42.3873749,36.8316956,36.8619843,42.3561096,30.0699921,42.3561096z"/>
		<path fill="#5C6A6B" d="M30.0699921,18.9654865c-1.3154297,0-2.3847656,1.0693359-2.3847656,2.3837891
			c0,1.3154297,1.0693359,2.3847656,2.3847656,2.3847656c1.3144531,0,2.3837891-1.0693359,2.3837891-2.3847656
			C32.4537811,20.0348225,31.3844452,18.9654865,30.0699921,18.9654865z M30.0699921,23.4703693
			c-1.1689453,0-2.1210938-0.9521484-2.1210938-2.1210938s0.9521484-2.1201172,2.1210938-2.1201172
			s2.1201172,0.9511719,2.1201172,2.1201172S31.2389374,23.4703693,30.0699921,23.4703693z"/>
		<path fill="#5C6A6B" d="M30.0699921,36.346344c-1.3154297,0-2.3847656,1.0693359-2.3847656,2.3837891
			s1.0693359,2.3837891,2.3847656,2.3837891c1.3144531,0,2.3837891-1.0693359,2.3837891-2.3837891
			S31.3844452,36.346344,30.0699921,36.346344z M30.0699921,40.8502502c-1.1689453,0-2.1210938-0.9511719-2.1210938-2.1201172
			s0.9521484-2.1201172,2.1210938-2.1201172s2.1201172,0.9511719,2.1201172,2.1201172S31.2389374,40.8502502,30.0699921,40.8502502z
			"/>
		<path fill="#5C6A6B" d="M21.3512421,27.7594318c0.3681641,0.2128906,0.7753906,0.3212891,1.1884766,0.3212891
			c0.2070312,0,0.4160156-0.0273438,0.6210938-0.0830078c0.6152344-0.1640625,1.1289062-0.5585938,1.4472656-1.1103516
			s0.4033203-1.1943359,0.2382812-1.8095703s-0.5595703-1.1298828-1.1103516-1.4472656
			c-0.5527344-0.3203125-1.1953125-0.4042969-1.8095703-0.2382812c-0.6152344,0.1650391-1.1298828,0.5595703-1.4472656,1.1103516
			c-0.3183594,0.5517578-0.4033203,1.1943359-0.2382812,1.8095703
			C20.404953,26.9274006,20.7994843,27.4410725,21.3512421,27.7594318z M20.7076874,24.6354084
			c0.2832031-0.4902344,0.7402344-0.8417969,1.2871094-0.9882812c0.1826172-0.0488281,0.3681641-0.0732422,0.5517578-0.0732422
			c0.3671875,0,0.7304688,0.0966797,1.0566406,0.2851562c0.4902344,0.2832031,0.8417969,0.7402344,0.9882812,1.2871094
			s0.0712891,1.1181641-0.2119141,1.6083984c-0.5849609,1.0126953-1.8837891,1.3613281-2.8955078,0.7763672
			C20.4713593,26.9459553,20.123703,25.6471272,20.7076874,24.6354084z"/>
		<path fill="#5C6A6B" d="M38.7877655,32.3199768c-0.5517578-0.3193359-1.1914062-0.4052715-1.8095703-0.2382812
			c-0.6152344,0.1650391-1.1289062,0.5595703-1.4472656,1.1113281s-0.4033203,1.1943359-0.2382812,1.8095703
			c0.1640625,0.6152344,0.5585938,1.1289062,1.1103516,1.4472656c0.3681641,0.2128906,0.7753906,0.3212891,1.1884766,0.3212891
			c0.2070312,0,0.4160156-0.0273438,0.6210938-0.0830078c0.6152344-0.1640625,1.1289062-0.5585938,1.4472656-1.1103516
			C40.3180389,34.4391174,39.9264374,32.9772034,38.7877655,32.3199768z M39.4313202,35.4449768
			c-0.5849609,1.0126953-1.8828125,1.3613281-2.8955078,0.7763672s-1.3603516-1.8837891-0.7763672-2.8955078
			c0.2832031-0.4912109,0.7402344-0.8417969,1.2871094-0.9892578c0.1826172-0.0488281,0.3681641-0.0732422,0.5527344-0.0732422
			c0.3671875,0,0.7294922,0.0966797,1.0556641,0.2851562c0.4902344,0.2832031,0.8417969,0.7412109,0.9882812,1.2880859
			S39.7145233,34.9547424,39.4313202,35.4449768z"/>
		<path fill="#5C6A6B" d="M21.4508514,32.6715393c-1.1113281,0.7021484-1.4433594,2.1787109-0.7402344,3.2890625
			c0.453125,0.7167969,1.2275391,1.109375,2.0185547,1.109375c0.4355469,0,0.8759766-0.1191406,1.2705078-0.3691406
			c0.5390625-0.3398438,0.9121094-0.8701172,1.0517578-1.4912109s0.0292969-1.2597656-0.3115234-1.7978516
			C24.0377655,32.299469,22.561203,31.9674397,21.4508514,32.6715393z M24.7936249,35.1510315
			c-0.1240234,0.5527344-0.4560547,1.0244141-0.9345703,1.3271484c-0.4794922,0.3027344-1.0458984,0.4003906-1.5986328,0.2763672
			c-0.5527344-0.125-1.0244141-0.4570312-1.3271484-0.9345703c-0.6240234-0.9882812-0.3291016-2.3007812,0.6582031-2.9257812
			c0.9882812-0.6240234,2.2998047-0.3291016,2.9257812,0.6582031
			C24.8199921,34.0309143,24.9176483,34.5992737,24.7936249,35.1510315z"/>
		<path fill="#5C6A6B" d="M37.4176483,27.7779865c0.4355469,0,0.8759766-0.1191406,1.2705078-0.3691406
			c1.1113281-0.703125,1.4433594-2.1787109,0.7402344-3.2890625c-0.3398438-0.5390625-0.8701172-0.9121094-1.4912109-1.0517578
			c-0.6201172-0.1416016-1.2597656-0.0302734-1.7978516,0.3115234c-1.1113281,0.7021484-1.4433594,2.1777344-0.7402344,3.2890625
			C35.8522186,27.3854084,36.6266327,27.7779865,37.4176483,27.7779865z M36.279953,23.6022053
			c0.34375-0.2167969,0.7333984-0.3291016,1.1298828-0.3291016c0.15625,0,0.3134766,0.0175781,0.46875,0.0527344
			c0.5527344,0.1240234,1.0244141,0.4560547,1.3271484,0.9345703s0.4003906,1.046875,0.2763672,1.5986328
			c-0.125,0.5527344-0.4570312,1.0244141-0.9345703,1.3271484c-0.9902344,0.625-2.2998047,0.3291016-2.9257812-0.6582031
			C34.9977264,25.5397053,35.2926483,24.2272053,36.279953,23.6022053z"/>
		<path fill="#5C6A6B" d="M34.1891327,27.6813068c-0.0488281,0.2167969-0.0107422,0.4394531,0.1083984,0.6259766
			c0.1181641,0.1875,0.3027344,0.3183594,0.5185547,0.3662109c0.0615234,0.0146484,0.1230469,0.0205078,0.1835938,0.0205078
			c0.1552734,0,0.3076172-0.0429688,0.4423828-0.1289062c0.3867188-0.2441406,0.5029297-0.7578125,0.2578125-1.1445312
			c-0.1181641-0.1875-0.3027344-0.3173828-0.5185547-0.3662109c-0.2197266-0.0498047-0.4394531-0.0087891-0.6259766,0.1083984
			C34.3678436,27.2809162,34.2369843,27.4654865,34.1891327,27.6813068z M34.9967499,27.2984943
			c0.0419922,0,0.0839844,0.0039062,0.1259766,0.0136719c0.1474609,0.0332031,0.2734375,0.1220703,0.3544922,0.2490234
			c0.1660156,0.2636719,0.0869141,0.6142578-0.1757812,0.78125c-0.1279297,0.0800781-0.28125,0.109375-0.4267578,0.0732422
			c-0.1474609-0.0332031-0.2734375-0.1210938-0.3544922-0.2490234c-0.0800781-0.1279297-0.1064453-0.2792969-0.0732422-0.4267578
			s0.1210938-0.2734375,0.2490234-0.3544922C34.7877655,27.3277912,34.8912811,27.2984943,34.9967499,27.2984943z"/>
		<path fill="#5C6A6B" d="M33.9000702,26.9557209c0.0458984,0.0107422,0.0927734,0.015625,0.1386719,0.015625
			c0.1171875,0,0.2314453-0.0332031,0.3330078-0.0976562c0.1416016-0.0888672,0.2392578-0.2275391,0.2763672-0.390625
			s0.0078125-0.3310547-0.0820312-0.4716797c-0.0888672-0.1416016-0.2275391-0.2392578-0.390625-0.2763672
			c-0.1640625-0.0371094-0.3310547-0.0087891-0.4716797,0.0820312c-0.1416016,0.0888672-0.2392578,0.2275391-0.2763672,0.390625
			s-0.0078125,0.3310547,0.0820312,0.4716797C33.5983124,26.8209553,33.7369843,26.9186115,33.9000702,26.9557209z
			 M33.8453827,26.0397053c0.0576172-0.0361328,0.1240234-0.0556641,0.1914062-0.0556641
			c0.0263672,0,0.0537109,0.0029297,0.0800781,0.0087891c0.0947266,0.0214844,0.1748047,0.078125,0.2265625,0.1591797
			c0.0507812,0.0820312,0.0673828,0.1787109,0.046875,0.2724609c-0.0214844,0.0947266-0.078125,0.1748047-0.1591797,0.2265625
			c-0.0810547,0.0498047-0.1767578,0.0673828-0.2724609,0.046875c-0.0947266-0.0214844-0.1748047-0.078125-0.2265625-0.1591797
			c-0.0507812-0.0820312-0.0673828-0.1787109-0.046875-0.2724609
			C33.7067108,26.1715412,33.7633514,26.0914631,33.8453827,26.0397053z"/>
		<path fill="#5C6A6B" d="M46.4137421,27.7281818c0.1396484,0.046875,0.3037109,0.0332031,0.4443359-0.0361328
			c1.15625-0.5917969,1.9707031-1.6679688,2.2929688-3.03125c0.3144531-1.3261719,0.1230469-2.7724609-0.5400391-4.0722656
			c-0.6689453-1.3095703-1.7402344-2.3173828-3.0166016-2.8369141c-1.2851562-0.5214844-2.6220703-0.4902344-3.765625,0.0947266
			c-0.1347656,0.0693359-0.2373047,0.1894531-0.2900391,0.3369141c-0.4150391,0.0839844-0.7548828,0.1972656-1.0644531,0.3535156
			c-0.5893555,0.3017578-1.0900879,0.758667-1.4909668,1.3206177c-1.1401367-0.9993286-2.4440918-1.8117676-3.8723145-2.3867798
			c0.3203125-0.6142578,0.5-1.2681274,0.5-1.928956c0-0.3466797-0.0527344-0.7011719-0.1679688-1.1074219
			c0.1083984-0.1142578,0.1679688-0.2607422,0.1679688-0.4140625c0-2.6416016-2.4785156-4.7900391-5.5263672-4.7900391
			s-5.5263672,2.1484375-5.5263672,4.7900391c0,0.1533203,0.0595703,0.2998047,0.1679688,0.4140625
			c-0.1152344,0.40625-0.1679688,0.7607422-0.1679688,1.1074219c0,0.6564951,0.1787109,1.3071909,0.4963379,1.9193125
			c-1.2020264,0.480957-2.3167725,1.1292725-3.3210449,1.9161377c-0.375-0.5898438-0.855957-1.078186-1.434082-1.4125977
			c-0.296875-0.1708984-0.6269531-0.3007812-1.0341797-0.40625c-0.0498047-0.1513672-0.1494141-0.2763672-0.2832031-0.3535156
			c-2.3027344-1.3310556-5.4189453-0.2529297-6.9541016,2.4023438c-1.53125,2.6523438-0.9042969,5.8925781,1.3984375,7.2236328
			c0.1367188,0.078125,0.3105469,0.1083984,0.4472656,0.0664062c0.2910156,0.2998047,0.5693359,0.5214844,0.8691406,0.6943359
			c0.5900879,0.3393555,1.2381592,0.5178223,1.9230957,0.5523071c-0.0876465,0.621582-0.1486816,1.2515259-0.1486816,1.8969116
			c0,0.4034424,0.0258789,0.8006592,0.0605469,1.1952515c-0.6953125-0.0043335-1.3620605,0.1338501-1.9541016,0.4346313
			c-0.3056641,0.15625-0.5947266,0.3623028-0.9042969,0.6455059c-0.1513672-0.0400391-0.3125-0.0244141-0.4511719,0.0458984
			c-1.1650391,0.5957031-1.984375,1.6787109-2.3085938,3.0507812c-0.3164062,1.3330078-0.1240234,2.7851562,0.5419922,4.0908203
			c0.9990234,1.9560547,2.9121094,3.2207031,4.8720703,3.2207031c0.6894531,0,1.3447266-0.15625,1.9492188-0.4638672
			c0.1367188-0.0703125,0.2421875-0.1894531,0.2988281-0.3369141c0.4042969-0.0830078,0.75-0.2001953,1.0556641-0.3554688
			c0.5909424-0.3015137,1.0946045-0.7610474,1.4987793-1.3272705c1.1279297,0.9845581,2.4152832,1.7870483,3.8244629,2.3578491
			c-0.3217773,0.6177368-0.5029297,1.2752686-0.5029297,1.9391479c0,0.3447266,0.0527344,0.6962891,0.1650391,1.1005859
			c-0.1054688,0.1171875-0.1650391,0.2666016-0.1650391,0.421875c0,2.6572266,2.4931641,4.8193359,5.5566406,4.8193359
			s5.5566406-2.1621094,5.5566406-4.8193359c0-0.1552734-0.0595703-0.3046875-0.1650391-0.421875
			c0.1123047-0.4042969,0.1650391-0.7558594,0.1650391-1.1005859c0-0.6606445-0.1791992-1.3150635-0.4978027-1.9296875
			c1.2011719-0.4837646,2.3146973-1.1350098,3.317627-1.9244385c0.3720703,0.5886841,0.848999,1.0747681,1.4223633,1.4058838
			c0.3144531,0.1816406,0.6582031,0.3183594,1.046875,0.4179688c0.046875,0.1435547,0.1425781,0.265625,0.2714844,0.3408203
			c0.6582031,0.3798828,1.3798828,0.5712891,2.1474609,0.5712891c0.5458984,0,1.0986328-0.0986328,1.6425781-0.2929688
			c1.2841797-0.4580078,2.3935547-1.4052734,3.1230469-2.6679688c1.5234375-2.6386719,0.9013672-5.8613281-1.3857422-7.1826172
			c-0.0009766,0-0.0009766-0.0009766-0.0009766-0.0009766c-0.1308594-0.0732422-0.2851562-0.0957031-0.4394531-0.0585938
			c-0.2958984-0.3037109-0.5761719-0.5273438-0.8769531-0.7011719c-0.5712891-0.3289185-1.2263184-0.4995728-1.9157715-0.5302105
			c0.0922852-0.6367798,0.1560059-1.2825317,0.1560059-1.944397c0-0.4028931-0.0258789-0.7994995-0.0604248-1.1935425
			c0.6844482-0.0004883,1.336792-0.1565552,1.9412842-0.4636841C45.8102264,28.2252522,46.1022186,28.0162678,46.4137421,27.7281818
			z M45.9852753,27.7393513c-0.1394043-0.1935425-0.2780762-0.3851318-0.4152832-0.572998
			c0.1584473-0.1264038,0.3017578-0.2752075,0.4389648-0.4347534c0.1184082,0.1210938,0.2368164,0.2419434,0.3642578,0.3806763
			v0.3519897c-0.027832,0.0032349-0.0583496-0.006958-0.0786133,0.013916
			C46.1881561,27.579134,46.087204,27.6570759,45.9852753,27.7393513z M48.5804901,38.2606506
			c-0.0454102,0.2936401-0.1213379,0.5864258-0.2148438,0.8787231l-2.4526367-0.9007568
			c0.0063477-0.0015869,0.0231934-0.0057983,0.0253906-0.0064087c0.6750488-0.1370239,1.3249512-0.2342529,1.9599609-0.3106689
			L48.5804901,38.2606506z M48.2722626,37.8859558c0.1165771-0.012146,0.2293701-0.0194702,0.3428955-0.0278931
			c-0.005127,0.0634766-0.0090332,0.1266479-0.0163574,0.1903687L48.2722626,37.8859558z M48.3143768,39.3309021
			c-0.072998,0.2041016-0.1777344,0.4022217-0.2749023,0.6021729l-4.1087646-1.2037964
			c0.0240479-0.0064087,0.0533447-0.0206299,0.0758057-0.0251465c0.2998047-0.0597534,1.0960693-0.2595215,1.567627-0.3790894
			L48.3143768,39.3309021z M47.9545135,40.1150818c-0.0366211,0.069519-0.0587158,0.1420288-0.0983887,0.2107544
			c-0.0046387,0.0081177-0.0111084,0.0146484-0.0158691,0.0227661c-0.1182861,0.0077515-0.2351074,0.0145264-0.3602295,0.0268555
			c-0.0057373,0.0003052-0.1485596,0.0083618-0.355957,0.0231934l-3.9029541-0.835022l0.4123535-0.7143555L47.9545135,40.1150818z
			 M40.4833221,42.0975647c-0.1324463-0.0512695-0.2540283-0.1147461-0.3754883-0.1785278l0.5043945,0.1328125
			C40.5686493,42.0683899,40.5261688,42.082489,40.4833221,42.0975647z M40.1587372,41.7284851
			c0.1329346-0.1140747,0.2711182-0.2471924,0.4100342-0.3846436c0.3304443,0.1563721,0.6887207,0.2531128,1.0721436,0.2919922
			c-0.2358398,0.0991211-0.4753418,0.1991577-0.7156982,0.295166L40.1587372,41.7284851z M42.2544403,41.2381287h0.361084
			c-0.1494141,0.0581665-0.3118896,0.1260376-0.47229,0.1924438L42.2544403,41.2381287z M42.3690643,41.0395813l0.3461914-0.5997925
			l1.9099121,0.2580566c-0.5119629,0.0895996-1.0212402,0.2009888-1.4644775,0.3417358H42.3690643z M43.2186737,41.2284851
			c0.5148926-0.1637573,1.1219482-0.2856445,1.717041-0.3806152L42.19133,42.9900208
			c-0.2434082-0.0701294-0.475708-0.1743774-0.7034912-0.2907104L43.2186737,41.2284851z M42.8224335,40.254364l0.2946777-0.510437
			l3.3280029,0.7124023c-0.335083,0.0322876-0.7237549,0.0756226-1.1364746,0.1334839L42.8224335,40.254364z M41.8502655,41.408844
			c-0.5068359-0.0234375-0.9707031-0.1542969-1.3789062-0.3886719c-0.4628906-0.2678833-0.824707-0.6702881-1.0976562-1.152771
			c1.8787842-1.77948,3.244751-4.0859375,3.8652344-6.6842651c0.5500488,0.0012207,1.0634766,0.1360474,1.5244141,0.4024658
			c0.40625,0.234375,0.7509766,0.5703125,1.0253906,1.0019531L41.8502655,41.408844z M30.0699921,43.3277893
			c-7.3271484,0-13.2890625-5.9609375-13.2890625-13.2871075c0-7.3271484,5.9619141-13.2890625,13.2890625-13.2890625
			S43.358078,22.7135334,43.358078,30.0406818C43.358078,37.3668518,37.3971405,43.3277893,30.0699921,43.3277893z
			 M28.8248749,50.4167175c-0.1431885-0.0298462-0.2799072-0.0719604-0.4182129-0.1116943
			c0.4775391-0.2848511,0.9445801-0.5633545,1.3681641-0.8121338l3.1342773,0.3258667
			c-0.7097168,0.3991089-1.5419922,0.6375732-2.4334717,0.6999512L28.8248749,50.4167175z M28.8527069,46.221344
			l-1.5339355,3.6530151c-0.2834473-0.1505737-0.5467529-0.3225098-0.7910156-0.5153198l0.9934082-3.1376953H28.8527069z
			 M29.0668182,46.221344h1.2524414l-2.3239746,3.9688721c-0.1748047-0.0645142-0.3334961-0.1524658-0.4978027-0.2323608
			L29.0668182,46.221344z M30.0632782,49.3249207c0.6417236-0.373291,1.1617432-0.6628418,1.4420166-0.7838745l2.1484375,0.3225708
			c0.0095215,0.166687,0.003418,0.3244629-0.0270996,0.4630127c-0.1428223,0.1153564-0.2961426,0.2203979-0.4533691,0.3215332
			L30.0632782,49.3249207z M33.6737518,47.7168274l-0.2490234-0.0757446
			c0.1513672-0.0722046,0.2995605-0.1381226,0.4445801-0.2027588
			C33.7936249,47.5256653,33.7269745,47.6197815,33.6737518,47.7168274z M33.3096161,47.4773254l0.0869141-0.289856
			c0.1854248,0.0097046,0.34729,0.0182495,0.4951172,0.0258179C33.7025604,47.29599,33.5089569,47.3820496,33.3096161,47.4773254z
			 M33.6031952,47.9013977c-0.0080566,0.0343628-0.0239258,0.0696411-0.0239258,0.1027222
			c0,0.1212158,0.0174561,0.2720947,0.0361328,0.4320068c0.0085449,0.0728149,0.0124512,0.1489258,0.0200195,0.2243652
			l-1.8054199-0.270813c0.3740234-0.1672974,0.7458496-0.3388062,1.1000977-0.5119629
			c0.0793457-0.0386963,0.1531982-0.072876,0.2313232-0.1105957L33.6031952,47.9013977z M33.0692596,47.5927429
			c-0.0761719,0.0369263-0.1481934,0.0705566-0.2255859,0.1082764c-0.3569336,0.1733398-0.7310791,0.3462524-1.1075439,0.5137329
			l0.8062744-1.3648071c0.0585938,0.1418457,0.1604004,0.3017578,0.519165,0.3198242
			c0.0447998,0.0023804,0.0870361,0.0045166,0.1317139,0.006897L33.0692596,47.5927429z M31.4210663,48.3611145
			c-0.2738037,0.1196289-0.7565918,0.3864136-1.3551025,0.7333374l1.8552246-2.8377075
			c0.1053467,0.1439209,0.2200928,0.2830811,0.4136963,0.3301392c0.0480957,0.012207,0.0740967,0.0344849,0.0983887,0.05896
			L31.4210663,48.3611145z M29.6832733,49.3175354c-0.449707,0.2640381-0.9459229,0.5603027-1.4543457,0.8641357
			l2.3193359-3.9603271h1.1600342L29.6832733,49.3175354z M26.1334686,45.8971252
			c-0.2265625-0.4423828-0.3408203-0.8984375-0.3408203-1.359375c0-0.5270996,0.1555176-1.038147,0.4316406-1.5101318
			c1.220459,0.3619385,2.5092773,0.5638428,3.8457031,0.5638428c1.3269043,0,2.6065674-0.2000732,3.8193359-0.5571899
			c0.2729492,0.4697266,0.4267578,0.9783936,0.4267578,1.503479c0,0.4609375-0.1142578,0.9169922-0.3408203,1.359375H26.1334686z
			 M14.1578827,33.7477112c0.2910156-0.4033203,0.6455078-0.7138672,1.0556641-0.9228516
			c0.4677734-0.2401733,0.9761963-0.3410645,1.541626-0.3041382c0.486084,2.6138306,1.7244873,4.9609375,3.4820557,6.8180542
			c-0.2954102,0.4637451-0.6794434,0.8369141-1.1486816,1.0759277c-0.4072266,0.2080078-0.8662109,0.3134766-1.3642578,0.3134766
			c-0.0009766,0-0.0019531,0-0.0029297,0L14.1578827,33.7477112z M16.9121552,26.8505573
			c-0.5460205,0.0018311-1.0653076-0.1169434-1.5218506-0.380188c-0.4003906-0.2324219-0.7392578-0.5605469-1.0068359-0.9755859
			l3.9228516-6.7949219c0.4863281,0.0263672,0.9345703,0.1533203,1.3330078,0.3789062
			c0.0039062,0.0029297,0.0087891,0.0058594,0.0126953,0.0087891c0.4595947,0.2648926,0.8188477,0.6658325,1.0891113,1.1467896
			C18.885788,22.0000935,17.5353241,24.2819538,16.9121552,26.8505573z M25.5636444,15.2789621
			c-0.0334473-0.0028687-0.0634766-0.0084229-0.1003418-0.0084229c-0.161499,0-0.3745117-0.0618896-0.6065674-0.1450806
			c0.0281982-0.2177124,0.0712891-0.4434814,0.145874-0.6951294c0.0146484-0.0507812-0.0019531-0.1064453-0.0439453-0.1396484
			c-0.0507812-0.0410156-0.1367188-0.1308594-0.1367188-0.2705078c0-0.2194214,0.0400391-0.4296265,0.0753174-0.6407471
			l0.7518311,1.324707C25.5962372,14.8938913,25.580246,15.0863962,25.5636444,15.2789621z M24.9454803,13.0637522
			c0.1159668-0.4614258,0.3288574-0.8880615,0.5952148-1.2856445l1.3201904,2.1102295h-0.7938232
			c-0.0478516,0-0.0927734,0.0263672-0.1162109,0.0683594c-0.092041,0.1682129-0.1455078,0.3414307-0.2073975,0.5135498
			L24.9454803,13.0637522z M26.1461639,14.152009h7.8779297c0.2333984,0.4511719,0.3525391,0.9179688,0.3525391,1.3896484
			c0,0.5294199-0.1555176,1.0431528-0.4313965,1.5178843c-1.2290039-0.3676758-2.5281982-0.5715942-3.8752441-0.5715942
			c-1.3383789,0-2.6289062,0.2022095-3.8509521,0.5651855c-0.272583-0.472229-0.4263916-0.9833984-0.4263916-1.5114756
			C25.7926483,15.0709543,25.9117889,14.6041574,26.1461639,14.152009z M27.6727753,10.0209055
			c0.4685059,0.1633911,0.9313965,0.3255005,1.3796387,0.4835815l2.0776367,3.1792603
			c-0.0742188,0.0793457-0.1357422,0.1409912-0.1984863,0.2045898h-0.8117676l-2.5421143-3.822998
			C27.6092987,10.0504465,27.6406708,10.0352488,27.6727753,10.0209055z M32.8461151,11.8593454
			c0.3037109,0.1099243,0.5700684,0.2062988,0.7680664,0.2781982c-0.1590576-0.0025635-0.3193359-0.0075684-0.4528809-0.0172729
			L32.8461151,11.8593454z M32.8722382,12.1375437c-0.3496094,0.045105-0.7619629,0.2006836-0.9609375,0.3881836
			l-1.1757812-1.4243774c0.5742188,0.204895,1.1071777,0.3959351,1.5632324,0.5603638L32.8722382,12.1375437z
			 M32.9076385,11.6713572H33.28862c0.0999756,0.0482178,0.2095947,0.1480103,0.3153076,0.2521362
			C33.4164276,11.8554392,33.1769257,11.7687082,32.9076385,11.6713572z M32.3575897,11.4727488
			c-0.439209-0.1580811-0.9506836-0.3413696-1.4995117-0.5374146l1.9035645-0.2253418
			c0.0976562,0.307251,0.2144775,0.5831909,0.3341064,0.7627563H32.3575897z M32.7061005,10.5175486l-2.269165,0.2677002
			c-0.3209229-0.1142578-0.6513672-0.2316284-0.9946289-0.3528442l2.3841553-0.6638794
			c0.2716064,0.0826416,0.5289307,0.1846924,0.7780762,0.3028564
			C32.6335907,10.2157297,32.6613007,10.3597727,32.7061005,10.5175486z M30.373703,10.9724436l1.407959,1.7068481
			c-0.0218506,0.0411377-0.0428467,0.0804443-0.0678711,0.1294556c-0.0996094,0.1983032-0.2443848,0.4606934-0.4523926,0.7149048
			l-1.9025879-2.9113159C29.7089081,10.7361155,30.0467987,10.8560495,30.373703,10.9724436z M29.8827362,13.8883371h-1.1762695
			l-2.0727539-3.2579346c0.2376709-0.1792603,0.4907227-0.3399658,0.7631836-0.4805298L29.8827362,13.8883371z
			 M39.3776093,19.9858112c0.1315918,0.1369019,0.2713623,0.2886963,0.4089355,0.4364014
			c-0.0256348,0.0357056-0.057251,0.0648193-0.0817871,0.1017456c-0.1673584-0.1694336-0.3469238-0.3256836-0.5229492-0.486145
			c0.0074463-0.0105591,0.0155029-0.0203247,0.0229492-0.0307617L39.3776093,19.9858112z M39.8877411,20.7253132
			c0.2972412-0.4657593,0.6783447-0.8462524,1.151001-1.0869751c0.4189453-0.2148438,0.8759766-0.3251953,1.3876953-0.3251953
			c0.0019531,0,0.0029297,0,0.0048828,0l3.5839844,7.0214844c-0.2958984,0.4160156-0.6572266,0.734375-1.0761719,0.9472656
			c-0.4718018,0.2406006-1.0014648,0.3348389-1.5515137,0.3031616
			C42.9034882,24.9536457,41.658371,22.5908527,39.8877411,20.7253132z M43.2458954,17.7050495
			c0.0467529,0.0580444,0.1119385,0.1133423,0.1971436,0.1625366l-0.1445312,2.5617065l-0.6650391-1.3026733
			c-0.0224609-0.0429688-0.0966797-0.0742188-0.1445312-0.0751953c-0.0234375-0.0029297-0.046875-0.0058594-0.0693359-0.0058594
			c-0.1018066,0-0.1972656,0.0255127-0.2969971,0.0342407l0.0466309-1.0806274
			C42.514328,17.8478107,42.8746796,17.7534504,43.2458954,17.7050495z M48.8553925,22.0657063l-1.7758789-0.1746826
			c0.1140137-0.0578613,0.2283936-0.1349487,0.3414307-0.2484131c0.3321533-0.3320923,0.7254639-0.3773193,1.1723633-0.3995361
			C48.7013397,21.5144367,48.7887421,21.787508,48.8553925,22.0657063z M48.9005585,22.268343
			c0.0100098,0.0500488,0.0245361,0.0996094,0.0333252,0.1497803l-3.2080078-0.3104858
			c0.0045166-0.0037231,0.0144043-0.0061035,0.0186768-0.0098267c0.0992432-0.0889893,0.265625-0.0825195,0.4750977-0.0734863
			c0.0844727,0.0043335,0.1741943,0.0080566,0.2668457,0.0062866L48.9005585,22.268343z M48.9874725,23.9259357
			l-4.1231689-0.4293823l-0.3356934-0.6575928l4.4932861,0.6465454
			C49.0190887,23.6338215,49.0024872,23.7790852,48.9874725,23.9259357z M48.8020477,24.8663044l-3.4356689-0.3863525
			l-0.3951416-0.7739868l3.9888916,0.4154663c-0.0224609,0.159729-0.0296631,0.3221436-0.0668945,0.4788208
			C48.8710175,24.6941853,48.8290253,24.775362,48.8020477,24.8663044z M45.9777069,25.6775227l2.3527832,0.253418
			c-0.1398926,0.230896-0.2973633,0.4435425-0.4750977,0.6392822l-1.5684814-0.2719727
			c-0.0015869-0.0044556,0.0030518-0.0091553,0.0008545-0.0134277L45.9777069,25.6775227z M45.8706512,25.4678059
			l-0.3968506-0.7774048l3.2628174,0.3666992c-0.0828857,0.2409668-0.1782227,0.4709473-0.2947998,0.6872559L45.8706512,25.4678059z
			 M44.4183807,22.6231403l-0.0114746-0.0227661c0.2019043-0.0831909,0.4213867-0.1571655,0.630249-0.2188721
			c0.1309814-0.0383301,0.2403564-0.0734863,0.3450928-0.1092529l3.5968018,0.3484497
			c0.0306396,0.2218628,0.0299072,0.4428711,0.0339355,0.6641846L44.4183807,22.6231403z M45.6122284,21.9507771
			c-0.0927734,0.0825806-0.3538818,0.1599121-0.6304932,0.2411499c-0.0865479,0.0256348-0.1774902,0.0557861-0.267334,0.0839844
			l0.3354492-2.697876c0.15271,0.289978,0.4124756,0.5983276,0.7423096,0.6447754
			c0.2164307,0.0309448,0.3514404,0.8383789,0.361084,1.6051636C45.9474335,21.8215046,45.75383,21.8237629,45.6122284,21.9507771z
			 M44.5074921,22.3409138c-0.0670166,0.0234985-0.1291504,0.0518188-0.1928711,0.0786743L43.4769745,20.77878l0.1593018-2.829834
			c0.2718506,0.0993042,0.6136475,0.1370239,0.9197998,0.0158081c0.0620117-0.0257568,0.095459-0.0115967,0.1168213,0.0039062
			c0.069458,0.0476685,0.2298584,0.256897,0.2305908,1.1868286L44.5074921,22.3409138z M46.5704803,27.4834309V27.334383
			c0.0378418,0.0423584,0.0766602,0.0891724,0.1154785,0.1351318C46.6503143,27.4812336,46.611496,27.4869099,46.5704803,27.4834309
			z M46.9916229,27.2873249l-0.2285156-0.0412598c-0.2165527-0.243042-0.4228516-0.4606323-0.6226807-0.6663818
			c0.0255127-0.0332642,0.0561523-0.0588379,0.0808105-0.0933228l1.4720459,0.2553711
			C47.4808807,26.9496174,47.246994,27.1310749,46.9916229,27.2873249z M45.4938202,17.9967365
			c1.21875,0.4960938,2.2412109,1.4589844,2.8808594,2.7128906c0.0568848,0.1112671,0.0905762,0.2283936,0.1401367,0.3417358
			c-0.4466553,0.0258789-0.8691406,0.0878906-1.2331543,0.4519653c-0.2641602,0.265625-0.5380859,0.3233643-0.7961426,0.3291626
			l-0.0040283-0.0003052l-0.0001221,0.0007935c-0.0444336,0.0007935-0.0866699-0.00177-0.1298828-0.0030518
			c-0.0048828-0.4331665-0.0585938-1.7349854-0.5314941-1.8031616c-0.3920898-0.0554199-0.7189941-0.6563721-0.7189941-0.8665771
			c0-0.7672729-0.1037598-1.2108765-0.3171387-1.3553467c-0.0612793-0.039978-0.1612549-0.0812378-0.3012695-0.0231934
			c-0.3503418,0.137207-0.7717285,0.0302734-0.9807129-0.111145C44.1555634,17.6275959,44.8304901,17.7261066,45.4938202,17.9967365
			z M41.6676483,18.4274006c0.0527344-0.0097656,0.09375-0.0507812,0.1044922-0.1025391
			c0.0136719-0.0634766,0.0546875-0.1806641,0.1777344-0.2431641c0.0059814-0.0030518,0.0125732-0.0039673,0.0185547-0.006958
			l-0.0443115,1.0279541c-0.3503418,0.0518799-0.69104,0.1383057-1.0064697,0.2993164
			c-0.1135254,0.0579834-0.2045898,0.1486206-0.3092041,0.2199097l0.0115967-0.859314
			C40.9196014,18.6136799,41.252121,18.506319,41.6676483,18.4274006z M40.4214325,18.8775959l-0.012085,0.8858643
			c-0.1833496,0.1472168-0.3465576,0.3161011-0.4975586,0.5031128c-0.1323242-0.1418457-0.2666016-0.2875366-0.3933105-0.4193726
			v-0.230896C39.7848358,19.3215046,40.087326,19.0733356,40.4214325,18.8775959z M35.3473358,14.0201731
			c0,0.1396484-0.0859375,0.2294922-0.1367188,0.2705078c-0.0419922,0.0332031-0.0585938,0.0888672-0.0439453,0.1396484
			c0.1230469,0.4150391,0.1806641,0.7685547,0.1806641,1.1113281c0,0.6284189-0.177124,1.2513437-0.4885254,1.8364878
			c-0.2176514-0.0825806-0.4333496-0.1690674-0.65625-0.2406006c0.2794189-0.5001831,0.4377441-1.0387573,0.4377441-1.5958872
			c0-0.5410156-0.1416016-1.0742188-0.4208984-1.5849609c-0.0234375-0.0419922-0.0683594-0.0683594-0.1162109-0.0683594h-2.8947754
			c0.0397949-0.0412598,0.0742188-0.0748901,0.1206055-0.1253052c0.2803955-0.305603,0.4428711-0.6292725,0.5615234-0.8652954
			c0.0349121-0.0683594,0.0657959-0.130249,0.0947266-0.1818237c0.1005859-0.175354,0.7712402-0.4307251,1.1296387-0.401062
			c1.1071777,0.0864258,1.1258545-0.0270996,1.1329346-0.0773926c0.0030518-0.0270386-0.0089111-0.0853882-0.0949707-0.109436
			l0.0015869-0.0040283c-0.0012207-0.0003052-0.0196533-0.0070801-0.0230713-0.0083618
			c-0.0664062-0.0145264-0.1988525-0.145752-0.3065186-0.2546997c-0.1508789-0.1508789-0.3068848-0.3069458-0.4693604-0.3791504
			c-0.1542969-0.0682373-0.4019775-0.71698-0.5426025-1.3129272C34.3258514,10.9647532,35.3473358,12.3862009,35.3473358,14.0201731
			z M31.4496307,9.667695l-2.3337402,0.6496582c-0.3858643-0.1360474-0.7856445-0.2757568-1.1872559-0.4160156
			c0.659668-0.2567139,1.3861084-0.4075317,2.1560059-0.4075317C30.5597382,9.4938059,31.0115204,9.5657053,31.4496307,9.667695z
			 M26.47258,10.7447824l2.0002441,3.1435547h-1.3780518l-1.4365234-2.2962646
			C25.8898163,11.2809763,26.1622772,10.9978952,26.47258,10.7447824z M24.8219452,15.5416574
			c0-0.0686035,0.0129395-0.1417236,0.0177002-0.2115479c0.2330322,0.0805054,0.4492188,0.1390381,0.6236572,0.1390381
			c0.0270996,0,0.0495605,0.0041504,0.0744629,0.0059814c-0.0004883,0.0223389-0.0087891,0.0441895-0.0087891,0.0665283
			c0,0.5546885,0.1560059,1.0906992,0.4312744,1.5872812c-0.22229,0.0709229-0.4368896,0.1578979-0.6540527,0.2398071
			C24.9974823,16.785677,24.8219452,16.1661091,24.8219452,15.5416574z M15.7535858,17.1422443
			c0.0837402,0.1658936,0.1523438,0.3208008,0.1523438,0.4310913c0,0.3726807-0.0264893,0.5351562-0.1032715,1.0200195
			l-0.0026855,0.0172729l-1.5720215-0.8414917c0.4718018-0.3007202,0.9719238-0.5140991,1.4865723-0.6453247L15.7535858,17.1422443z
			 M15.759079,18.8136921c-0.0484619,0.2324829-0.1243896,0.3568726-0.2161865,0.4812012
			c-0.0827637,0.112793-0.1694336,0.2603149-0.2365723,0.4830933l-2.0838623-1.182312
			c0.2576904-0.2640381,0.5318604-0.4967041,0.8233643-0.6994019L15.759079,18.8136921z M13.0769501,18.7411213l2.1710205,1.2320557
			c-0.0319824,0.147644-0.0656738,0.2985229-0.0996094,0.4487915c-0.0006104,0.0025635-0.0010986,0.0048218-0.001709,0.0073853
			l-2.0424805-0.8781738c-0.1046143-0.1469727-0.2124023-0.3057861-0.3195801-0.461792
			C12.87883,18.9681721,12.9755096,18.8527546,13.0769501,18.7411213z M14.9593964,21.848238
			c0.0085449,0.0744629,0.0134277,0.1511841,0.0107422,0.2156372c-0.1467285-0.1887207-0.4562988-0.5909424-0.8615723-1.1344604
			l0.8706055,0.3525391c-0.0161133,0.1100464-0.0390625,0.2319336-0.0390625,0.3134766
			C14.9401093,21.6780109,14.9496307,21.7643757,14.9593964,21.848238z M14.0448456,21.1737385
			c0.3474121,0.4639282,0.6121826,0.8081055,0.7532959,0.989624c-0.0206299-0.0037231-0.0283203-0.0006714-0.0554199-0.0082397
			c-0.1365967-0.036438-0.2877197-0.0386963-0.4440918-0.0328979L14.0448456,21.1737385z M14.0967255,22.1322346
			c-0.0155029,0.0010986-0.0296631,0.0009766-0.0452881,0.0022583c-0.1888428,0.0128784-0.3909912,0.0238647-0.6027832,0.0100098
			L13.1832733,19.9993c0.1894531,0.2633667,0.3720703,0.5140381,0.5429688,0.7456665L14.0967255,22.1322346z M13.8816376,20.6234455
			c-0.1744385-0.2363281-0.3609619-0.4927979-0.5545654-0.7617798l1.7768555,0.7633667
			c-0.0354004,0.1560669-0.0722656,0.3151855-0.098877,0.4539795L13.8816376,20.6234455z M12.6641083,19.2612629
			c0.0933838,0.1361084,0.1873779,0.2745361,0.2784424,0.4025879l0.3039551,2.4538574
			c-0.1948242-0.0301514-0.3961182-0.0813599-0.6083984-0.1908569c-0.0925293-0.0480347-0.1789551-0.081543-0.2658691-0.1160278
			l-0.1816406-1.7896118c0.0429688-0.083252,0.0701904-0.1698608,0.1176758-0.2520142
			C12.4142303,19.586092,12.5431366,19.4282551,12.6641083,19.2612629z M12.1665497,21.737154
			c-0.2012939-0.0621948-0.3791504-0.0913696-0.5465088-0.1130371c0.0809326-0.4223022,0.2260742-0.8410645,0.4077148-1.2544556
			L12.1665497,21.737154z M14.904953,27.3102131c-0.296875-0.1708984-0.5732422-0.3964844-0.8691406-0.7119141
			c-0.0302734-0.03125-0.0761719-0.0478516-0.1210938-0.0478516c-0.0224609,0-0.0458984,0.0039062-0.0664062,0.0126953
			c-0.1298828,0.0488281-0.1904297,0.0263672-0.2607422-0.0126953c-1.5811768-0.9146118-2.3007812-2.805603-1.9991455-4.7357178
			c0.2752686,0.0341797,0.5928955,0.0977783,0.9594727,0.2875366c0.5718994,0.2940063,1.0948486,0.260498,1.5178223,0.2282104
			c0.2424316-0.0154419,0.4512939-0.0309448,0.6253662,0.0155029c0.0561523,0.0155029,0.1245117,0.0296631,0.1921387,0.0296631
			c0.0697021,0,0.1394043-0.0155029,0.1948242-0.0631714c0.1218262-0.1044922,0.0998535-0.2901611,0.0773926-0.4862061
			c-0.0084229-0.0760498-0.0180664-0.1560059-0.0180664-0.230835c0-0.2437134,0.1030273-0.6950684,0.203125-1.1296387
			c0.0405273-0.175354,0.0811768-0.3533325,0.1166992-0.5222778c0.0585938-0.2772217,0.1489258-0.401062,0.244873-0.531311
			c0.1071777-0.1456909,0.2180176-0.2952881,0.270874-0.6331787L15.9974823,18.6243
			c0.0793457-0.4951782,0.1057129-0.6628418,0.1057129-1.0509644c0-0.1448975-0.0758057-0.3184204-0.1689453-0.5037231
			c0.9893799-0.2025146,2.0024414-0.0951538,2.8857422,0.4144287c0.1103516,0.0634766,0.1425781,0.1728516,0.1513672,0.2324219
			c0.0107422,0.0644531,0.0585938,0.1162109,0.1220703,0.1318359c0.4208984,0.1025391,0.7519531,0.2285156,1.0439453,0.3974609
			c0.5388184,0.3112183,0.9868164,0.7705078,1.3355713,1.326416c-0.1691895,0.1392212-0.3250732,0.2929077-0.4874268,0.4399414
			c-0.2927246-0.4971924-0.6743164-0.9147949-1.1577148-1.1970215c-0.0039062-0.0039062-0.0087891-0.0068359-0.0146484-0.0097656
			c-0.4736328-0.2714844-1.0107422-0.4169922-1.5947266-0.4326172c-0.0634766-0.0039062-0.1152344,0.0302734-0.1445312,0.0810547
			l-4.0195312,6.9628906c-0.0292969,0.0517578-0.0283203,0.1142578,0.0019531,0.1650391
			c0.3037109,0.5009766,0.6982422,0.8935547,1.171875,1.1689453c0.4836426,0.2783813,1.0285645,0.4120483,1.6008301,0.4223022
			c-0.0458984,0.2120361-0.0773926,0.4285889-0.1131592,0.644165C16.06987,27.8016071,15.4579315,27.6296711,14.904953,27.3102131z
			 M16.705246,32.1945496c-0.4411621-0.0202637-0.8526611,0.0338745-1.2380371,0.1695557l-0.2434082-0.5967999
			c0.434082-0.1500244,0.9023438-0.2139893,1.3842773-0.2072144C16.6322479,31.7742023,16.6713104,31.9835529,16.705246,32.1945496z
			 M14.7701874,31.9596272c0.0875244-0.0447388,0.1804199-0.0778809,0.2714844-0.1150513l0.2436523,0.5973492
			c-0.0732422,0.0309448-0.1477051,0.057312-0.2192383,0.0938721c-0.2657471,0.1358032-0.5047607,0.3167114-0.7258301,0.5256958
			l-0.2241211-0.6498413C14.3364716,32.2281189,14.5514374,32.0715027,14.7701874,31.9596272z M13.4156952,32.6500549
			c0.046875-0.0244141,0.0927734-0.0322266,0.1347656-0.0322266c0.0585938,0,0.109375,0.0166016,0.1416016,0.03125
			c0.0605469,0.0263672,0.1289062,0.015625,0.1777344-0.0302734c0.0290527-0.0275269,0.0559082-0.045166,0.0847168-0.071228
			l0.2365723,0.6862793c-0.1220703,0.1317139-0.2497559,0.2550659-0.3554688,0.4103394
			c-0.0332031,0.0488281-0.0371094,0.1113281-0.0107422,0.1640625l0.7939453,1.5549316
			c-0.2548828-0.1734009-0.5083008-0.3457642-0.7904053-0.5514526c-0.2199707-0.1599121-0.4453125-0.319458-0.6696777-0.4787598
			l-0.3468018-1.2819214C13.0027313,32.9039612,13.1976776,32.7615051,13.4156952,32.6500549z M12.6409149,33.1755066
			l0.263916,0.9760132c-0.2445068-0.1694336-0.491333-0.3234863-0.7381592-0.4746094
			C12.3134003,33.4980774,12.4667206,33.3254089,12.6409149,33.1755066z M11.1471405,36.3971252
			c0.0170898-0.307373,0.0562744-0.6123047,0.1269531-0.9101562c0.034668-0.1464844,0.0959473-0.2758179,0.1424561-0.414917
			l1.3934326,0.4512329c0.0515137,0.0857544,0.0905762,0.1689453,0.0957031,0.246582
			c0.0180664,0.2669678,0.1516113,0.4887695,0.2695312,0.6834717c0.1096191,0.1818848,0.2128906,0.3520508,0.2128906,0.5325928
			c0,0.1454468,0.0692139,0.2877808,0.154541,0.4313965L11.1471405,36.3971252z M13.7206268,37.7066345
			c0.157959,0.2358398,0.3115234,0.4802246,0.3115234,0.7597656c0,0.3465576,0.1948242,0.7182617,0.3752441,1.0522461
			l-3.0820312-1.4519043c-0.1209717-0.4832764-0.1860352-0.9710083-0.1782227-1.4556885L13.7206268,37.7066345z
			 M11.4808807,34.8848572c0.079834-0.2094727,0.1729736-0.4070435,0.2792969-0.5965576
			c0.1779785,0.2435303,0.3781738,0.4690552,0.5684814,0.6652832c0.0996094,0.1032104,0.1900635,0.2001953,0.2734375,0.2943726
			L11.4808807,34.8848572z M11.3795624,38.3097229l3.1760254,1.4961548
			c0.0837402,0.1658936,0.1523438,0.3208008,0.1523438,0.4310913c0,0.3726807-0.0264893,0.5351562-0.1032715,1.0200195
			l-0.0026855,0.0172729l-2.4530029-1.3130493c-0.1287842-0.1931763-0.2506104-0.3931274-0.3582764-0.604126
			C11.6168671,39.0168762,11.484787,38.6653748,11.3795624,38.3097229z M12.431076,40.3367004l2.1300049,1.140625
			c-0.0444336,0.2131958-0.1138916,0.333313-0.1955566,0.447998C13.6309052,41.570282,12.9694061,41.0203552,12.431076,40.3367004z
			 M19.5309296,41.2789612c-0.3017578,0.1542969-0.6503906,0.2675781-1.0664062,0.3457031
			c-0.0644531,0.0126953-0.1142578,0.0615234-0.1279297,0.1259766c-0.0126953,0.0585938-0.0498047,0.1650391-0.1611328,0.2216797
			c-0.5576172,0.2841797-1.1640625,0.4277344-1.8017578,0.4277344c-0.6218262,0-1.2359619-0.1463623-1.8170166-0.3983154
			c0.0892334-0.1269531,0.1740723-0.2766724,0.2182617-0.559082l0.0245361-0.1547241
			c0.0793457-0.4951782,0.1057129-0.6628418,0.1057129-1.0509644c0-0.1589355-0.0869141-0.3497925-0.1928711-0.5558472
			l0.0072021-0.0154419l-0.0198975-0.0093384c-0.0332031-0.0635376-0.0594482-0.121582-0.0961914-0.18927
			c-0.175293-0.3236694-0.3740234-0.6899414-0.3740234-1.0006714c0-0.3649902-0.2036133-0.6680298-0.3842773-0.9349365
			c-0.1334229-0.1986084-0.2597656-0.3856201-0.2597656-0.5455322c0-0.2346802-0.1225586-0.4384155-0.2412109-0.6344604
			c-0.1115723-0.1843872-0.2263184-0.3752441-0.2412109-0.5944824c-0.0083008-0.1254272-0.0683594-0.2490234-0.1499023-0.3741455
			l0.0062256-0.019165l-0.0220947-0.0070801c-0.1176758-0.1726685-0.2819824-0.3488159-0.4666748-0.5396729
			c-0.2030029-0.2106934-0.4210205-0.4501953-0.6021729-0.7098999c0.0577393-0.0919189,0.1032715-0.1937866,0.1672363-0.2800903
			c0.564209,0.3465576,1.1286621,0.7458496,1.6767578,1.1447144c0.3907471,0.2846069,0.7541504,0.5406494,1.0974121,0.7655029
			l2.6674805,5.2244263c0.0273438,0.0527344,0.0810547,0.0869141,0.1396484,0.0888672
			c0.6025391,0.0146484,1.1357422-0.1015625,1.6181641-0.3466797c0.4968262-0.2538452,0.9000244-0.647522,1.220459-1.1248169
			c0.1530762,0.1541138,0.3183594,0.2949829,0.4785156,0.4417114C20.5565643,40.5594788,20.085495,40.9964905,19.5309296,41.2789612
			z M25.3086395,42.7115784c0.1990967,0.0750732,0.3963623,0.1540527,0.5997314,0.2198486
			c-0.2805176,0.503479-0.4399414,1.0458984-0.4399414,1.6063232c0,0.1133423,0.0322266,0.2244263,0.0445557,0.3370361
			c-0.2122803,0.0134888-0.4333496,0.0482788-0.6536865,0.1119385c-0.0214844-0.1535034-0.0373535-0.3034668-0.0373535-0.4489746
			C24.8219452,43.9129944,24.9982147,43.2937317,25.3086395,42.7115784z M24.8946991,45.1873474
			c0.2143555-0.0648193,0.4328613-0.1001587,0.6445312-0.1130981c0.0253906,0.1445312,0.0539551,0.2879028,0.0996094,0.4304199
			l-0.4719238,2.1192017c-0.2126465-0.4889526-0.3449707-1.0117798-0.3449707-1.5636597
			c0-0.1269531,0.078125-0.2089844,0.125-0.2470703c0.0507812-0.0410156,0.0722656-0.109375,0.0537109-0.171875
			C24.9528046,45.4794006,24.9230194,45.3331604,24.8946991,45.1873474z M25.304245,47.9197693l0.4655762-2.0911255
			c0.0445557,0.1022339,0.0692139,0.2070923,0.1243896,0.3077393c0.0283203,0.0527344,0.0820312,0.0849609,0.1416016,0.0849609
			h1.2783203l-0.9552002,3.0179443C25.9186249,48.8615417,25.56633,48.4117737,25.304245,47.9197693z M35.2867889,44.5377502
			c0,0.3398438-0.0566406,0.6904297-0.1787109,1.1035156c-0.0185547,0.0625,0.0029297,0.1308594,0.0537109,0.171875
			c0.046875,0.0380859,0.125,0.1201172,0.125,0.2470703c0,1.2010498-0.5588379,2.2877808-1.4553223,3.0949707
			c0.0200195-0.2412109,0.0090332-0.4981689-0.0194092-0.7423096c-0.0179443-0.1534424-0.0355225-0.2991333-0.0355225-0.4087524
			c0-0.2218018,0.3728027-0.6035156,0.6074219-0.7905273l0.203125-0.1624756l-0.2597656-0.0142212
			c0,0-0.644165-0.0309448-1.2553711-0.0631714c-0.2818604-0.0154419-0.3192139-0.1160278-0.3708496-0.2540283
			c-0.045166-0.1199341-0.1005859-0.2695312-0.3184814-0.3236694c-0.098999-0.0250854-0.1705322-0.0928955-0.2391357-0.1746826
			h1.9294434c0.0595703,0,0.1132812-0.0322266,0.1416016-0.0849609c0.2822266-0.515625,0.4257812-1.0537109,0.4257812-1.5986328
			c0-0.5576172-0.1573486-1.0966797-0.4343262-1.5970459c0.2033691-0.0653687,0.3999023-0.1450195,0.5991211-0.2196655
			C35.1123505,43.2997742,35.2867889,43.9162292,35.2867889,44.5377502z M38.6437225,40.5243225
			c0.184082-0.1508179,0.3551025-0.315918,0.5310059-0.4760132c0.2930908,0.4996338,0.6765137,0.918396,1.1638184,1.2003784
			c0.0092773,0.0053101,0.0202637,0.006958,0.029541,0.012207c-0.1928711,0.1867065-0.3781738,0.3460693-0.5567627,0.4818115
			C39.3479462,41.4362488,38.9550018,41.0218811,38.6437225,40.5243225z M41.139328,42.3756409
			c-0.0087891-0.0517578-0.0478516-0.09375-0.0996094-0.1064453c-0.0554199-0.0132446-0.1025391-0.0333252-0.1558838-0.0480957
			l0.1080322-0.104126c0.2792969-0.1112061,0.5583496-0.2277832,0.8302002-0.3423462
			c0.3048096-0.1281738,0.5915527-0.2456665,0.8643799-0.3520508l-1.3947754,1.1853638
			C41.212204,42.5555115,41.1567841,42.4758606,41.139328,42.3756409z M42.4495087,43.0377502l2.885376-2.2520752
			c0.5715332-0.0799561,1.090332-0.1312256,1.4841309-0.1639404l-2.8896484,2.4887695
			C43.4242401,43.1811218,42.9286346,43.1423645,42.4495087,43.0377502z M44.8727264,42.877594
			c-0.1733398,0.0621948-0.3477783,0.0891724-0.5219727,0.1303711l2.8010254-2.4126587
			c0.197876-0.0140381,0.3359375-0.0219116,0.3424072-0.022583c0.069458-0.0068359,0.1356201-0.0119019,0.2023926-0.0172119
			C47.0009003,41.6434021,46.0153046,42.4697571,44.8727264,42.877594z M45.248703,32.7438049
			c0.2978516,0.1728516,0.5761719,0.3994141,0.875,0.7128906c0.0361328,0.0400391,0.0908203,0.0517578,0.1425781,0.0332031
			c0.1025391-0.0400391,0.2128906-0.0351562,0.3007812,0.015625c1.4216309,0.8216553,2.1411133,2.4287109,2.06604,4.1459351
			c-0.8736572,0.0753784-1.7824707,0.1940308-2.7392578,0.3885498c-0.0147705,0.0039062-1.5042725,0.3869019-1.9259033,0.4707031
			c-0.0506592,0.0101929-0.1138916,0.0371704-0.1712646,0.0559692l2.2606201-3.9156494
			c0.0244141-0.0419922,0.0234375-0.09375-0.0009766-0.1347656c-0.3046875-0.5019531-0.6953125-0.8916016-1.1601562-1.1591797
			c-0.4837646-0.2788086-1.0200195-0.4174194-1.5913086-0.4292603c0.048584-0.2234497,0.0830078-0.451416,0.1206055-0.678772
			C44.0836639,32.2729797,44.7076874,32.4316711,45.248703,32.7438049z M43.5365448,28.5578327
			c-0.026123-0.2388916-0.0698242-0.472229-0.1082764-0.7073364c0.5780029,0.0256348,1.133667-0.0778809,1.631958-0.3322754
			c0.125-0.0639038,0.2316895-0.1589966,0.347168-0.239624c0.1408691,0.1928711,0.2834473,0.3897095,0.4265137,0.588501
			c-0.1505127,0.1102905-0.2995605,0.2023926-0.4523926,0.2800293
			C44.8082733,28.4396076,44.196701,28.5738239,43.5365448,28.5578327z"/>
	</g>
</g>
<g id="Calque_2">
</g>
</svg>
