<?xml version="1.0" encoding="utf-8"?>
<!-- Generator: Adobe Illustrator 25.4.1, SVG Export Plug-In . SVG Version: 6.00 Build 0)  -->
<svg version="1.1" xmlns="http://www.w3.org/2000/svg" xmlns:xlink="http://www.w3.org/1999/xlink" x="0px" y="0px"
	 viewBox="0 0 60.109684 60.109684" enable-background="new 0 0 60.109684 60.109684" xml:space="preserve">
<g id="Bleu_traces">
	<g>
		<path fill="#5C6A6B" d="M30.0549984,25.4718342c4.2246075,0,7.6611309-3.4375,7.6611309-7.6621094
			c0-4.1513681-7.2275372-13.0766602-7.5351543-13.4545898c-0.0605469-0.0761719-0.1914062-0.0761719-0.2519531,0
			c-0.3076172,0.3779297-7.5361328,9.3032227-7.5361328,13.4545898
			C22.392889,22.0343342,25.830389,25.4718342,30.0549984,25.4718342z M33.2600746,24.3981647
			c-0.5932617,0.289856-1.2290039,0.5031128-1.8981915,0.6241455l1.1760235-1.4689941
			c0.4140625,0.0617065,0.7906494,0.1273804,1.1497803,0.1938477L33.2600746,24.3981647z M33.9922523,23.5495319
			l-0.4655762-1.6295776c0.4291992,0.1882935,0.8156738,0.3712158,1.1379395,0.5379028l0.2155762,0.8633423
			c-0.1307373,0.114624-0.2658691,0.2235718-0.404541,0.3288574C34.3185463,23.6163654,34.1651039,23.5824299,33.9922523,23.5495319
			z M34.2089272,23.8496418c-0.1624756,0.1120605-0.3314209,0.2147217-0.5030518,0.3136597l0.2407227-0.3665161
			C34.0371742,23.8143635,34.121891,23.8320026,34.2089272,23.8496418z M33.7255287,23.5023518
			c-0.3708496-0.0675049-0.7386475-0.1341553-1.1546631-0.194458l-1.258543-2.218689
			c0.7155743,0.2267456,1.3635235,0.4662476,1.925169,0.7023926L33.7255287,23.5023518z M32.2703285,23.2706013
			c-0.366209-0.0502319-0.7443829-0.0980225-1.1433086-0.1412964L29.097723,20.509798
			c0.6835938,0.1464233,1.31604,0.3063965,1.8753662,0.4740601L32.2703285,23.2706013z M26.0950375,23.0931721
			c0.4492188,0.0023804,0.881958,0.0107422,1.3035889,0.0234375l-1.0169678,1.0332031
			c-0.2915039-0.1694946-0.5699463-0.3578491-0.8342285-0.5645142L26.0950375,23.0931721z M25.3526058,23.43326
			c-0.1240234-0.1038818-0.2419434-0.2145386-0.3588867-0.3262329c0.248291-0.0054932,0.4996338-0.0123901,0.7358398-0.0126343
			L25.3526058,23.43326z M27.7316341,23.1245441c0.5784912,0.0210571,1.1258545,0.052002,1.651001,0.0892944l-1.5131836,1.5991211
			c-0.4436035-0.1387329-0.8685303-0.3198853-1.2717285-0.5363159L27.7316341,23.1245441z M29.6946468,23.238802
			c0.3862305,0.0299683,0.7583008,0.0631104,1.114502,0.1004028l-1.4327393,1.7720337
			c-0.4248047-0.0391846-0.836792-0.1194458-1.2376709-0.2282104L29.6946468,23.238802z M30.7874203,23.0874348
			c-0.3305664-0.032959-0.7045898-0.0525513-1.0561523-0.0795898l-3.1083984-2.8984375
			c0.7456055,0.085144,1.454834,0.18927,2.1032715,0.3178711L30.7874203,23.0874348z M29.3465023,22.9798908
			c-0.4887695-0.0335083-0.9841309-0.0625-1.5107422-0.0825195l-3.9360352-2.965332
			c0.8199463,0.0103149,1.5870361,0.0631104,2.3233643,0.1361084L29.3465023,22.9798908z M27.4168148,22.8876057
			c-0.4283447-0.0128784-0.8522949-0.0273438-1.3041992-0.0301514l-2.2397461-1.114563
			c-0.3535156-0.5536499-0.6384277-1.1546631-0.8342285-1.7957153c0.154541-0.0060425,0.3106689-0.0137329,0.4595947-0.0139771
			L27.4168148,22.8876057z M25.5606136,22.8533039c-0.2573242,0.0009766-0.5302734,0.0101318-0.802124,0.0185547
			c-0.2150879-0.2249146-0.4139404-0.4645386-0.5992432-0.715271L25.5606136,22.8533039z M29.6763363,25.1264362
			l1.4200439-1.7564697c0.4067383,0.0450439,0.7947998,0.0934448,1.1607647,0.1454468l-1.2512188,1.5614014
			c-0.3120117,0.0406494-0.6279297,0.0688477-0.9509277,0.0688477C29.9271908,25.1456623,29.802557,25.132906,29.6763363,25.1264362
			z M35.0852699,23.134737l-0.1303711-0.5222778c0.1621094,0.0879517,0.2947998,0.1640015,0.4177246,0.2357178
			C35.2793617,22.9464436,35.1837807,23.0417194,35.0852699,23.134737z M35.6387367,22.5154133
			c-0.1923828-0.1912842-0.3852539-0.3817749-0.5935059-0.5730591l1.0997314-0.0630493
			c0.0014648,0.0022583,0.0028076,0.0045776,0.0042725,0.0068359c-0.1466064,0.2186279-0.305542,0.4280396-0.4742432,0.6292725
			H35.6387367z M27.2727718,8.4579172c0.5926514-0.8496699,1.1506348-1.6096797,1.6210938-2.2350459l-0.2668457,4.7278438
			c-0.475708-0.590271-0.9411621-1.1569824-1.3891602-1.6861572L27.2727718,8.4579172z M26.8661556,9.2056589l-0.116333,0.013916
			c0.019165-0.0281372,0.0378418-0.0547485,0.0568848-0.0827637C26.8264828,9.1595774,26.846014,9.1820383,26.8661556,9.2056589z
			 M27.0564632,9.4270945c0.4604492,0.5438232,0.9390869,1.1270142,1.4291992,1.736145l-3.1903076,0.3174438
			c0.4127197-0.6801758,0.8443604-1.3513794,1.2758789-1.9953613L27.0564632,9.4270945z M26.9490414,8.9293528
			c0.0216064-0.0314941,0.0430908-0.0626831,0.0645752-0.0939331l-0.006958,0.1605225
			C26.9871273,8.973115,26.9682064,8.9514475,26.9490414,8.9293528z M28.6670589,11.3894358
			c0.3497314,0.4373169,0.706665,0.8918457,1.0708008,1.3635254l-5.4122314,0.4228516
			c0.2547607-0.4760742,0.5294189-0.9561157,0.815918-1.435791L28.6670589,11.3894358z M29.9158382,12.9831247
			c0.359375,0.4678345,0.7250977,0.9527588,1.0979004,1.4551392l-6.704834,0.3032227
			c-0.2131348-0.1154785-0.4089355-0.218689-0.6074219-0.3237915c0.1503906-0.3241577,0.3137207-0.6541138,0.4880371-0.9879761
			L29.9158382,12.9831247z M32.9415932,8.610322c0.0450439,0.0650024,0.0906982,0.1325684,0.1361084,0.1984253l-1.2187481-0.117981
			c0.0054932-0.0045776,0.0177002-0.0075684,0.0229492-0.012085c0.1220684-0.1095581,0.3269024-0.1016235,0.584837-0.0905151
			c0.1040039,0.0053711,0.2144775,0.0099487,0.3284912,0.0077515L32.9415932,8.610322z M32.6289711,8.3489084
			c-0.0006104-0.0526733-0.0024414-0.1204834-0.0048828-0.1924438c0.046875,0.0662842,0.0915527,0.1281738,0.1386719,0.1955566
			C32.7177162,8.3518381,32.6735268,8.3502512,32.6289711,8.3489084z M32.3850746,8.3465281
			c-0.253418-0.0079346-0.4918194-0.005188-0.6660137,0.1511841c-0.1142578,0.1015625-0.4356689,0.1968384-0.776123,0.296814
			c-0.1065674,0.0315552-0.2185059,0.0686646-0.3291016,0.1033936l0.3707275-2.98175
			c0.3880615,0.5108032,0.8538818,1.1383057,1.3614483,1.8483887C32.3622475,7.9573684,32.3825111,8.1478586,32.3850746,8.3465281z
			 M31.0111752,9.0278635c0.1611328-0.0472412,0.2960205-0.0904541,0.4246826-0.1345215l1.821043,0.1764526
			c0.1700439,0.2494507,0.3393555,0.5033569,0.5102539,0.762085l-3.5847149-0.5162964
			C30.4442806,9.204072,30.7363949,9.1090403,31.0111752,9.0278635z M33.9463539,10.103425
			c0.144043,0.2210083,0.2856445,0.4440918,0.4277344,0.6693115l-4.8655987-0.5067749
			c-0.0053711-0.0932007-0.0172119-0.1991577-0.0172119-0.277771c0-0.1964111,0.1462402-0.3460083,0.3381348-0.4771729
			L33.9463539,10.103425z M34.538517,11.033967c0.2056885,0.3304443,0.4056396,0.6619263,0.6009521,0.9954834l-5.3497295-0.6015625
			l-0.0037842,0.0337524c-0.1359863-0.3261719-0.2275391-0.6539917-0.2624512-0.9500122L34.538517,11.033967z M35.2944984,12.290803
			c0.1813965,0.3154907,0.3544922,0.6298218,0.520752,0.9423828l-5.0402813-0.5421753
			c-0.1247559-0.105957-0.2297363-0.1930542-0.2851562-0.2376709c-0.2756348-0.2200317-0.4575195-0.4899292-0.6037598-0.7702637
			L35.2944984,12.290803z M36.7141762,20.5892048c-0.092041-0.2282104-0.1920166-0.4504395-0.2940674-0.671875l0.6087646,0.1558838
			c-0.0583496,0.1790771-0.1223145,0.3554688-0.1937256,0.5281982L36.7141762,20.5892048z M36.6116371,21.0795002
			c-0.0749512,0.1494751-0.1542969,0.2956543-0.2387695,0.4390869l0.1208496-0.74646
			C36.5342445,20.8747272,36.5724525,20.9770832,36.6116371,21.0795002z M36.2896156,19.6336384
			c-0.142334-0.293457-0.2927246-0.5789795-0.4490967-0.8591919l1.4364014,0.2745361
			c-0.0458984,0.2687988-0.1043701,0.5328979-0.178833,0.7908936L36.2896156,19.6336384z M36.3208656,20.3215046
			l-0.1795654,1.102417c-0.1413574-0.2180786-0.2791748-0.4244385-0.4193115-0.6383057l0.1677246-1.3555908
			C36.0424232,19.7276325,36.1915932,20.0248737,36.3208656,20.3215046z M35.6911049,18.4988728
			c-0.1693115-0.2912598-0.3455811-0.5736084-0.5253906-0.8486328l2.210083,0.4394531
			c-0.0092773,0.2429199-0.0296631,0.4824219-0.0620117,0.718811L35.6911049,18.4988728z M34.9710121,17.3641071
			c-0.206543-0.3043213-0.4165039-0.5964355-0.6289062-0.8777466l2.9886475,0.7026978
			c0.0323486,0.215332,0.0592041,0.4271851,0.0592041,0.6206665c0,0.0119629-0.001709,0.0234985-0.001709,0.0354614
			L34.9710121,17.3641071z M35.0289955,17.9145222l-0.1820068,1.5454712
			c-0.1469727-0.2192383-0.2902832-0.4279785-0.435791-0.6424561l0.1452637-1.5684814
			C34.7123451,17.4708576,34.8859291,17.6930866,35.0289955,17.9145222z M35.6900063,19.06534l-0.1737061,1.4069824
			c-0.1534424-0.2329712-0.3094482-0.4744263-0.4611816-0.7022095l0.180542-1.5341187
			C35.4066811,18.5129719,35.5392494,18.7889729,35.6900063,19.06534z M34.1077309,16.1799641
			c-0.2385254-0.3047495-0.4768066-0.5983896-0.7119141-0.8713999l3.6282959,0.6552734
			c0.1112061,0.3360605,0.2017822,0.6594858,0.2623291,0.9640512L34.1077309,16.1799641z M34.3396645,16.9438801
			l-0.1439209,1.5559692c-0.1495361-0.2190552-0.3018799-0.4472046-0.449707-0.661499l0.0583496-1.6433105
			c0.008667,0.0107422,0.0172119,0.0202637,0.0258789,0.0313721C34.0195961,16.4656696,34.1653481,16.7046223,34.3396645,16.9438801
			z M33.5712318,15.9118967l-0.0570068,1.5954599c-0.2070312-0.2979736-0.4121094-0.5904541-0.6157227-0.8787842v-1.5041513
			C33.1189613,15.3712473,33.3430824,15.6339426,33.5712318,15.9118967z M33.1355629,15.0156565
			c-0.317627-0.3567505-0.6268311-0.6881104-0.9138184-0.9779663l4.3481445,0.7545166
			c0.1358643,0.3110962,0.2561035,0.6134033,0.3618164,0.9081421L33.1355629,15.0156565z M32.6555824,14.8509836v1.4309702
			c-0.4343262-0.6107187-0.8603497-1.197999-1.2785625-1.7645273v-0.9577026
			C31.7473812,13.907136,32.1806068,14.3341379,32.6555824,14.8509836z M31.9197445,13.7398386
			c-0.3156738-0.3081055-0.5938721-0.5654907-0.8249512-0.7706299l4.8560772,0.5230103
			c0.1817627,0.3502808,0.3492432,0.6948853,0.5037842,1.0339355L31.9197445,13.7398386z M30.1587582,12.4560862
			c0.0612793,0.06073,0.1113281,0.1339722,0.1785889,0.1877441c0.1112061,0.0892944,0.3989258,0.3253784,0.7967529,0.6884766
			v0.8607178c-0.3479004-0.4678345-0.6903076-0.921814-1.0264893-1.3599243L30.1587582,12.4560862z M31.1901302,14.6739817
			c0.4116211,0.5577393,0.8301983,1.1343384,1.2574444,1.7349863h-5.1982403
			c-0.8818359-0.522645-1.7316895-1.0056162-2.5266113-1.4412851L31.1901302,14.6739817z M32.6187172,16.6534138
			c0.2529297,0.3575439,0.508667,0.7224121,0.7669678,1.0952148h-3.9595928
			c-0.5899658-0.3775635-1.1794434-0.7452393-1.7623291-1.0952148H32.6187172z M33.5569496,17.9931355
			c0.1618652,0.2349243,0.3288574,0.4844971,0.4926758,0.7254028h-3.1571026
			c-0.3612061-0.2460327-0.7232666-0.4873047-1.0897217-0.7254028H33.5569496z M34.215519,18.9629841
			c0.1612549,0.2376709,0.3201904,0.468811,0.4832764,0.7127075h-2.3447266v0.0785522
			c-0.3629131-0.2670898-0.7302227-0.5305786-1.1061993-0.7912598H34.215519z M34.8622475,19.9201374
			c0.1656494,0.2487793,0.3356934,0.5119019,0.5032959,0.7666626h-1.7956543
			c-0.3222656-0.2575684-0.6507568-0.5128784-0.9907227-0.7666626H34.8622475z M35.5261879,20.9312458
			c0.1563721,0.2388916,0.3099365,0.468689,0.4680176,0.7128906l-1.2055664,0.0706787
			c-0.2937012-0.262146-0.595459-0.5232544-0.9133301-0.7835693H35.5261879z M30.0549984,4.7179275
			c0.1395264,0.1750488,0.3959961,0.5013428,0.7189941,0.9223633l-0.414917,3.337585
			c-0.5826416,0.2047729-1.1107178,0.4901123-1.1107178,1.0103149c0,0.907959,0.2487793,1.6777954,0.6954346,2.2421265
			l-0.0450439,0.3331299c-0.3544922-0.4589233-0.7022705-0.9016113-1.043457-1.3280029l0.3017578-5.3608394
			C29.5672054,5.3357863,29.8908138,4.9239821,30.0549984,4.7179275z M23.6049252,14.6406565
			c3.4517822,1.8370371,8.6031475,4.8701181,11.7084942,7.8914194c-0.8248291-0.4650879-2.2150879-1.1531982-4.1102276-1.7357178
			c-1.8598633-0.5726318-4.4576416-1.1055908-7.6276855-1.1085815l-0.003418-0.0025635l-0.0019531,0.0027466
			c-0.1933594-0.0001831-0.3950195,0.0075684-0.5947266,0.0136719c-0.1618652-0.6047363-0.2563477-1.2368164-0.2563477-1.8919067
			C22.7190609,16.9428425,23.0689144,15.8368235,23.6049252,14.6406565z"/>
		<path fill="#5C6A6B" d="M47.9348793,15.5758371c-1.3964844-0.3110352-2.2099609,2.9414072-2.3544922,3.5966806
			c-0.2193604,0.9918213-0.5827637,2.6517944-0.8144531,3.7115479c-0.2116699-2.0532837-0.6785889-6.6213379-0.7451172-7.5616465
			c-0.0820312-1.1821289-0.2607422-1.7866211-0.5947266-2.0219727c-0.1533203-0.1064453-0.3291016-0.1333008-0.5253906-0.0771484
			c-0.545166,0.1546021-1.2319336,1.2680054-1.4450684,2.5961914c-0.1357422-0.3218384-0.3302002-0.5739136-0.6154785-0.5600586
			c-0.3964844,0.0224609-1.2109375,0.9042978-1.2871094,2.4404306c-0.0292969,0.559082-0.0351562,1.1420898-0.0400391,1.706543
			c-0.0061035,0.5454102-0.0134277,1.0574341-0.0378418,1.5333862c-0.0913086-0.0664673-0.1949463-0.1150513-0.3195801-0.1222534
			c-0.1455078-0.0073242-0.2490234,0.0473633-0.3662109,0.1591797c-0.5273438,0.5043945-0.9453125,2.2011719-0.9365234,2.8535156
			c0.0097656,0.7060547-0.2099609,2.4355469-0.4003906,3.7011719c-0.0527344,0.3535156-0.1191406,0.8759766-0.1933594,1.4609375
			c-0.1611328,1.2763672-0.3623047,2.8652344-0.5429688,3.6171856c-0.0001221,0.0004883,0.0002441,0.0007935,0.0002441,0.0012817
			c-1.0172119,0.9736328-2.0874023,1.9399414-3.0861816,2.822937c-1.9538555,1.7279053-2.827879,2.651123-3.5754375,4.5804443
			c-0.748291-1.9299927-1.6225586-2.8530884-3.5759277-4.5804443c-0.9987793-0.8833618-2.0688477-1.8499146-3.0859375-2.8236694
			c-0.0001221-0.0001831,0-0.0003662,0-0.0005493c-0.1787109-0.7470684-0.3789062-2.3251934-0.5400391-3.5937481
			c-0.0751953-0.5947266-0.1425781-1.1259766-0.1962891-1.484375c-0.1904297-1.2626953-0.4091797-2.9902344-0.3994141-3.7011719
			c0.0078125-0.6542969-0.4111328-2.3510742-0.9375-2.8540039c-0.1162109-0.1123047-0.2197266-0.1733398-0.3652344-0.1586914
			c-0.1246338,0.0072021-0.2285156,0.0557251-0.3197021,0.1222534c-0.0245361-0.4788818-0.0325928-0.9938965-0.0377197-1.5431519
			c-0.0058594-0.5610352-0.0117188-1.1411133-0.0400391-1.6967773c-0.0771484-1.5361328-0.8916016-2.4179697-1.2880859-2.4404306
			c-0.2883301-0.0151367-0.4829102,0.2254639-0.6176758,0.5377808c-0.2167969-1.3183594-0.8997803-2.4197998-1.4418945-2.5739136
			c-0.1962891-0.0561523-0.3730469-0.0292969-0.5253906,0.0766602c-0.3339844,0.2353516-0.5126953,0.8398438-0.5957031,2.0224609
			c-0.0657959,0.9402475-0.5332031,5.5076303-0.744873,7.5611582c-0.2315674-1.0598145-0.5947266-2.7193604-0.8146973-3.7110596
			c-0.1455078-0.6538086-0.9394531-3.9082041-2.3544922-3.5966806c-0.5449219,0.1186523-0.5410156,1.645997-0.34375,4.4238291
			c0.0175781,0.2558594,0.0332031,0.4731445,0.0419922,0.6318359l0.0078125,0.152832
			c0.0634766,1.2373047,0.234375,4.5244141,0.5019531,5.4306641c0.4228516,1.4257812,0.8994141,3.5644531,1.1572266,5.2001953
			c0.25,1.5820293,0.6660156,3.2021465,2.9892578,5.60742c1.5273438,1.5820312,2.5625,3.1494141,3.6582031,4.8095703
			c0.4755859,0.7197266,0.9667969,1.4648438,1.5068359,2.2197266c1.2089844,1.6894531,0.1533203,4.1806641,0.1416016,4.2080078
			l-2.2744141,5.5166016c-0.0341797,0.0839844,0.0048828,0.1787109,0.0878906,0.2128906
			c0.0205078,0.0087891,0.0419922,0.0126953,0.0625,0.0126953c0.0634766,0,0.125-0.0380859,0.1503906-0.1005859l2.2734375-5.5146484
			c0.046875-0.1083984,1.140625-2.6835938-0.1757812-4.5244141c-0.5371094-0.75-1.0273438-1.4921875-1.5009766-2.2099609
			c-1.1044922-1.6728516-2.1474609-3.2529297-3.6953125-4.8564453c-2.2578125-2.3369141-2.6611328-3.9023438-2.9013672-5.4316387
			c-0.2607422-1.6484375-0.7412109-3.8037109-1.1669922-5.2412109c-0.2568359-0.8701172-0.4257812-4.1289062-0.4892578-5.355957
			L12.1966,20.6144123c-0.0078125-0.1601562-0.0234375-0.3798828-0.0419922-0.6376953
			c-0.1845703-2.6010742-0.1542969-3.9746094,0.0878906-4.0825205c0.8125-0.1801758,1.5839844,1.6118174,1.9677734,3.3486338
			c0.286499,1.291626,0.8156738,3.7149048,0.9799805,4.4682617c-0.2955322-0.0247803-0.5712891,0.0385132-0.8227539,0.1884766
			c-0.3173828,0.1904297-0.5068359,0.4697266-0.5644531,0.8320312c-0.2148438,1.3603516,1.5839844,3.4394531,1.6015625,3.4609375
			c0.9042969,1.0361328,2.2890625,3.6201172,4.0039062,7.4736309c0.0361328,0.0820312,0.1328125,0.1191406,0.2148438,0.0820312
			c0.0820312-0.0361328,0.1191406-0.1328125,0.0820312-0.2148438c-1.2041016-2.7070312-2.8857422-6.2158184-4.0546875-7.5556622
			c-0.4785156-0.5478516-1.6845703-2.1894531-1.5263672-3.1953125c0.0419922-0.265625,0.1767578-0.4628906,0.4111328-0.6035156
			c0.2587891-0.1542969,0.5410156-0.1894531,0.8681641-0.1005859c1.1982422,0.3222656,2.6064453,2.2080078,3.5244141,3.8662109
			c1.2011719,2.1660156,4.5517578,5.2705059,7.3359375,7.7333965c2.0158691,1.7823486,2.8560791,2.6859741,3.6179199,4.8057861
			c-0.2307129,0.6593018-0.4561768,1.4262085-0.7058105,2.3699951c-1.1044922,4.171875,0.5292969,7.1953125,0.5898438,7.2998047
			l0.1154785,0.3083496l-1.9221191,5.130127c-0.03125,0.0839844,0.0107422,0.1777344,0.0957031,0.2089844
			c0.0185547,0.0068359,0.0380859,0.0107422,0.0566406,0.0107422c0.0654297,0,0.1279297-0.0410156,0.1523438-0.1064453
			l1.7902832-4.7816162l1.7429199,4.6536865c0.0244141,0.0654297,0.0869141,0.1064453,0.1523438,0.1064453
			c0.0185547,0,0.0380859-0.0039062,0.0566387-0.0107422c0.0849609-0.03125,0.1269531-0.125,0.0957031-0.2089844
			l-1.8746319-5.0022583l0.1070557-0.2858276c0.0703125-0.1269531,1.7031231-3.1503906,0.5996094-7.3222656
			c-0.2497559-0.9437256-0.4754639-1.7105713-0.7061768-2.369873c0.7611084-2.1188354,1.6009521-3.0222168,3.6173077-4.8059082
			c2.7841797-2.4619141,6.1347656-5.5654278,7.3359375-7.7333965c0.9189453-1.6582031,2.328125-3.5449219,3.5253906-3.8662109
			c0.328125-0.0888672,0.609375-0.0537109,0.8671875,0.1005859c0.234375,0.140625,0.3691406,0.3378906,0.4111328,0.6035156
			c0.1582031,1.0058594-1.0478516,2.6474609-1.5263672,3.1953125c-1.1699219,1.3417969-2.8505859,4.8496075-4.0537109,7.5556622
			c-0.0371094,0.0820312,0,0.1787109,0.0820312,0.2148438c0.0791016,0.0371094,0.1777344,0,0.2148438-0.0820312
			c1.7128906-3.8515606,3.0976562-6.4365215,4.0029297-7.4736309c0.0175781-0.0214844,1.8164062-2.1005859,1.6015625-3.4609375
			c-0.0576172-0.3623047-0.2470703-0.6416016-0.5644531-0.8320312c-0.2519531-0.1505737-0.5280762-0.2136841-0.8225098-0.1888428
			c0.1646729-0.7537842,0.6940918-3.1766357,0.9797363-4.4678955c0.3847656-1.7348633,1.1728516-3.5146494,1.9658203-3.349122
			c0.2441406,0.1083994,0.2744141,1.4829111,0.0908203,4.0854502c-0.0185547,0.2568359-0.0341797,0.4755859-0.0419922,0.6352539
			l-0.0107422,0.2011719c-0.0644531,1.2167969-0.2333984,4.4492188-0.4882812,5.3076172
			c-0.4267578,1.4404297-0.90625,3.5957031-1.1660156,5.2412109c-0.2412109,1.529295-0.6455078,3.0957012-2.9013672,5.4316387
			c-1.5478516,1.6044922-2.5917969,3.1855469-3.6972656,4.8583984c-0.4736328,0.7167969-0.9638672,1.4580078-1.5,2.2080078
			c-1.3164062,1.8408203-0.2216797,4.4160156-0.1757812,4.5214844l2.0087891,4.875
			c0.0253906,0.0634766,0.0869141,0.1015625,0.1503906,0.1015625c0.0205078,0,0.0419922-0.0039062,0.0615234-0.0126953
			c0.0839844-0.0341797,0.1230469-0.1289062,0.0888672-0.2119141l-2.0097656-4.8779297
			c-0.0107422-0.0253906-1.0673828-2.5166016,0.1416016-4.2060547c0.5390625-0.7548828,1.0302734-1.4980469,1.5058594-2.2177734
			c1.0966797-1.6611328,2.1328125-3.2294922,3.6601562-4.8115234c2.3212891-2.4042969,2.7382812-4.0244141,2.9892578-5.60742
			c0.2568359-1.6328125,0.7324219-3.7714844,1.15625-5.2001953c0.265625-0.8945312,0.4296875-4.0395508,0.5009766-5.3823242
			l0.0097656-0.2006836c0.0087891-0.1586914,0.0244141-0.375,0.0419922-0.6298828
			C48.4768715,17.2228107,48.4798012,15.6944895,47.9348793,15.5758371z M15.5758724,23.8020954
			c0.0987549-0.9508667,0.7575684-7.3228149,0.8365479-8.4572153c0.0273438-0.3789062,0.1083984-1.5322266,0.4589844-1.7783203
			c0.0419922-0.0302734,0.1152344-0.0688477,0.2490234-0.0297852c0.5263672,0.1494141,1.4365234,1.8935547,1.2490234,3.5639658
			c-0.1668701,1.4888306,0.1203613,7.6629639,0.2193604,9.6512451
			C17.8704281,25.6430378,16.7315121,24.1707478,15.5758724,23.8020954z M19.2132015,27.7862873
			c-0.0656738-0.1187134-0.1606445-0.28302-0.2705078-0.4673462c-0.0212402-0.4172363-0.4383545-8.5015869-0.2490234-10.1820679
			c0.0002441-0.0026855,0-0.0053711,0.0002441-0.0080566c0.0522461-0.65271,0.2716064-1.5446787,0.5495605-1.5446787
			c0.0019531,0,0.0048828,0.0004883,0.0078125,0.0004883c0.1728516,0.0097656,0.9091797,0.7192392,0.9814453,2.1318369
			c0.0273438,0.5488281,0.0332031,1.1254883,0.0380859,1.6835938c0.0068359,0.6210938,0.0126953,1.2080078,0.046875,1.7426758
			c0.0065918,0.1030884,0.0166016,0.2947998,0.0283203,0.5289917c0.0009766,0.0300903,0.0014648,0.0441895,0.0031738,0.0640259
			c0.0900879,1.80896,0.300293,6.6529541,0.3620605,8.0878906C20.0814877,29.0921955,19.5518246,28.3973103,19.2132015,27.7862873z
			 M21.0547543,30.2147541c-0.0048828-0.105835-0.2722168-6.3106689-0.3792725-8.4643555
			c-0.0001221-0.0007935,0.0007324-0.0014038,0.0006104-0.0021973c-0.0024414-0.019165-0.0039062-0.0498047-0.0048828-0.0812988
			c-0.0002441-0.0073242-0.0007324-0.0134277-0.0009766-0.0206299c-0.0012207-0.1245728,0.0172119-0.3060913,0.1054688-0.4122314
			c0.046875-0.0571289,0.1103516-0.0864258,0.1982422-0.0913086c0.0439453,0.0112305,0.0732422,0.0234375,0.1210938,0.0693359
			c0.4179688,0.3984375,0.8447266,1.9873047,0.8359375,2.6142578c-0.0117188,0.9414062,0.3339844,3.2919922,0.4033203,3.7539062
			c0.0537109,0.3564453,0.1210938,0.8847656,0.1962891,1.4765625c0.1328125,1.0527344,0.2937012,2.3104858,0.4483643,3.1503277
			C22.2866879,31.5321369,21.6355648,30.8623371,21.0547543,30.2147541z M30.6194515,42.9376526
			c1.0196533,3.8549194-0.4080811,6.7672729-0.5635986,7.0704956c-0.0628662-0.1165771-1.6185303-3.092041-0.5653076-7.0704956
			c0.1987305-0.7509766,0.3815918-1.3898926,0.564209-1.9499512C30.2376156,41.547821,30.420599,42.1867371,30.6194515,42.9376526z
			 M37.1303139,32.2078552c0.1563721-0.845335,0.3181152-2.1137676,0.4520264-3.1744976
			c0.0742188-0.5820312,0.1396484-1.1015625,0.1923828-1.453125c0.0693359-0.4628906,0.4160156-2.8183594,0.4042969-3.7539062
			c-0.0087891-0.6269531,0.4169922-2.2138672,0.8349609-2.6142578c0.0488281-0.0458984,0.1083984-0.0576172,0.1220703-0.0693359
			c0.0878906,0.0048828,0.1513672,0.0341797,0.1982422,0.0913086c0.0877686,0.1055298,0.1064453,0.2851562,0.1054688,0.409668
			c-0.0009766,0.019104-0.0019531,0.0352173-0.0029297,0.0550537c-0.0010986,0.0166016-0.0014648,0.0377808-0.0029297,0.0494385
			c0,0.0004883,0.0004883,0.0007935,0.0003662,0.0012817c-0.1075439,2.1525879-0.3741455,8.3588867-0.3790283,8.46521
			C38.4744301,30.8625813,37.8229408,31.5326862,37.1303139,32.2078552z M41.1662025,27.3196125
			c-0.1097412,0.184082-0.2047119,0.3481445-0.2703857,0.4666748c-0.338501,0.6112671-0.8676758,1.3060303-1.4971924,2.0372925
			c0.0614014-1.4321289,0.2706299-6.2612305,0.3613281-8.0783081c0.0020752-0.0214844,0.0029297-0.0406494,0.0040283-0.0773315
			c0.0117188-0.2322998,0.0217285-0.4227295,0.0283203-0.5252075c0.0341797-0.5317383,0.0400391-1.1152344,0.0458984-1.7329102
			c0.0058594-0.5610352,0.0117188-1.1411133,0.0390625-1.6933594c0.0712891-1.4125977,0.8076172-2.1220713,0.9804688-2.1318369
			c0.0029297,0,0.0058594-0.0004883,0.0078125-0.0004883c0.2780762,0,0.496582,0.8922739,0.5495605,1.5454111
			c0.0002441,0.0024414,0,0.0048828,0.0002441,0.0073242C41.6048012,18.8180866,41.1870766,26.9086018,41.1662025,27.3196125z
			 M41.5200844,26.7531452c0.0991211-1.9870605,0.3863525-8.1633301,0.2194824-9.6524048
			c-0.1875-1.6708994,0.7226562-3.4145517,1.2490234-3.5639658c0.1318359-0.0375977,0.2070312-0.0009766,0.25,0.0297852
			c0.3505859,0.246582,0.4316406,1.3994141,0.4580078,1.7783203c0.079834,1.1344614,0.7380371,7.5077524,0.8366699,8.4576426
			C43.3781166,24.171236,42.2388344,25.6441975,41.5200844,26.7531452z"/>
	</g>
</g>
<g id="Calque_2">
</g>
</svg>
