<?xml version="1.0" encoding="utf-8"?>
<!-- Generator: Adobe Illustrator 25.4.1, SVG Export Plug-In . SVG Version: 6.00 Build 0)  -->
<svg version="1.1" xmlns="http://www.w3.org/2000/svg" xmlns:xlink="http://www.w3.org/1999/xlink" x="0px" y="0px"
	 viewBox="0 0 60.109684 60.109684" enable-background="new 0 0 60.109684 60.109684" xml:space="preserve">
<g id="Bleu_traces">
	<g>
		<path fill="#5C6A6B" d="M55.483551,31.6711769H35.4898987c0.0615234-0.0913086,0.1270752-0.1876831,0.1831055-0.2714844
			l0.1708984-0.2568359c0.1142578-0.1689453,0.2119141-0.3085938,0.2939453-0.4082031l0.0615234-0.0751953
			c0.4892578-0.5878906,1.9755859-2.3769531,2.9248047-5.0136719c0.7988281-2.2207031,0.8486328-2.5341797,0.9375-3.1054688
			c0.0214844-0.1347656,0.0449219-0.2841797,0.0820312-0.4794922c0.1972656-1.0400391,0.8544922-3.4130859,1.4599609-4.4384766
			c0.4316406-0.7324219,0.7216797-1.4970703,0.9335938-2.0556641c0.0976562-0.2558594,0.1816406-0.4765625,0.2490234-0.6123047
			c0.0566406-0.1123047,0.1679688-0.3271484,0.3066406-0.59375c0.4121094-0.7900391,1.0332031-1.984375,1.1787109-2.3798828
			c0.0068359-0.0175781,0.6386719-1.7607422,0.2851562-1.9960938c-0.0556641-0.0361328-0.1748047-0.0771484-0.3291016,0.0673828
			c-0.1855469,0.1738281-0.4082031,0.4658203-0.6425781,0.7753906c-0.2998047,0.3945312-0.6386719,0.8408203-0.9365234,1.0791016
			c-0.3964844,0.3173828-0.7216797,0.4716797-0.9589844,0.5849609c-0.0849609,0.0400391-0.1591797,0.0761719-0.2236328,0.1113281
			L41.381012,12.648716c-0.2880859,0.1484375-0.8232422,0.4267578-0.7646484,1.0712891
			c0.0126953,0.1357422,0.0273438,0.2646484,0.0419922,0.3876953c0.0488281,0.421875,0.0878906,0.7548828-0.0087891,1.0849609
			c-0.0947266,0.3203125-1.2412109,1.5986328-1.7304688,2.1445312c-0.1855469,0.2070312-0.3251953,0.3632812-0.3769531,0.4287109
			c-0.2285156,0.2861328-1.4267578,2.0732422-1.6230469,3.6699219c-0.1835938,1.4951172-1.0537109,2.6201172-1.0654297,2.6337891
			c-0.0195312,0.0263672-1.984375,2.6464844-3.5292969,3.84375c-0.2763672-0.0351562-1.2607403-0.0732422-1.9492168,0.8691406
			c-0.4130859,0.5664062-0.4580078,1.0341797-0.5009766,1.4853516c-0.0390625,0.3984375-0.0751953,0.7734375-0.3564453,1.2382812
			c-0.036499,0.0603027-0.0794678,0.1098633-0.1191406,0.1650391h-0.6923828c-0.4726562,0-0.6220703-0.4130859-0.6640625-0.5908203
			c-0.0361328-0.1552734,0.2802734-0.5957031,0.4316406-0.8066406c0.1650391-0.2294922,0.2382812-0.3349609,0.25-0.4296875
			c0.0166016-0.1337891-0.0341797-0.4130859-0.2412109-0.5976562c-0.1210938-0.1083984-0.3359375-0.21875-0.6777344-0.1357422
			c-0.6171875,0.1484375-0.6884766,0.8066406-0.7236328,1.1220703c-0.0048828,0.046875-0.0087891,0.0859375-0.0136719,0.1132812
			c-0.0332031,0.1640625-0.1660156,0.4296875-0.3964844,0.4912109c-0.2490234,0.0673828-0.6376953-0.015625-0.9492188-0.3447266
			c-0.2988281-0.3173828-0.3642578-0.8876953-0.421875-1.390625l-0.0058594-0.0576172
			c-0.0322266-0.2783203-0.1875-0.5107422-0.4365234-0.6542969c-0.2470703-0.1416016-0.5517578-0.1679688-0.7773438-0.0722656
			c-0.3623047,0.1591797-0.6005859,0.3671875-0.6708984,0.9091797c-0.0634766,0.4892578,0.3154297,1.0234375,0.5419922,1.3427734
			l0.1162109,0.1650391c0.1640625,0.2333984,0.3056641,0.4355469,0.3056641,0.7734375
			c0,0.0498047-0.0175781,0.0712891-0.0361328,0.0878906c-0.0986328,0.0859375-0.3710938,0.0888672-0.5537109,0.0605469H4.6261306
			v0.3261719l19.1318359-0.0019531c0.0224609,0.0029297,0.1181641,0.0166016,0.2402344,0.0166016
			c0.1748047,0,0.4023438-0.0273438,0.5507812-0.1533203c0.0976562-0.0849609,0.1503906-0.2001953,0.1503906-0.3359375
			c0-0.4404297-0.1943359-0.7167969-0.3662109-0.9609375l-0.1162109-0.1660156
			c-0.1865234-0.2617188-0.5322266-0.7490234-0.4853516-1.1113281c0.0527344-0.4023438,0.1904297-0.5263672,0.4794922-0.6533203
			c0.1279297-0.0556641,0.3271484-0.0332031,0.484375,0.0556641c0.1113281,0.0644531,0.2490234,0.1875,0.2744141,0.4091797
			l0.0068359,0.0576172c0.0634766,0.5527344,0.1347656,1.1796875,0.5087891,1.5761719
			c0.4316406,0.4570312,0.9541016,0.5224609,1.2695312,0.4365234c0.4023438-0.1074219,0.5859375-0.5166016,0.6308594-0.7412109
			c0.0078125-0.0351562,0.0126953-0.0839844,0.0195312-0.1425781c0.0390625-0.3603516,0.1123047-0.7529297,0.4755859-0.8408203
			c0.1650391-0.0380859,0.2939453-0.0185547,0.3847656,0.0615234c0.1123047,0.0996094,0.1416016,0.2636719,0.1376953,0.3027344
			c-0.0146484,0.0419922-0.1142578,0.1806641-0.1933594,0.2919922c-0.3144531,0.4375-0.5498047,0.7939453-0.484375,1.0722656
			c0.125,0.5263672,0.4912109,0.8417969,0.9804688,0.8417969h0.4157715
			c-0.6185303,0.6115112-1.4609375,0.8240967-2.2321777,0.9658203c-0.2558594,0.0478516-0.5839844,0.0859375-0.9316406,0.1269531
			c-1.1025391,0.1308594-2.4755859,0.2929688-3.4003906,0.8818359c-0.7971191,0.5089722-1.3601074,0.9883423-1.7856445,1.7463989
			c-0.4428711-0.3465576-1.6464844-1.0790405-2.9887695-0.0921021c-0.6835938,0.5019531-1.0195312,1.2382812-0.9443359,2.0742188
			c0.0732422,0.8144531,0.5400391,1.5654297,1.1611328,1.8691406c0.336792,0.1639404,0.5517578,0.321167,0.6923828,0.4558716
			c-0.1466064,0.453064-0.4859619,1.4217529-0.6914062,1.670105c-0.3007812,0.3652344-0.9892578,1.4716797-1.0986328,1.8457031
			c-0.0966797,0.3271484-0.5634766,1.2451172-0.8486328,1.7539062c-0.0742197,0.1318359-0.1455088,0.265625-0.2158213,0.3984375
			c-0.2001953,0.3789062-0.3886719,0.7363281-0.6035156,0.9658203c-0.0742188,0.0791016-0.1748047,0.1728516-0.2900391,0.2802734
			c-0.3730469,0.3457031-0.8828125,0.8193359-1.1748047,1.4023438c-0.3681641,0.7373047-0.5996094,1.3330078-0.6035156,1.3417969
			c-0.0341797,0.0957031-0.0371094,0.2246094,0.0595703,0.3007812c0.0092773,0.0075073,0.0202637,0.0046997,0.0300293,0.0102539
			l-0.095459,0.1645508h0.2822266c0.0185547,0,0.4658203-0.0058594,0.8935547-0.5253906
			c0.4140625-0.5048828,0.9482422-0.9863281,1.1894531-1.0732422c0.3466797-0.1259766,0.9287119-0.3955078,0.9287119-0.7832031
			c0-0.2597656,0-0.3300781,0.2636719-0.5273438c0.3408203-0.2558594,3.6142578-3.9335938,4.1816406-5.0117188
			c0.1611328-0.3056641,0.3242188-0.6884766,0.4960938-1.0927734c0.3847656-0.9052734,0.8642578-2.03125,1.3710938-2.2587891
			c0.5683594-0.2539062,0.7294922-0.2421875,0.9951172-0.2197266c0.1855469,0.015625,0.4306641,0.015625,0.7519531,0.0634766
			c0.4121094,0.0625,0.9248047,0.1416016,1.5810547-0.0830078c0.4638672-0.1601562,1-0.5849609,1.5673828-1.0341797
			c0.5576172-0.4414062,1.1337891-0.8974609,1.6777344-1.1357422c1.0830078-0.4765625,3.6455059-1.9042969,4.678709-2.9375
			c0.4802246-0.4802246,0.8969727-1.0383911,1.2473145-1.5429688H55.483551V31.6711769z M35.4015198,31.2190285
			c-0.2719727,0.4086304-0.6174316,0.918396-1.0129395,1.4098511l-2.0708008,0.965271
			c-0.6332989-0.199646-1.223875-0.380188-1.7435284-0.5302124l3.9161358-2.1381836
			c0.1348877,0.020813,0.263916,0.0549927,0.4082031,0.0549927c0.2277832,0,0.4719238-0.0357056,0.7230225-0.0880127
			c-0.0162354,0.0238647-0.0303955,0.043457-0.0472412,0.0684814L35.4015198,31.2190285z M28.5792561,32.7868996
			c0.3793945,0.0941162,0.7548828,0.1882324,1.1037598,0.2802124c0.1472168,0.0388794,0.3254395,0.0908813,0.4893799,0.1367188
			l0.9727783,1.9577026c-0.5170898,0.3004761-1.0152588,0.5705566-1.4228516,0.7736816l-1.2601318-3.0886841
			C28.5018635,32.8281593,28.5401936,32.806736,28.5792561,32.7868996z M30.4879475,33.2921486
			c0.5234375,0.1507568,1.1184082,0.3325195,1.7592754,0.5343018l0.2705078,0.4766235
			c-0.3706055,0.2512207-0.7639141,0.4996948-1.1618633,0.7355957L30.4879475,33.2921486z M32.5885315,33.9341774
			c0.1000977,0.0318604,0.2072754,0.0669556,0.3134766,0.1015625c-0.0604248,0.0436401-0.1188965,0.0866089-0.1817627,0.1305542
			L32.5885315,33.9341774z M36.1124573,24.2678566c0.0380859-0.0488281,0.9345703-1.2041016,1.1289062-2.7929688
			c0.1875-1.5205078,1.3369141-3.2324219,1.5546875-3.5058594c0.0507812-0.0634766,0.1865234-0.2138672,0.3652344-0.4140625
			c0.8525391-0.9511719,1.6933594-1.9091797,1.8007812-2.2705078c0.1152344-0.3935547,0.0712891-0.7744141,0.0195312-1.2148438
			c-0.0146484-0.1201172-0.0292969-0.2460938-0.0410156-0.3789062c-0.0361328-0.3945312,0.2587891-0.5820312,0.5898438-0.7539062
			l0.09375-0.0488281c0.0585938-0.0332031,0.1269531-0.0654297,0.2050781-0.1025391
			c0.2519531-0.1201172,0.5966797-0.2841797,1.0224609-0.625c0.3291016-0.2636719,0.6816406-0.7265625,0.9921875-1.1357422
			c0.1738281-0.2294922,0.3408203-0.4492188,0.4960938-0.6181641c-0.0400391,0.3476562-0.2177734,1.0400391-0.3730469,1.4609375
			c-0.1386719,0.3769531-0.7792969,1.6074219-1.1621094,2.3427734c-0.140625,0.2685547-0.2529297,0.4863281-0.3095703,0.5996094
			c-0.0751953,0.1494141-0.1572266,0.3662109-0.2617188,0.6416016c-0.2080078,0.546875-0.4931641,1.296875-0.9111328,2.0048828
			c-0.6542969,1.1103516-1.3095703,3.5458984-1.4990234,4.5439453c-0.0371094,0.1992188-0.0615234,0.3525391-0.0830078,0.4902344
			c-0.0869141,0.5507812-0.1337891,0.8535156-0.9228516,3.0458984c-0.9296875,2.5820312-2.3886719,4.3378906-2.8681641,4.9150391
			L35.921051,30.485508c-0.881958,0.2660522-1.6187744,0.2145996-2.1875-0.1619873
			c-0.9006348-0.5976562-1.1416016-1.8383789-1.1906738-2.1693726
			C34.1183167,26.9250221,36.0326233,24.3745461,36.1124573,24.2678566z M32.0948792,28.2258644
			c0.0537109,0,0.0927734,0.0032959,0.1303711,0.0062866c0.0098877,0.0652466,0.0267334,0.152832,0.0493164,0.257019
			l-0.562254-0.2161865C31.8568439,28.2427101,31.9913654,28.2258644,32.0948792,28.2258644z M31.3509846,28.3931618
			l0.8461895,0.3252563c-0.5126934,0.0770874-1.0195293,0.1412964-1.4663067,0.1605225
			C30.9271564,28.6460304,31.1404133,28.4883766,31.3509846,28.3931618z M30.5405598,29.1360817
			c0.5401611-0.0036621,1.1960449-0.1010132,1.8338604-0.1959839c0.0078125-0.0011597,0.015625-0.0022583,0.0233154-0.003418
			c0.0218506,0.0669556,0.0435791,0.131958,0.0704346,0.2024536l-2.3745098,1.8319092
			c0.0598145-0.2351074,0.0830078-0.4557495,0.1037598-0.671936C30.2337971,29.9209938,30.2816486,29.5575905,30.5405598,29.1360817
			z M29.7970295,31.6741066c0.057373-0.0947876,0.0968018-0.1832275,0.1378174-0.2722778l2.6324444-2.0306396
			c0.2008057,0.4421997,0.5058594,0.9048462,0.9846191,1.2228394c0.1743164,0.1155396,0.3649902,0.196228,0.5635986,0.2600098
			l-3.8764629,2.116272c-0.1656494-0.0464478-0.345459-0.0988159-0.4940186-0.1381226
			c-0.2719727-0.0716553-0.5664062-0.1449585-0.8598633-0.2182007
			C29.231966,32.3885841,29.5460529,32.0883522,29.7970295,31.6741066z M26.0865803,38.2938576
			c-0.0286865-0.1196289-0.0808105-0.2386475-0.1586914-0.3585815l0.0075684-0.0236206l-0.0273438-0.008728
			c-0.1446533-0.2125244-0.3470459-0.4293823-0.5743408-0.6643066c-0.2935791-0.3047485-0.6278076-0.649231-0.8634033-1.0380859
			c-0.1286621-0.2111206-0.284668-0.3931885-0.4385986-0.5739746c-0.010376-0.0357056-0.0211182-0.0701904-0.0321045-0.1051636
			c0.1821289,0.1142578,0.3498535,0.2177124,0.4777832,0.2918091c0.8007812,0.463501,1.6064453,1.0492554,2.3850098,1.6159058
			c0.0914307,0.0665894,0.1777344,0.1280518,0.2651367,0.1905518
			C26.7472248,37.9151955,26.3927326,38.1646461,26.0865803,38.2938576z M23.8672199,35.1515846
			c-0.2059326-0.5123901-0.458374-0.9135742-0.6252441-1.1465454c0.1213379-0.0510864,0.239502-0.1032104,0.3695068-0.1453247
			l0.2608643,1.295166C23.87076,35.1538429,23.8688068,35.1526222,23.8672199,35.1515846z M24.1522541,36.1785011
			c0.036499,0.0497437,0.0778809,0.0961914,0.1101074,0.1489868c0.25,0.4111328,0.5936279,0.7666626,0.8968506,1.0794067
			c0.1226807,0.1269531,0.2340088,0.2463989,0.3365479,0.3623047l-1.328125-0.4300537
			C24.2225666,36.9312477,24.2098713,36.5417824,24.1522541,36.1785011z M24.5996418,35.603672
			c-0.1206055-0.0698242-0.2747803-0.1646729-0.4437256-0.2702637l-0.3095703-1.5391235
			c0.4019775-0.1124878,0.8210449-0.2008667,1.2410889-0.2623901l0.7810059,2.8876953
			C25.4479084,36.1282692,25.0242023,35.8487282,24.5996418,35.603672z M20.2706623,36.9397316
			c-0.0313721,0.1074829-0.0551758,0.222229-0.083252,0.3324585c-0.1018066,0.1021729-0.2106934,0.1906128-0.3203125,0.2774048
			l-0.1193848-0.0508423c-0.2374268-0.5155029-0.498291-1.048645-0.7713623-1.5847778l1.4771729,0.4783936
			C20.3889484,36.561924,20.3281574,36.7437477,20.2706623,36.9397316z M19.5116291,37.7999611
			c-0.3830566,0.2411499-0.7770996,0.4147949-1.1240234,0.5267944l0.4047852-2.2401123
			c0.2612305,0.5154419,0.5109863,1.0279541,0.739502,1.5238037L19.5116291,37.7999611z M20.619051,36.0112038
			c-0.0234375,0.0499878-0.0454102,0.1043091-0.0681152,0.1567383l-1.7358398-0.5620728
			c-0.0141602-0.0273438-0.0292969-0.0543213-0.0441895-0.0813599
			C19.6586018,35.3123512,20.3678303,35.7972145,20.619051,36.0112038z M17.1598225,37.6025734l0.4165039-1.3278809
			c0.1074219-0.1339111,0.2346191-0.2651367,0.4003906-0.3867188c0.1879883-0.1376343,0.3718262-0.234375,0.550415-0.3029785
			c0.0274658,0.0495605,0.0550537,0.098999,0.0811768,0.149231l-0.4820557,2.6673584
			c-0.3157959,0.0852661-0.5689697,0.1291504-0.6864014,0.1443481c-0.1445312-0.2639771-0.2485352-0.5631104-0.2766113-0.8747559
			C17.1612873,37.650425,17.1611652,37.6250343,17.1598225,37.6025734z M17.6446857,38.8443947
			c0.4680176-0.0748901,1.5097656-0.3175659,2.4089355-1.0252075c-0.0549316,0.2555542-0.1071777,0.5161743-0.1599121,0.7855835
			c-0.0900879,0.4603271-0.1882324,0.9219971-0.3026123,1.3720093c-0.0211182,0.0002441-0.0345459-0.0098267-0.0577393-0.0048218
			c-0.0722656,0.0146484-0.1757812,0.0634766-0.2548828,0.2089844c-0.0146484,0.0253906-0.0283203,0.0449219-0.0419922,0.0585938
			c-0.0830078-0.2236328-0.3369141-0.59375-1.09375-0.9628906C17.9549885,39.1850929,17.7914143,39.0265846,17.6446857,38.8443947z
			 M14.0607004,48.4875832c0.265625-0.5302734,0.7509766-0.9804688,1.1044922-1.3095703
			c0.1220703-0.1132812,0.2285156-0.2119141,0.3076172-0.2958984c0.2441406-0.2617188,0.4423828-0.6376953,0.6533213-1.0361328
			c0.0693359-0.1308594,0.1386719-0.2626953,0.2109375-0.3916016c0.2890625-0.515625,0.7675781-1.4492188,0.8779297-1.8212891
			c0.0908203-0.3085938,0.7392578-1.3691406,1.0380859-1.7304688c0.2218018-0.2697754,0.5183105-1.09021,0.6757812-1.555542
			c0.0200195,0.0506592,0.0231934,0.0809326,0.0234375,0.0809326l-0.0068359,0.1328125l0.1279297,0.0332031
			c0.0214844,0.0058594,0.0498047,0.0097656,0.0810547,0.0097656c0.0853271,0,0.1972656-0.0311279,0.2965088-0.1229858
			c-0.1588135,0.5111694-0.3553467,0.9923096-0.6363525,1.3973999l-0.5458984,0.7822266
			c-0.4980469,0.7109375-0.7041016,1.0048828-1.0224609,1.5576172c-0.1005859,0.1738281-0.2294922,0.40625-0.3730469,0.6630859
			c-0.4277344,0.7675781-1.0136728,1.8183594-1.2490244,2.0742188c-0.1152344,0.125-0.2587891,0.2324219-0.4111328,0.3457031
			c-0.2607422,0.1962891-0.5576172,0.4189453-0.8105469,0.7978516c-0.1870117,0.2809448-0.4482422,0.7109985-0.6694336,1.0826416
			C13.8231516,48.9799538,13.9327707,48.7439919,14.0607004,48.4875832z M22.6339436,38.5901222
			c-0.6240234,0.2802734-1.0888672,1.3720703-1.5380859,2.4277344c-0.1689453,0.3984375-0.3291016,0.7753906-0.4833984,1.0683594
			c-0.5341797,1.0136719-3.765625,4.6601562-4.0898438,4.9042969c-0.3759766,0.2802734-0.3945312,0.4726562-0.3945312,0.7871094
			c0,0.1064453-0.2666025,0.3144531-0.7138681,0.4765625c-0.3388672,0.1230469-0.9375,0.6962891-1.3300781,1.1728516
			c-0.0927734,0.1132812-0.1845703,0.1943359-0.2685547,0.2539062c0.2412109-0.4111328,0.6181641-1.0410156,0.8583984-1.4013672
			c0.2216797-0.3330078,0.4824219-0.5283203,0.734375-0.7177734c0.1640625-0.1230469,0.3193359-0.2392578,0.4541016-0.3857422
			c0.2626963-0.2841797,0.8349619-1.3115234,1.2949228-2.1367188c0.1425781-0.2558594,0.2714844-0.4863281,0.3701172-0.6591797
			c0.3125-0.5390625,0.515625-0.8300781,1.0078125-1.5322266l0.546875-0.7841797
			c0.6494141-0.9355469,0.8945312-2.1865234,1.1308594-3.3964844c0.1142578-0.5800781,0.2216797-1.1279297,0.3701172-1.6357422
			c0.4335938-1.4785156,1.0380859-2.0761719,2.1503906-2.7841797c0.0625-0.039917,0.1425781-0.0641479,0.2098389-0.1000366
			c0.3824463,0.5162964,1.487915,2.2672119,0.5960693,4.1858521C23.3194904,38.3370094,23.0834064,38.3892555,22.6339436,38.5901222
			z M24.5636311,38.4094582c-0.2536621-0.0396118-0.4882812-0.0475464-0.6787109-0.0601807
			c0.1108398-0.2595825,0.1939697-0.5159302,0.2443848-0.7666016l1.6224365,0.5253906
			c0.0548096,0.0914307,0.0928955,0.1796265,0.1077881,0.263916C25.3421955,38.5195045,24.9280109,38.4652443,24.5636311,38.4094582
			z M27.4601154,37.3586769c-0.0449219,0.0356445-0.0881348,0.0690308-0.1328125,0.104187
			c-0.105957-0.0754395-0.2108154-0.1495361-0.3220215-0.2305908c-0.270752-0.1968384-0.5480957-0.3932495-0.8243408-0.5892944
			l-0.8509521-3.1451416c0.2270508-0.0303955,0.4541016-0.0593262,0.6662598-0.0844727
			c0.28125-0.0327148,0.5405273-0.065979,0.7728271-0.102417l1.2474365,3.6169434
			C27.8299885,37.068882,27.6439533,37.2133522,27.4601154,37.3586769z M29.2091389,36.1789894
			c-0.3276367,0.144043-0.6584473,0.3585205-0.987793,0.597229l-1.2094727-3.5053101
			c0.4035645-0.0756226,0.8227539-0.173584,1.2253418-0.3312378l1.2653809,3.1013794
			C29.4005451,36.089756,29.2928791,36.1422462,29.2091389,36.1789894z M33.1388245,33.8574562
			c-0.1619873-0.0526733-0.326416-0.1065674-0.4797363-0.1553955l1.3415527-0.6254272
			c-0.0710449,0.0776367-0.1384277,0.1593018-0.2124023,0.2332153
			C33.6168518,33.4811745,33.3877258,33.6674538,33.1388245,33.8574562z"/>
		<path fill="#5C6A6B" d="M26.4190998,28.6916847l0.1835938-0.1386719c0.8984375-0.6757812,1.0839844-1.4150391,0.8691406-1.8476562
			c-0.1445312-0.2910156-0.4550781-0.4179688-0.7998047-0.3183594c-0.1689453,0.0478516-0.2998047,0.1552734-0.3867188,0.3183594
			c-0.3037109,0.5654297,0.0263672,1.6455078,0.0644531,1.7666016L26.4190998,28.6916847z M26.5724201,26.8586769
			c0.0449219-0.0839844,0.1054688-0.1347656,0.1894531-0.1591797c0.0478516-0.0136719,0.09375-0.0205078,0.1367188-0.0205078
			c0.1259766,0,0.2255859,0.0595703,0.28125,0.171875c0.1152344,0.2304688,0.0390625,0.7451172-0.5839844,1.2890625
			C26.5040607,27.7619972,26.4103107,27.1604347,26.5724201,26.8586769z"/>
	</g>
</g>
<g id="Calque_2">
</g>
</svg>
