<?xml version="1.0" encoding="utf-8"?>
<!-- Generator: Adobe Illustrator 25.4.1, SVG Export Plug-In . SVG Version: 6.00 Build 0)  -->
<svg version="1.1" xmlns="http://www.w3.org/2000/svg" xmlns:xlink="http://www.w3.org/1999/xlink" x="0px" y="0px"
	 viewBox="0 0 60.109684 60.109684" enable-background="new 0 0 60.109684 60.109684" xml:space="preserve">
<g id="Bleu_traces">
	<path fill="#5C6A6B" d="M48.4803429,31.870594c-0.1835938-0.3798828-0.6240234-0.5185547-1.0498047-0.6523438
		c-0.3701172-0.1171875-0.7197266-0.2265625-0.8359375-0.4726562c-0.0722656-0.1513672-0.0576172-0.3564453,0.0449219-0.6259766
		c1.0273438-0.9355469,0.4941406-1.7685547,0.0234375-2.5039062c-0.0634766-0.0986328-0.1269531-0.1982422-0.1875-0.2978516
		c0.1455078-0.4003906,0.1503906-0.7041016,0.015625-0.9277344c-0.2109375-0.3535156-0.7070312-0.4111328-1.1865234-0.4677734
		c-0.1972656-0.0224609-0.3994141-0.046875-0.5742188-0.0908203c0.2822266-0.2998047,0.4277344-0.6240234,0.4326172-0.9648438
		c0.0117188-0.7128906-0.5810547-1.3544922-1.0986328-1.8349609c-0.0292969-0.0263672-0.0712891-0.0351562-0.1044922-0.0380859
		c-0.0390625,0.0019531-0.0751953,0.0185547-0.1005859,0.046875c-0.4560547,0.4970703-1.6132812,0.6416016-2.0976562,0.2607422
		c-0.34375-0.2675781-0.1982422-0.7050781,0.0136719-1.0566406c0.7988281,0.2929688,1.3994141-0.0830078,1.6308594-0.5800781
		c0.2548828-0.5507812,0.1044922-1.3076172-0.6777344-1.6875c-0.0302734-0.0136719-0.0615234-0.0175781-0.0927734-0.0117188
		c-0.5537109,0.1103516-0.7783203-0.1767578-1.0439453-0.5136719c-0.2236328-0.2841797-0.4746094-0.6025391-0.9345703-0.6025391
		c-0.0068359,0-0.0136719,0-0.0195312,0c-0.0126953-0.4951172-0.1533203-0.8847656-0.4199219-1.1611328
		c-0.5371094-0.5556641-1.4667969-0.5605469-2.2871094-0.5644531l-0.3037109-0.0029297
		c-0.0107422-0.0009766-0.0546875,0.0058594-0.078125,0.0214844c-0.0800781,0.0488281-0.1601562,0.1142578-0.2392578,0.1806641
		c-0.1347656,0.1113281-0.2714844,0.2314453-0.3662109,0.2001953c-0.0634766-0.0185547-0.1914062-0.1240234-0.3447266-0.6230469
		c-0.1503906-0.4169922-0.3232422-0.6552734-0.5439453-0.7509766c-0.2636719-0.1142578-0.5263672-0.0009766-0.8027344,0.1210938
		c-0.2373047,0.1035156-0.484375,0.2148438-0.7480469,0.1845703c-0.1894531-0.1220703-0.4365234-0.3779297-0.6972656-0.6464853
		c-0.5478516-0.5664062-1.1572266-1.2138672-1.7167969-1.109375c-0.2285137,0.0410156-0.4179668,0.2060547-0.5634747,0.4892578
		c-0.5566406-0.109375-0.6611328-0.7412109-0.7529297-1.6748047c-0.0673828-0.6835938-0.1367188-1.3916016-0.5859375-1.6933594
		c-0.2568359-0.1728516-0.5976562-0.1923828-1.0517578-0.0585938c-0.3818359,0.1445312-0.5488281,0.1210938-0.6210938,0.0722656
		c-0.1230469-0.0810547-0.1337891-0.3457031-0.1435547-0.6015625c-0.0126953-0.3125-0.0263672-0.6601562-0.234375-0.8837891
		c0.0859375-0.1289062,0.1044922-0.2441406,0.0556641-0.34375c-0.0712891-0.1464844-0.265625-0.2070312-0.5693359-0.1845703
		c-0.2490234,0.0195312-0.7587891,0.1279297-0.9433594,0.3476562c-1.0439453,0.1044922-1.4189453,0.7226562-1.8291016,1.578125
		c-0.0097656,0.0205078-0.0146484,0.0439453-0.0136719,0.0673828c0.0244141,0.8105469-0.4042969,0.8535156-0.9990234,0.9121094
		c-0.5097656,0.0498047-1.1376953,0.1123047-1.3349609,0.8398438c-0.6933594,0.0488281-1.1630859,0.2421875-1.4345703,0.5898438
		c-0.2314453,0.2958984-0.3066406,0.6982422-0.2255859,1.1972656c-0.8349609,0.5742188-1.0351562,1.4580088-1.2304688,2.3144541
		c-0.0976562,0.4306641-0.1992188,0.8759766-0.3808594,1.2744141c-0.2578125,0.1992188-0.3642578,0.1894531-0.4013672,0.1777344
		c-0.1201172-0.0439453-0.1845703-0.3632812-0.2412109-0.6455078c-0.0722656-0.3613281-0.1533203-0.7666016-0.3916016-1.0126953
		c0.0410156-0.5449219-0.1914062-1.0185547-0.6308594-1.2744141c-0.3652344-0.2138681-0.7832031-0.2138681-1.0693359-0.0048828
		c-0.1835938,0.1337891-0.4658203,0.4716797-0.2939453,1.2382812c0.1318359,0.4443359,0.078125,0.5507812,0.0585938,0.5732422
		c-0.0449219,0.0507812-0.2294922,0.0185547-0.3798828-0.0058594c-0.2578125-0.0419922-0.5830078-0.0966797-0.8173828,0.0957031
		c-0.1708984,0.1396484-0.2587891,0.3789062-0.2695312,0.7324219c-0.0009766,0.0166016,0.0019531,0.0341797,0.0078125,0.0507812
		c0.1542969,0.4482422,0.1767578,0.7509766,0.0673828,0.9003906c-0.1367188,0.1865234-0.5205078,0.1728516-0.9375,0.1601562
		c-0.2988281-0.0097656-0.6064453-0.0195312-0.8916016,0.0390625c-0.0654297,0.0136719-0.1132812,0.0693359-0.1152344,0.1367188
		c-0.0087891,0.25-0.0048828,0.5058594,0,0.7636719c0.0068359,0.3671875,0.0136719,0.7470703-0.0224609,1.1103516
		c-0.0097656-0.0009766-0.0195312-0.0009766-0.0292969-0.0009766c-0.6132812,0-1.0185547,0.3164062-1.0986328,0.8681641
		c-0.0976562,0.6777344,0.3681641,1.5742188,1.125,1.8242188c-0.0908203,0.2529297-0.2451172,0.4863281-0.4072266,0.7314453
		c-0.3759766,0.5693359-0.7998047,1.2128906-0.2900391,2.1435547c-0.5,0.4951172-0.7626953,1.6064453-0.6132812,2.6757812
		c0.0234375,0.1074219,0.2470703,1.0537109,0.8310547,1.0947266c0.0625,0.0351562,0.1044922,0.3417969,0.1298828,0.5253906
		c0.0595703,0.4316406,0.1269531,0.9208984,0.4814453,1.0927734c0.234375,0.1152344,0.5400391,0.0595703,0.9316406-0.1689453
		c0.0429688-0.0253906,0.0703125-0.0712891,0.0712891-0.1220703c0.0048828-0.2294922,0.171875-0.4169922,0.4257812-0.4765625
		c0.2744141-0.0605469,0.6835938,0.0292969,0.9316406,0.5029297c0.0185547,0.0361328,0.0527344,0.0634766,0.0927734,0.0732422
		c0.0410156,0.0087891,0.0820312,0.0019531,0.1171875-0.0214844c0.2480469-0.171875,0.4511719-0.2294922,0.6015625-0.171875
		c0.3134766,0.1181641,0.4628906,0.7167969,0.5830078,1.1982422c0.0185547,0.0722656,0.0361328,0.1435547,0.0537109,0.2109375
		c-0.0136719-0.0009766-0.0283203-0.0009766-0.0419922-0.0009766c-0.4794922,0-0.9248047,0.1689453-1.3925781,0.3466797
		c-0.2998047,0.1132812-0.609375,0.2304688-0.9335938,0.3017578c-0.2177734-0.1601562-0.4804688-0.1728516-0.7470703-0.0380859
		c-0.4492188,0.2294922-0.7988281,0.8378906-0.75,1.3027344c0.0341797,0.3144531,0.2333984,0.5361328,0.5625,0.6230469
		c0.0126953,0.0039062,0.0292969,0.0087891,0.0410156,0.0048828c1.0791016-0.0234375,2.890625,0.0986328,3.1835938,0.5585938
		c0.03125,0.0478516,0.0634766,0.1279297-0.0058594,0.2675781c-0.3037109,0.6103516-0.25,1.2119141,0.1318359,1.4960938
		c0.2919922,0.2177734,0.8242188,0.2460938,1.4404297-0.3310547c0.2441406-0.2265625,0.4462891-0.3242188,0.5771484-0.2851562
		c0.2304688,0.0703125,0.3466797,0.5654297,0.4228516,0.8935547c0.0292969,0.1240234,0.0556641,0.2353516,0.0830078,0.3203125
		c0.0390625,0.1162109,0.1113281,0.1601562,0.1660156,0.1757812c0.1552734,0.0449219,0.3007812-0.0693359,0.5048828-0.2294922
		c0.2246094-0.1767578,0.5068359-0.3964844,0.7509766-0.3457031c0.1542969,0.0322266,0.2998047,0.1738281,0.4316406,0.4189453
		c0.0234375,0.0419922,0.0654297,0.0703125,0.1132812,0.0751953c0.3388672,0.0400391,0.5800781-0.0175781,0.7314453-0.1611328
		c0.2119141-0.2021484,0.1933594-0.5205078,0.1767578-0.828125c-0.0166016-0.2871094-0.03125-0.5585938,0.125-0.7128906
		c0.3222656,0.0830078,0.5683594,0.09375,0.7675781,0.0283203c0.1552734,0.109375,0.2919922,0.1923828,0.4296875,0.2607422
		c0.8320312,0.3671875,1.4873047,0.8027344,1.9482422,1.2929688c0.0166016,0.0166016,0.0371094,0.0302734,0.0595703,0.0380859
		c0.6679688,0.2226562,1,0.7617188,0.8867188,1.4648438c-0.0039062,0.2714844,0.0068359,0.8623047,0.0205078,1.6103516
		c0.0322266,1.7666016,0.0810547,4.4355469-0.0273438,5.0595703c-0.2431641,0.8037109-0.8779297,1.3066406-1.6513672,1.3125
		c-0.2841797-0.0058594-0.5205078-0.1982422-0.7714844-0.4023438c-0.3330078-0.2714844-0.7128906-0.5771484-1.2216797-0.4150391
		c-0.46875,0.1074219-0.703125,0.4892578-0.9111328,0.8251953c-0.1865234,0.3027344-0.3632812,0.5878906-0.6679688,0.6621094
		c-0.560791,0.0751953-1.1281738,0.2203369-1.6872559,0.4228516h-4.3469238c-0.0898438,0-0.1630859,0.0732422-0.1630859,0.1630859
		s0.0732422,0.1630859,0.1630859,0.1630859h25.1621075c0.0898438,0,0.1630859-0.0732422,0.1630859-0.1630859
		s-0.0732422-0.1630859-0.1630859-0.1630859h-3.12854c-0.0413818-0.1524048-0.1162109-0.2909546-0.2474365-0.3808594
		c-0.1962891-0.1347656-0.4570312-0.1591797-0.7363281-0.0732422c-0.609375-0.1259766-1.5361328-0.9248047-2.0195312-1.4404297
		c-0.0214844-0.0234375-0.0488281-0.0380859-0.0800781-0.0439453c-0.7783203-0.1396484-0.9912109-0.3837891-1.6396484-1.2832031
		l-0.1347656-7.8554688c0.1376953-0.1201172,0.2929688-0.0712891,0.5839844,0.0546875
		c0.2285156,0.0996094,0.5019531,0.2207031,0.7607422,0.1083984c0.0673828,0.1845703,0.1679688,0.2783203,0.2578125,0.3251953
		c0.4541016,0.6230469,0.9462891,0.8710938,1.3203125,0.6650391c0.4042969-0.2246094,0.4736328-0.9013672,0.171875-1.6533203
		c0.0097656-0.4794922,0.0537109-0.6474609,0.0791016-0.7050781c0.0761719,0.0537109,0.2128906,0.2304688,0.3164062,0.3632812
		c0.28125,0.3623047,0.6289062,0.8095703,1.0458984,0.8291016c0.3222656,0.1269531,0.5683594,0.1455078,0.7490234,0.0527344
		c0.2353516-0.1201172,0.2978516-0.3837891,0.3535156-0.6171875c0.0410156-0.1738281,0.0800781-0.3369141,0.1738281-0.3916016
		c0.0595703-0.0341797,0.1533203-0.0332031,0.2792969,0.0029297c0.0136719,0.0039062,0.03125,0.0058594,0.0439453,0.0058594
		c1.0292969-0.0283203,1.1708984-0.7402344,1.2949219-1.3681641c0.0810547-0.4072266,0.1640625-0.828125,0.4667969-1.1337891
		c0.2978516-0.3505859,0.5947266-0.5146484,0.8925781-0.4775391c0.5693359,0.0634766,1.046875,0.8164062,1.2841797,1.265625
		c0.5117188,0.8701172,1.0410156,0.9560547,1.3935547,0.8710938c0.6689453-0.1582031,1.1699219-1.0263672,1.2167969-1.7373047
		c0.0205078-0.3115234,0.1064453-0.5136719,0.2607422-0.6171875c0.3300781-0.2216797,1.0322266-0.0322266,1.7412109,0.2070312
		c0.3242188,0.1083984,0.6015625,0.0761719,0.8222656-0.0966797c0.5898438-0.4599609,0.5361328-1.8007812,0.5214844-2.0341797
		C48.5877647,32.4252815,48.5994835,32.1176643,48.4803429,31.870594z M48.1987267,32.5972176l-0.8156738-0.2015991
		c0.3372803-0.0718384,0.6246338-0.1370239,0.8690186-0.194519C48.2613487,32.3139534,48.2440147,32.4459114,48.1987267,32.5972176z
		 M47.8514366,33.7903328c0.1000977-0.0890503,0.1936035-0.1610718,0.2885742-0.2363892
		c-0.0267334,0.2730713-0.083252,0.5526733-0.1862793,0.7720337L47.8514366,33.7903328z M46.5956993,34.4832039
		c-0.5919189-0.1598511-1.0550537-0.1934814-1.3684082,0h-1.9468994c0.1679688-0.303894,0.4169922-0.5891113,0.6896973-0.836731
		l3.5244141,0.1932983c-0.2104492,0.1990356-0.4187012,0.4055176-0.6247559,0.6434326H46.5956993z M44.7784386,35.5569954
		l-1.6740723-0.0452881c-0.0085449-0.0758667-0.0062256-0.1563721-0.0168457-0.230835
		c-0.0279541-0.1951904,0.0187988-0.3890991,0.0927734-0.5802612h1.845459
		c-0.1135254,0.1587524-0.1967773,0.3534546-0.215332,0.6309204C44.8055382,35.4047127,44.7945518,35.4803963,44.7784386,35.5569954
		z M44.2064171,33.4440804c0.454834-0.3709717,0.8745117-0.6190796,0.9108887-0.6395874
		c0.1246338-0.0180054,0.2424316-0.0380859,0.3649902-0.057312l2.5632324,0.6040649
		c-0.1159668,0.0942383-0.2254639,0.1771851-0.3449707,0.2838135L44.2064171,33.4440804z M48.2127647,31.9879036
		c-0.2868652,0.0679932-0.6384277,0.1484375-1.0684814,0.2377319l0.4368896-0.6246948
		c0.0811768,0.0197754,0.1413574,0.0373535,0.2160645,0.0563965C47.9833946,31.738575,48.1363487,31.8384895,48.2127647,31.9879036z
		 M47.3553429,31.5465584l-0.5180664,0.7407227c-0.3474121,0.0689697-0.7229004,0.1365967-1.1156006,0.2016602l0.7419434-1.1298218
		C46.7847862,31.4216194,47.0869102,31.4844246,47.3553429,31.5465584z M46.3826866,29.9809456
		c-0.0578613,0.145752-0.079834,0.2714233-0.0966797,0.3945923l-0.1960449-0.68573
		c0.1367188,0.0598755,0.2619629,0.118103,0.3876953,0.1763306c-0.0212402,0.0202637-0.0339355,0.0396729-0.0568848,0.0601196
		C46.404171,29.9418831,46.3914757,29.9604378,46.3826866,29.9809456z M46.266964,31.0972786
		c-0.329834-0.0600586-0.6569824-0.1193237-1.0270996-0.1729736l-1.1192627-1.9733887
		c0.6363525,0.2017212,1.2126465,0.4147339,1.7122803,0.6247559L46.266964,31.0972786z M44.9726524,30.8911018
		c-0.3258057-0.0446167-0.6621094-0.0871582-1.0169678-0.1256104l-1.8049316-2.329895
		c0.6081543,0.130249,1.1705322,0.2724609,1.6679688,0.4215698L44.9726524,30.8911018z M43.6536827,30.72826
		c-0.2940674-0.0292969-0.626709-0.046814-0.9394531-0.0708008l-2.7646484-2.5780029
		c0.6630859,0.0756836,1.2939453,0.168335,1.8708496,0.2827148L43.6536827,30.72826z M42.3721886,30.6325569
		c-0.4348145-0.0297852-0.8754883-0.055542-1.3438721-0.0733643l-3.5008545-2.6375122
		c0.729248,0.0091553,1.4116211,0.0560913,2.0664062,0.1210327L42.3721886,30.6325569z M40.6556358,30.5505257
		c-0.3808594-0.0114746-0.7579346-0.024353-1.1599121-0.0268555l-4.9309082-2.4537354
		c0.9082031-0.0946045,1.7814941-0.145813,2.6054688-0.1472168L40.6556358,30.5505257z M39.0047569,30.5200081
		c-0.418457,0.0015869-0.8713379,0.0211792-1.3111572,0.0336914l-5.7117901-2.0976562
		c0.0068359-0.00177,0.0252666-0.0063477,0.027586-0.007019c0.7392578-0.1500244,1.4506836-0.2564697,2.145874-0.3400879
		L39.0047569,30.5200081z M37.1075401,30.568531c-0.5184326,0.0204468-1.0578613,0.0554199-1.6037598,0.0924683
		l-5.6922588-1.6677246c0.0262451-0.0070801,0.0582275-0.022583,0.0830078-0.0275269
		c0.3282471-0.0654907,1.2000732-0.2841797,1.7161865-0.4151001L37.1075401,30.568531z M34.8875694,30.7068977
		c-0.3996582,0.0310669-0.7767334,0.0477905-1.1901855,0.088562c-0.0063477,0.0003662-0.1625977,0.0092163-0.3896484,0.0254517
		l-4.8786602-1.0437012c0.0227051-0.017334,0.0560303-0.0298462,0.0727539-0.0504761
		c0.1179199-0.1482544,0.5515137-0.4291992,0.958252-0.6097412L34.8875694,30.7068977z M32.5643272,30.8840828
		c-0.3669434,0.0352783-0.7922344,0.0827637-1.2442608,0.1461182l-4.1646729-0.5619507
		c0.215332-0.2774048,0.5673828-0.4051514,0.8649902-0.5029297c0.0354004-0.0116577,0.0606689-0.0229492,0.0935059-0.0338745
		L32.5643272,30.8840828z M30.5717754,31.1484261c-0.5604248,0.0981445-1.118042,0.2200928-1.6033936,0.3741455h-2.510376
		c0.1468506-0.1676636,0.3427734-0.432373,0.5610352-0.854187L30.5717754,31.1484261z M28.3715801,31.7399788
		c-0.3013916,0.1173706-0.6173096,0.2467041-0.9527588,0.3882446c-0.2939453,0.1239014-0.5964355,0.249939-0.8979492,0.3703003
		l-0.8389893-0.2216797c0.1845703-0.1583252,0.3735352-0.3321533,0.569458-0.5340576l0.0026855-0.0028076H28.3715801z
		 M26.1783428,32.6308479c-0.8034668,0.3044434-1.5738525,0.5308838-2.1251221,0.47052
		c0.3946533-0.00177,0.8780518-0.236145,1.4161377-0.6572266L26.1783428,32.6308479z M24.2365704,33.3268929
		c0.5257568,0,1.1755371-0.1888428,1.8483887-0.4345093l-0.7370605,0.7116089
		c-0.0958252-0.0153809-0.1912842-0.0307007-0.2938232-0.0455322c-0.4073486-0.0579224-0.828125-0.1185913-1.0744629-0.2640381
		c-0.0117188-0.006897-0.013916-0.0098877-0.0241699-0.0164185C24.0499249,33.2933846,24.131712,33.3268929,24.2365704,33.3268929z
		 M26.5938702,32.702137c0.3057861-0.1217651,0.6114502-0.2493286,0.9089355-0.3748169
		c0.3338623-0.1403198,0.6477051-0.2689819,0.9462891-0.385437l-2.309082,1.9626465
		c-0.1074219-0.1201782-0.2939453-0.1967773-0.5344238-0.2493896L26.5938702,32.702137z M29.0318584,31.7294197
		c0.5638428-0.1793213,1.2285156-0.3127441,1.8800049-0.416687l-4.3565674,3.4002075
		c-0.1330566-0.1887817-0.2344971-0.4245605-0.3012695-0.6229248L29.0318584,31.7294197z M31.3489971,31.2446175
		c0.6256104-0.0875244,1.1936016-0.1436768,1.624754-0.1795044l-5.0195293,4.3230591
		c-0.1159668-0.2458496-0.4561768-0.3882446-0.9934082-0.3882446c-0.0986328,0-0.1870117-0.0488892-0.2683105-0.1210938
		L31.3489971,31.2446175z M33.3380089,31.0361824c0.2165527-0.0153198,0.3677979-0.0239868,0.3748779-0.0247192
		c0.4766846-0.046936,0.9361572-0.0839844,1.3907471-0.1182251l-6.1586895,5.0430908
		c-0.0561523,0.0211792-0.1191406,0.0490723-0.1523438,0.0490723c-0.2229004,0-0.7177734-0.1292114-0.7668457-0.3734131
		L33.3380089,31.0361824z M35.4794884,30.8644905c0.5976562-0.0415039,1.1715088-0.0704346,1.7299805-0.09198l-6.4354229,5.5492554
		c-0.2773438-0.3422241-0.6380615-0.2789917-0.8640137-0.2276611c-0.0705566,0.0155029-0.1757812,0.0352783-0.2004395,0.0282593
		c0-0.0014648-0.0070801-0.0098877-0.0106201-0.0409546c-0.0126953-0.1171875-0.0592041-0.2005005-0.1368408-0.2456665
		c-0.0400391-0.0241699-0.0898438-0.0126953-0.1359863-0.0148315L35.4794884,30.8644905z M37.5526085,30.7619514
		c0.5539551-0.0178223,1.0881348-0.0270386,1.602417-0.0275269l-6.6165771,5.9480591
		c-0.7259502,0.1062622-1.3496075,0.1027222-1.6164532-0.2029419L37.5526085,30.7619514z M39.4800987,30.733326
		c0.3994141,0.0021362,0.7844238,0.0095825,1.1594238,0.020874l-5.2524414,5.3355103
		c-0.4526367,0.1109619-0.8768311,0.2055664-1.2132568,0.2754517l-0.3614502,0.0762329
		c-0.2895508,0.0612793-0.5876465,0.1237183-0.8793945,0.1768799L39.4800987,30.733326z M40.9356651,30.761219
		c0.5146484,0.0187378,1.0014648,0.0462646,1.4685059,0.0794067l-3.9998779,4.2272339
		c-0.6676025,0.3600464-1.6749268,0.6757812-2.6131592,0.9203491L40.9356651,30.761219z M42.6816368,30.8629036
		c0.3436279,0.0266113,0.6744385,0.0560913,0.991333,0.0892944l-1.6035156,1.9832764
		c-1.22229,0.2639771-1.9970703,0.8287354-2.6248779,1.3482666L42.6816368,30.8629036z M43.928463,30.9795418
		c0.3618164,0.0400391,0.7069092,0.0831299,1.0323486,0.1293335l-1.3146973,1.640564
		c-0.177124,0.0144653-0.3557129,0.0333862-0.5303955,0.0423584c-0.2521973,0.0132446-0.4888916,0.038147-0.7115479,0.0730591
		L43.928463,30.9795418z M45.2106895,31.1426277c0.3681641,0.0548706,0.7032471,0.1132812,1.022583,0.1724243l-0.8018799,1.2210693
		c-0.4857178,0.0756836-0.9841309,0.1409912-1.4882812,0.1896973L45.2106895,31.1426277z M46.0374718,32.656971
		c0.2990723-0.0522461,0.5819092-0.1055298,0.8518066-0.1593628l1.2653809,0.3114014
		c0.0064697,0.0878296,0.0100098,0.2097778,0.0083008,0.3478394L46.0374718,32.656971z M46.5848351,31.1559944
		c-0.0280762-0.0054932-0.0517578-0.0112305-0.0805664-0.0167236l-0.0181885-0.0635986
		C46.5158653,31.1053352,46.5506554,31.1302986,46.5848351,31.1559944z M45.1765099,26.1971321
		c0.0318604,0.0038452,0.0631104,0.0095825,0.0948486,0.0133057c0.4091797,0.0478516,0.8330078,0.0976562,0.9716797,0.328125
		c0.0462646,0.0767822,0.0631104,0.1787109,0.052002,0.303772h-2.5478516
		c-0.3212891-0.2188721-0.6433105-0.4334717-0.9693604-0.6452026H45.1765099z M46.2380333,27.059742
		c-0.019165,0.0731201-0.0244141,0.1347046-0.0574951,0.2190552c-0.0166016,0.0410156-0.0126953,0.0878906,0.0097656,0.1259766
		c0.0568848,0.0968018,0.1185303,0.1928711,0.1798096,0.2888794h-1.322998v0.0698853
		c-0.322876-0.2375488-0.6495361-0.4719238-0.9838867-0.7037964H46.2380333z M46.5064659,27.9110603
		c0.1472168,0.2330322,0.2797852,0.458374,0.3571777,0.6819458h-0.7351074
		c-0.2866211-0.2290649-0.5788574-0.4561768-0.8812256-0.6819458H46.5064659z M46.9200401,28.8104134
		c0.0234375,0.1392822,0.012085,0.2799683-0.0270996,0.4227295c-0.1611328-0.1411133-0.3212891-0.2822876-0.4927979-0.4227295
		H46.9200401z M44.3653526,25.9796638h-1.9226074c-0.5246582-0.3358154-1.0488281-0.6628418-1.5673828-0.9741211h3.9780273
		c-0.0456543,0.2705688-0.2020264,0.5264893-0.4892578,0.7771606c-0.0371094,0.0322266-0.0556641,0.0810547-0.0488281,0.1298828
		C44.3199425,25.9420052,44.3458214,25.9584236,44.3653526,25.9796638z M43.966671,23.3383675
		c0.4013672,0.383667,0.8602295,0.914917,0.8933105,1.449707h-4.3532715
		c-0.7844238-0.4648438-1.5402832-0.8943481-2.2473145-1.2819214l3.1623535-0.1435547
		c0.0511475,0.0682373,0.1074219,0.1252441,0.1611328,0.1671753C42.1512413,23.9760628,43.3612022,23.8627815,43.966671,23.3383675z
		 M41.7762413,21.9321175c-0.0634766-0.0283203-0.1396484-0.0068359-0.1787109,0.0527344
		c-0.3532715,0.5307617-0.3762207,0.9057617-0.2867432,1.1655273l-3.4193115,0.1546021
		c-0.7304688-0.395874-1.3950195-0.7426758-1.9511719-1.0228882l6.9382324-0.5410767
		c0.0201416,0.0261841,0.0407715,0.0539551,0.0615234,0.0814209C42.6878624,22.0566292,42.2828331,22.1562996,41.7762413,21.9321175
		z M35.5653038,22.0953865c-0.6014404-0.2979126-1.0552979-0.5100708-1.2580566-0.5940552
		c-0.270752-0.1118774-0.5146484-0.2354126-0.7424316-0.3621216l8.2028809-0.8156738
		c0.3110352,0.388916,0.6286621,0.7932739,0.9523926,1.2127686L35.5653038,22.0953865z M43.0360069,20.6053963
		c0.1079102,0.1497803,0.1623535,0.3121948,0.1748047,0.4771729c-0.1442871-0.1547241-0.2663574-0.3204956-0.3588867-0.4978638
		L43.0360069,20.6053963z M43.0738487,21.6404305c-0.0083008-0.0109253-0.0168457-0.0222778-0.0249023-0.0328369
		l0.0454102-0.3353271c0.0319824,0.0315552,0.0627441,0.0640259,0.0928955,0.0975342
		c-0.0142822,0.0582886-0.0189209,0.1196289-0.0438232,0.173645C43.1268272,21.5794563,43.095089,21.606739,43.0738487,21.6404305z
		 M42.7723351,20.358448l-0.0061035-0.0006714l-0.0032959,0.0299683c-0.006958-0.0168457-0.0111084-0.0333862-0.0174561-0.0501709
		C42.7552452,20.3441658,42.7628136,20.3517342,42.7723351,20.358448z M42.4831505,20.2584114
		c0.1029053,0.3032837,0.2373047,0.5819702,0.420166,0.8130493l-0.0400391,0.2962646
		c-0.3153076-0.4082031-0.6246338-0.8018799-0.9281006-1.1811523l0.0019531-0.0327148
		C42.0858116,20.2322273,42.2672081,20.2693977,42.4831505,20.2584114z M40.8196983,19.1667976
		c0.2587891,0.3110352,0.5168457,0.6203003,0.7866211,0.9555054l-8.3503418,0.8308716
		c-0.4462891-0.2767334-0.8103027-0.5559082-1.0812988-0.7705078c-0.2097149-0.1665649-0.3614483-0.2866211-0.4722881-0.3359985
		c-0.057251-0.0253906-0.1107178-0.1129761-0.1644287-0.213562l8.7624493-1.0508423
		c0.0217285,0.1343384,0.0518799,0.2600098,0.0471191,0.4221191c-0.0009766,0.0429688,0.0166016,0.0849609,0.0498047,0.1132812
		c0.0322266,0.0273438,0.0742188,0.0419922,0.1191406,0.0332031C40.6342735,19.1307869,40.7313194,19.1415291,40.8196983,19.1667976
		z M36.8592491,17.8002815c0.2421875,0.0732422,0.4501953-0.1015625,0.6347656-0.2548828
		c0.0576172-0.0478516,0.1152344-0.0957031,0.1728516-0.1347656l0.2617188,0.0019531
		c0.5246582,0.0026855,1.0891113,0.0164795,1.5428467,0.1698608c0.2283936,0.2596436,0.4570312,0.5202637,0.694458,0.7987061
		l-8.7353497,1.0472412c-0.1516113-0.3060303-0.3648682-0.6824341-0.8483887-0.7521362
		c-0.2841797-0.0405884-0.3605957-0.2545166-0.4152832-0.590332l6.2320538-0.885376
		C36.5299034,17.5504646,36.6749229,17.7454109,36.8592491,17.8002815z M34.3807335,16.7192268
		c0.0166016,0.0107422,0.0361328,0.0166016,0.0556641,0.0195312c0.3574219,0.0488281,0.6630859-0.0859375,0.9306641-0.2041016
		c0.2275391-0.0976562,0.4238281-0.1845703,0.5732422-0.1191406c0.1386719,0.0595703,0.2685547,0.2548828,0.3837891,0.5751953
		c0.0001221,0.0004272,0.0002441,0.0007324,0.0004883,0.0011597l-6.1950665,0.8803101
		c-0.041626-0.2876587-0.0915527-0.5784912-0.3034668-0.7560425c-0.1672363-0.1427612-0.2058105-0.3306885-0.2109375-0.5272827
		l4.0632305-0.4995117C33.9338341,16.3527718,34.1768761,16.5974617,34.3807335,16.7192268z M31.600462,15.4897337
		c0.0576172-0.0029297,0.1191406-0.0292969,0.1445312-0.0869141c0.109375-0.25,0.2421875-0.3916016,0.3964825-0.4189453
		c0.3725586-0.0658569,0.895752,0.4465942,1.3459473,0.9108887l-3.8698711,0.4759531
		c0.0002441-0.0031738,0-0.0067139,0.0002441-0.0098877c0.0085449-0.2075195,0.0162354-0.4052134-0.0974121-0.5379038
		c-0.0740967-0.0870361-0.0877686-0.3925171-0.0981445-0.6734619l1.3841553-0.1816406
		C30.9642315,15.2529173,31.2042217,15.4568968,31.600462,15.4897337z M29.4978008,12.8100462
		c-0.0045166-0.0079346-0.0010986-0.0229492-0.0045166-0.0321045l0.8648682-0.1259766
		c0.0635986,0.256897,0.0943604,0.5599365,0.1239014,0.8596191l-1.2033691,0.1463013
		c0.03125-0.081543,0.0661621-0.1638184,0.1026611-0.2435913C29.4914532,13.174304,29.5867901,12.9667845,29.4978008,12.8100462z
		 M30.5043926,13.7266722c0.0373535,0.3620605,0.0880127,0.7285767,0.2039795,1.0355835l-1.2998047,0.1704712
		c-0.0148926-0.3208008-0.0402832-0.6347656-0.1606445-0.8237915c-0.0394287-0.0617676-0.0405273-0.1411743-0.0288086-0.2260742
		L30.5043926,13.7266722z M30.282835,12.4439573l-0.7915039,0.1151733c0.012207-0.0540161,0.0227051-0.1090698,0.050293-0.1613159
		c0.0402832-0.0762329,0.1552734-0.2541504,0.3642578-0.272522c0.0493164-0.0039673,0.0947266-0.0197144,0.1374512-0.0441895
		C30.1505108,12.1614256,30.2243633,12.2914305,30.282835,12.4439573z M42.7420616,36.0766487
		c-0.3183594-0.6035156-0.8388672-1.3388672-1.5058594-1.4130859c-0.3955078-0.0410156-0.7802734,0.1513672-1.1367188,0.5703125
		c-0.3564453,0.3583984-0.453125,0.8447266-0.5380859,1.2724609c-0.1269531,0.640625-0.21875,1.1054688-0.9970703,1.1347656
		c-0.1982422-0.0527344-0.3564453-0.0419922-0.4833984,0.03125c-0.2001953,0.1171875-0.2578125,0.3603516-0.3085938,0.5742188
		c-0.0449219,0.1894531-0.0878906,0.3681641-0.2041016,0.4277344c-0.1025391,0.0507812-0.2871094,0.0263672-0.5332031-0.0742188
		c-0.0175781-0.0068359-0.0361328-0.0107422-0.0546875-0.0107422h-0.0009766c0,0-0.0009766,0-0.0019531,0
		c-0.2861328,0-0.6083984-0.4150391-0.84375-0.7177734c-0.2470703-0.3183594-0.4238281-0.5458984-0.6376953-0.4765625
		c-0.1923828,0.0644531-0.2646484,0.3310547-0.2763672,1.0214844c-0.0009766,0.0195312,0.0029297,0.0390625,0.0107422,0.0576172
		c0.2841797,0.6865234,0.1943359,1.1904297-0.0332031,1.3164062c-0.1728516,0.0976562-0.5322266-0.0029297-0.9658203-0.6103516
		c-0.0166016-0.0224609-0.0390625-0.0410156-0.0654297-0.0507812c-0.0820312-0.0322266-0.1435547-0.1494141-0.1748047-0.3320312
		c-0.0087891-0.0527344-0.046875-0.0966797-0.0976562-0.1132812c-0.0517578-0.0166016-0.1074219-0.0039062-0.1455078,0.0332031
		c-0.1640625,0.1591797-0.3466797,0.0878906-0.6337891-0.0361328c-0.2919922-0.1279297-0.6542969-0.2841797-0.9541016,0.0576172
		c-0.0234375,0.0263672-0.0361328,0.0615234-0.0351562,0.0976562l0.1367188,7.9609375
		c0,0.0292969,0.0097656,0.0576172,0.0273438,0.0820312c0.6660156,0.9238281,0.9472656,1.2626953,1.8017578,1.4267578
		c0.4912109,0.5166016,1.4697266,1.3798828,2.1835938,1.5c0.0253906,0.0048828,0.0488281,0.0019531,0.0712891-0.0058594
		c0.2070312-0.0693359,0.3886719-0.0605469,0.515625,0.0253906c0.0517578,0.0354004,0.0880127,0.0866699,0.1157227,0.1425781
		H20.6018047c0.2406006-0.0563354,0.4814453-0.105957,0.7252197-0.1386719
		c0.4345703-0.1044922,0.6513672-0.4550781,0.8603516-0.7939453c0.1953125-0.3164062,0.3798828-0.6152344,0.7402344-0.6992188
		c0.3808594-0.1123047,0.6494141,0.1054688,0.9638672,0.3613281c0.2773438,0.2255859,0.5644531,0.4589844,0.9521484,0.4667969
		c0.9091797-0.0068359,1.6484375-0.5878906,1.9345703-1.5341797c0.1171875-0.6679688,0.0703125-3.2490234,0.0361328-5.1328125
		c-0.0136719-0.7451172-0.0253906-1.3339844-0.0234375-1.5791016c0.1328125-0.8095703-0.2675781-1.4775391-1.046875-1.7529297
		c-0.4921875-0.5146484-1.1523438-0.9511719-2.0126953-1.3310547c-0.1357422-0.0664062-0.2773438-0.1552734-0.4462891-0.2783203
		c-0.0410156-0.03125-0.0966797-0.0361328-0.1455078-0.0146484c-0.1552734,0.0712891-0.3925781,0.0605469-0.7216797-0.0322266
		c-0.0400391-0.0087891-0.0849609-0.0039062-0.1210938,0.0205078c-0.3417969,0.2353516-0.3193359,0.6455078-0.2988281,1.0068359
		c0.0136719,0.2539062,0.0273438,0.4931641-0.0878906,0.6025391c-0.0761719,0.0732422-0.2246094,0.1035156-0.4277344,0.0898438
		c-0.1669922-0.2822266-0.3652344-0.4492188-0.5888672-0.4960938c-0.3789062-0.0791016-0.7314453,0.1982422-0.9892578,0.4013672
		c-0.0732422,0.0576172-0.1679688,0.1318359-0.2255859,0.1630859c-0.0224609-0.0742188-0.0439453-0.1669922-0.0673828-0.2675781
		c-0.1025391-0.4394531-0.2304688-0.9863281-0.6210938-1.1054688c-0.2431641-0.0751953-0.5263672,0.0410156-0.8583984,0.3515625
		c-0.4072266,0.3808594-0.8183594,0.4970703-1.0703125,0.3105469c-0.2138672-0.1601562-0.3203125-0.5839844-0.0449219-1.1357422
		c0.1240234-0.2490234,0.0634766-0.4375-0.0097656-0.5517578c-0.4667969-0.7324219-3.0224609-0.6982422-3.4140625-0.6933594
		c-0.2011719-0.0585938-0.3085938-0.1796875-0.3291016-0.3681641c-0.0371094-0.3466797,0.2519531-0.8398438,0.5927734-1.0146484
		c0.1865234-0.0927734,0.3457031-0.078125,0.4814453,0.0439453c0.0332031,0.03125,0.0791016,0.0429688,0.125,0.0341797
		c0.3720703-0.0742188,0.7148438-0.2041016,1.0458984-0.3291016c0.5146484-0.1962891,1.0009766-0.3818359,1.5087891-0.3134766
		c0.0458984,0.0058594,0.0976562-0.0136719,0.1289062-0.0507812c0.0322266-0.0371094,0.0429688-0.0888672,0.0283203-0.1357422
		c-0.0371094-0.1171875-0.0712891-0.2539062-0.1064453-0.3974609c-0.1435547-0.5751953-0.3066406-1.2275391-0.7617188-1.3984375
		c-0.2148438-0.0820312-0.4609375-0.0400391-0.7373047,0.1210938c-0.3300781-0.5019531-0.8291016-0.5957031-1.1738281-0.5146484
		c-0.3564453,0.0830078-0.6005859,0.3408203-0.6435547,0.6669922c-0.1953125,0.1054688-0.4365234,0.1982422-0.5927734,0.1220703
		c-0.2158203-0.1054688-0.2744141-0.53125-0.3212891-0.8730469c-0.0537109-0.3867188-0.1035156-0.7519531-0.3945312-0.7734375
		c-0.3144531-0.0224609-0.5224609-0.6503906-0.5683594-0.8574219c-0.1416016-1.0136719,0.1230469-2.1035156,0.6025391-2.4824219
		c0.0576172-0.0449219,0.0722656-0.1259766,0.0341797-0.1884766c-0.5078125-0.8310547-0.1689453-1.34375,0.2236328-1.9384766
		c0.1953125-0.2958984,0.3974609-0.6015625,0.4882812-0.9560547c0.0097656-0.0390625,0.0029297-0.0791016-0.0175781-0.1132812
		c-0.0214844-0.0332031-0.0556641-0.0566406-0.0947266-0.0644531c-0.6845703-0.1376953-1.1337891-0.9550781-1.0488281-1.5390625
		c0.0644531-0.4443359,0.4042969-0.6660156,0.9570312-0.6132812c0.0644531-0.0009766,0.1455078-0.0488281,0.15625-0.1259766
		c0.0546875-0.4238281,0.046875-0.8623047,0.0400391-1.2861328c-0.0039062-0.2119141-0.0078125-0.421875-0.0039062-0.6298828
		c0.2236328-0.03125,0.4707031-0.0214844,0.7119141-0.0146484c0.4863281,0.0195312,0.9511719,0.03125,1.1796875-0.2773438
		c0.1708984-0.2333984,0.1660156-0.5957031-0.0185547-1.140625c0.0107422-0.2460938,0.0654297-0.4111328,0.1630859-0.4912109
		c0.1328125-0.1083984,0.3642578-0.0712891,0.5859375-0.0341797c0.2431641,0.0419922,0.4931641,0.0839844,0.6445312-0.0878906
		c0.1337891-0.1503906,0.1337891-0.4042969,0.0048828-0.8369141c-0.0986328-0.4423828-0.0332031-0.7734375,0.1845703-0.9326172
		c0.1943359-0.1396484,0.4902344-0.1328125,0.7519531,0.0214844c0.3564453,0.2080078,0.5371094,0.6054688,0.4833984,1.0644531
		c-0.0058594,0.0478516,0.0126953,0.0957031,0.0507812,0.1269531c0.2041016,0.1728516,0.2822266,0.5605469,0.3515625,0.9023438
		c0.078125,0.3916016,0.1523438,0.7607422,0.4257812,0.8603516c0.1855469,0.0722656,0.4121094-0.0087891,0.7060547-0.2431641
		c0.0175781-0.0136719,0.03125-0.03125,0.0410156-0.0517578c0.2050781-0.4345703,0.3125-0.9072266,0.4160156-1.3652344
		c0.1972656-0.8632812,0.3828125-1.6796875,1.1845703-2.187501c0.0507812-0.03125,0.0761719-0.0917969,0.0644531-0.1503906
		c-0.0898438-0.4570312-0.0390625-0.8134766,0.1533203-1.0595703c0.2304688-0.2949219,0.6650391-0.453125,1.3291016-0.4853516
		c0.0664062-0.0029297,0.1220703-0.0517578,0.1357422-0.1171875c0.1201172-0.6201172,0.5761719-0.6650391,1.1044922-0.7167969
		c0.5693359-0.0566406,1.2773438-0.1259766,1.2607422-1.1738281c0.3935547-0.8173828,0.7099609-1.3183594,1.6464844-1.3896484
		c0.0556641-0.0048828,0.1035156-0.0390625,0.1240234-0.0908203c0.0361328-0.0683594,0.3769531-0.2216797,0.7470703-0.25
		c0.0390625-0.0029297,0.0722656-0.0039062,0.1025391-0.0039062c0.125,0,0.1806641,0.0234375,0.1816406,0.0146484
		c0,0-0.0019531,0.0449219-0.0986328,0.1513672c-0.0292969,0.03125-0.0429688,0.0742188-0.0371094,0.1171875
		c0.0058594,0.0419922,0.0302734,0.0800781,0.0664062,0.1025391c0.1972656,0.125,0.2099609,0.4443359,0.2226562,0.7529297
		c0.0126953,0.328125,0.0263672,0.6679688,0.2734375,0.8320312c0.1904297,0.1259766,0.4716797,0.1142578,0.8730469-0.0400391
		c0.1936035-0.057251,0.3543701-0.0737305,0.494873-0.0634766c-0.1496582,0.0595703-0.2856445,0.1585083-0.3730469,0.3239746
		c-0.1149902,0.2188721-0.1306152,0.4630737-0.0401611,0.6212158c0.0338135,0.0593262-0.0579834,0.2597656-0.1256104,0.4066162
		c-0.12854,0.2823486-0.2895508,0.6339111-0.1186523,0.9007568c0.1123047,0.1764526,0.1263428,0.5604858,0.1384277,0.9007568
		c0.0140381,0.3713379,0.026123,0.6917725,0.1523438,0.838623c0.0578613,0.06775,0.0515137,0.2230844,0.0445557,0.3882456
		c-0.012085,0.295105-0.0274658,0.6635742,0.2851562,0.9290161c0.1644287,0.1383667,0.2012939,0.4023438,0.2407227,0.6818848
		c0.0565186,0.401001,0.1199951,0.8555908,0.6240234,0.9276123c0.4058838,0.0578613,0.5732422,0.3995361,0.7208252,0.7002563
		c0.1008301,0.2061157,0.1877441,0.3840332,0.3430176,0.453186c0.0854492,0.038147,0.2358398,0.1567383,0.4256573,0.3078003
		c0.4383545,0.3486938,1.1724854,0.9304199,2.1834717,1.3497314c1.0449219,0.4326782,8.274292,4.0011597,12.5855713,7.7418213
		c-0.0445557,0.0848999-0.1026611,0.1711426-0.1768799,0.2589111c-0.6895752-0.3272095-1.5483398-0.6860352-2.6091309-1.012146
		c-1.6542969-0.5093384-3.9648438-0.9833374-6.7844238-0.9859619l-0.0030518-0.0023193l-0.0018311,0.0024414
		c-1.6020508-0.0014038-3.3647461,0.1459961-5.2734356,0.5340576c-0.0163574,0.0042114-1.6469727,0.4235229-2.1086426,0.5153198
		c-0.4906006,0.0988159-1.3115234,0.5760498-1.5197754,0.8372192c-0.0473633,0.0592651-0.2160645,0.1143799-0.3791504,0.1680298
		c-0.3620605,0.1185913-0.8583984,0.2823486-1.0892334,0.7440186c-0.3204346,0.6409912-0.597168,0.9176636-0.7320557,1.0518188
		l-0.0358887,0.0366821c-0.809082,0.8344116-1.5361328,1.2932739-2.0543213,1.2946777
		c-0.1228027,0.0056763-0.4144287,0.0423584-0.4573975,0.2216797c-0.0388184,0.1595459,0.144043,0.2894287,0.2851562,0.3726807
		c0.2838135,0.166626,0.725708,0.2301636,1.1535645,0.2922974c0.4418945,0.0635376,0.9431152,0.135498,1.0009766,0.3162231
		c0.1636963,0.513916,0.4594727,1.1280518,0.9367676,1.1280518c0.1948242,0,0.831543,0.0254517,0.831543,0.3600464
		c0,0.4715576,0.7440186,0.6254272,1.0002441,0.6254272c0.0749512,0,0.1652832-0.0395508,0.255127-0.0755005l0.0018311,0.0020752
		l0.005127-0.0042114c0.0235596-0.0095215,0.0426025-0.0097046,0.0668945-0.0197754
		c0.1107178-0.0465698,0.2801514-0.1129761,0.3310547-0.083313c0.0147705,0.0084839,0.0267334,0.0395508,0.0317383,0.083313
		c0.0091553,0.0875244,0.0430908,0.1524658,0.098877,0.1920166c0.1016846,0.0734253,0.2272949,0.0409546,0.3748779,0.0070801
		c0.2491455-0.0565186,0.5102539-0.1185913,0.7158203,0.2216187c0.1948242,0.3261719,0.5957031,0.4390869,1.1032715,0.4390869
		c0.5986309,0,1.3461895-0.1566772,2.0795879-0.3120117l0.3608398-0.0762329
		c1.1273193-0.2329712,3.185791-0.7172241,4.3046875-1.3271484c0.2915039-0.1580811,0.5738525-0.3953247,0.8724365-0.6452026
		c0.7962646-0.6663818,1.7874756-1.4951172,3.7322998-1.5953979c0.487793-0.0253906,0.9858398-0.0783081,1.4794922-0.1400757
		c-0.666626,0.4494629-1.8796387,1.418335-1.7336426,2.4428101c0.0488281,0.340332,0.0654297,0.6976318,0.0632324,1.0529785
		C42.8636436,36.2712898,42.7984581,36.1722908,42.7420616,36.0766487z M43.8162804,36.8061409
		c-0.2597656,0.0608521-0.4840088-0.0512695-0.6748047-0.2244263c0-0.0011597,0.0002441-0.0021973,0.0002441-0.0033569
		l0.8583984,0.15625C43.9404259,36.766407,43.8790245,36.7913094,43.8162804,36.8061409z M44.2348595,36.5583382
		l-1.0773926-0.1958008c0.0010986-0.2140503-0.0198975-0.4216309-0.0372314-0.6326904l1.5981445,0.0430908
		C44.6188927,36.0705452,44.4464073,36.3582039,44.2348595,36.5583382z M47.1932335,34.6664925
		c-0.053833-0.0182495-0.0993652-0.02948-0.1516113-0.0465088c0.2062988-0.2373047,0.4143066-0.4483643,0.6251221-0.6464844
		l0.1149902,0.602356c-0.0126953,0.0120239-0.0223389,0.0293579-0.0357666,0.039856
		C47.6024132,34.7270393,47.4217491,34.7416878,47.1932335,34.6664925z"/>
</g>
<g id="Calque_2">
</g>
</svg>
