<?xml version="1.0" encoding="utf-8"?>
<!-- Generator: Adobe Illustrator 25.4.1, SVG Export Plug-In . SVG Version: 6.00 Build 0)  -->
<svg version="1.1" xmlns="http://www.w3.org/2000/svg" xmlns:xlink="http://www.w3.org/1999/xlink" x="0px" y="0px"
	 viewBox="0 0 60.109684 60.109684" enable-background="new 0 0 60.109684 60.109684" xml:space="preserve">
<g id="Bleu_traces">
	<path fill="#5C6A6B" d="M44.5128479,14.9737864c-0.7060547-0.7119141-1.9863281-1.6806641-2.0410156-1.7226562
		c-3.6142578-2.6748047-7.9082031-4.0878906-12.4169903-4.0878906c-11.5195312,0-20.8916016,9.3720713-20.8916016,20.8916016
		s9.3720713,20.8915997,20.8916016,20.8915997c0.9228516,0,1.8496094-0.0605469,2.7539043-0.1796875
		c0.0576172-0.0078125,0.1044922-0.0527344,0.1132812-0.1103516c0.0087891-0.0556641,0.8544922-5.5888672,0.8544922-10.4169922
		l-0.0009766-7.1787109c0.0097656-0.0810547,0.2265625-2.0029278-1.0908203-3.10742l-0.0546875-0.0449219
		c-1.2695293-1.0664062-3.0097637-2.5253906-2.4531231-5.3085938c0.7070312-3.5380859,2.2529278-7.6689453,4.2802715-7.6689453
		c1.7148438,0,3.0849609,2.9580078,3.8945312,6.0117188l-0.0283203,0.6757812
		c-0.0996094,2.0273438-0.1503906,3.3496094-0.1162109,4.2607422c-0.5253906,0.8554688-1.2841797,1.4921875-1.9238281,2.0292969
		l-0.0546875,0.0449219c-1.3164062,1.1044922-1.1005859,3.0263653-1.0908203,3.091795v7.1943359
		c0,4.8271484,0.625,9.7080078,0.6318359,9.7558594c0.0048828,0.0390625,0.0273438,0.0742188,0.0605469,0.0957031
		c0.0332031,0.0195312,0.0732422,0.0234375,0.1113281,0.0136719c1.6484375-0.5410156,3.1601562-1.2128906,3.1787109-1.2216797
		c0.2734375-0.1318359,0.5449219-0.2695312,0.8115234-0.4140625c0.0410156-0.0224609,0.0664062-0.0634766,0.0693359-0.1083984
		c0.2382812-1.53125,0.7255859-5.4130859,0.7255859-7.7255859l-0.0009766-7.1796875
		c0.0097656-0.0810547,0.2265625-2.0019512-1.1005859-3.1142559c-0.7734375-0.6503906-1.0927734-0.9179688-1.15625-2.3955078
		c0.5185547-0.8789062,0.8105469-1.9804688,0.5273438-3.3984375c-0.0615234-0.3056641-0.1865234-0.8945312-0.3789062-1.6181641
		l0.2109375-4.9462891c0.0175781-0.4824219,0.1435547-0.9560547,0.2548599-0.9560547
		c0.111351,0,0.2373276,0.4736328,0.2539291,0.9511719v7.2333984c0,0.4238281,0.0488281,1.4091797,0.4814453,1.4091797
		c0.4335938,0,0.4794922-1.0117188,0.4794922-1.4472656v-7.1972656c-0.0048828-0.3056641,0.0458984-0.7958984,0.1748047-0.9267578
		c0.0429688-0.0449219,0.0410156-0.0449219,0.0839844,0c0.1289062,0.1308594,0.1787109,0.6201172,0.1738281,0.9306641
		l0.0966797,7.2109375c-0.0029297,0.1884766-0.0039062,1.1386719,0.2421875,1.3886719
		c0.0654297,0.0654297,0.1337891,0.0791016,0.1806641,0.0791016c0.0458984,0,0.1152344-0.0136719,0.1796875-0.0791016
		c0.2460938-0.2490234,0.2451172-1.2001953,0.2421875-1.3847656l0.0966797-7.21875
		c-0.0048828-0.3066406,0.0449219-0.7958984,0.1738281-0.9267578c0.0429688-0.0449219,0.0410156-0.0449219,0.0839844,0
		c0.1289062,0.1308594,0.1796875,0.6201172,0.1748047,0.9287109v7.1953125c0,0.4355469,0.0458984,1.4472656,0.4794922,1.4472656
		s0.4814453-0.9853516,0.4814453-1.4091797v-7.2285156c0.0166016-0.4824219,0.1425781-0.9560547,0.2539062-0.9560547
		c0.1103516,0,0.2373047,0.4736328,0.2548828,0.9570312l0.2412109,5.6484375
		c0.2744141,5.6064453,0.2001953,5.6689453-1.0478516,6.7167969c-1.3164062,1.1044922-1.1005859,3.0253887-1.0917969,3.0908184
		v7.1953125c0,1.5146484,0.1787109,4.9628906,0.3242188,6.2529297c0.0058594,0.046875,0.0351562,0.0869141,0.078125,0.1064453
		c0.0429688,0.0185547,0.0927734,0.0146484,0.1308594-0.0136719c5.4111328-3.9238281,8.640625-10.2509766,8.640625-16.9257793
		C50.9464417,24.3077717,48.6612854,18.9513264,44.5128479,14.9737864z M16.9770832,14.1552439
		c0.1483765,0,0.2730103,0,0.3618774-0.0095215c0.1032104-0.0095215,0.2039795-0.0269775,0.3110962-0.0460205
		c0.3297729-0.0551758,0.713623-0.116272,1.4205933,0.0222168l-2.6201782,8.2783213
		c-0.5863047,0.3361206-1.1165171,0.6297607-1.5611582,0.8591309l2.024415-9.0910654
		c0.0046387-0.0037842,0.008667-0.0082397,0.0132446-0.012085C16.9435749,14.1559153,16.9624348,14.1552439,16.9770832,14.1552439z
		 M9.4269114,30.054842c0-0.1967163,0.0240479-0.3873901,0.029541-0.5828247l1.1659546,0.590271
		c-0.4024048-0.0007935-0.7987671,0.0019531-1.1948853,0.0044556C9.4275217,30.0627155,9.4269114,30.0588703,9.4269114,30.054842z
		 M11.2433176,25.1340046c-0.3687744,0.1904907-0.7512207,0.3885498-1.1465454,0.5932617l0.0369263-0.9376221
		c0.4134521-1.5620728,0.9873047-3.0587158,1.7355957-4.4533081L11.2433176,25.1340046z M12.184968,19.7953205
		c0.5650635-0.9802246,1.1960449-1.9176636,1.9089966-2.788208l-1.1635132,7.2566528
		c-0.4336548,0.2230225-0.9035034,0.4650879-1.4246216,0.734375L12.184968,19.7953205z M22.2637653,28.8027668
		c-0.1491089,0.074585-0.3005981,0.1515503-0.4596558,0.2337036c-0.418335,0.2176514-0.8632812,0.4434814-1.2666016,0.5960693
		l-10.2672129-3.7203369c0.3776855-0.1956177,0.7422485-0.3840942,1.0951538-0.5666504L22.2637653,28.8027668z M9.976655,26.0641804
		l10.1716928,3.685791c-0.2158813,0.0527954-0.4154663,0.0801392-0.5680542,0.0388794
		c-0.4198608-0.1253662-1.1240234-0.0430298-1.894165,0.0698853l-7.9752817-3.067749
		c0.0340576-0.2128906,0.057373-0.4291382,0.0979004-0.6398315C9.8648996,26.1220417,9.9212351,26.0929279,9.976655,26.0641804z
		 M15.1418161,30.3460407c0.1416626,0.0015869,0.2791748,0.0031738,0.3637695,0.0031738
		c0.5460825,0,1.2175303-0.1016235,1.8674936-0.1984253c0.1450806-0.0218506,0.2893066-0.0424805,0.4335327-0.0631104
		l-4.618104,3.5627422c-0.4628906-0.112854-0.9369507-0.2261963-1.4262085-0.3392944L15.1418161,30.3460407z M11.4686594,33.2444763
		c-0.4858398-0.1113281-0.9786377-0.2214355-1.4759521-0.3301392l2.8397217-2.5957012
		c0.5664062,0.0057373,1.083374,0.0123291,1.501709,0.0178833c0.1695557,0.0019531,0.3002319,0.00354,0.4422607,0.0055542
		L11.4686594,33.2444763z M17.1958942,29.9291706c-0.5956421,0.0894775-1.2012949,0.1755981-1.6903086,0.1755981
		c-0.2142944,0-0.6261597-0.0047607-1.1682739-0.0111084c-0.0217896-0.0004272-0.0474854-0.0006104-0.0697021-0.0007935
		l-4.7359009-2.1065063c0.0321045-0.3208618,0.0946655-0.6320801,0.1413574-0.9484863L17.1958942,29.9291706z
		 M13.6529245,30.0852985c-0.7353516-0.0085449-1.5957642-0.0174561-2.4916382-0.0214233l-1.6914062-0.8566284
		c0.0131226-0.3209839,0.0209351-0.6432495,0.048645-0.9603882L13.6529245,30.0852985z M10.5415354,30.3041706L9.490571,31.3115559
		c-0.0202637-0.3335571-0.0466919-0.6654663-0.0508423-1.0031128C9.8054514,30.3061237,10.1716013,30.3034992,10.5415354,30.3041706
		z M10.8909616,30.3051472c0.0708008,0.0003662,0.1419678,0.0003662,0.2124023,0.0007935l0.0291748,0.0147095l0.0073853-0.0147095
		c0.4607544,0.0020142,0.9090576,0.005188,1.3349609,0.0091553l-2.7728271,2.5353374
		c-0.0216675-0.0046997-0.043335-0.0092163-0.0650024-0.0137939c-0.0541382-0.3986816-0.0993042-0.7990112-0.130249-1.2044659
		L10.8909616,30.3051472z M10.8115549,37.4245911c-0.4940186-1.2852783-0.859375-2.630127-1.0881348-4.0234985
		L10.8115549,37.4245911z M11.4085398,33.4795837l2.0635986,5.9840698c-0.4519043-0.289917-0.9417725-0.6369629-1.4682007-1.0206909
		c-0.2706909-0.1968384-0.5480957-0.3932495-0.8242798-0.5892944l-1.274353-4.7102051
		C10.4118967,33.2539978,10.9136667,33.3663025,11.4085398,33.4795837z M11.686677,33.5428772
		c0.4944458,0.1143188,0.9737549,0.2285767,1.4414062,0.3428955l3.0767221,7.5413818
		c-0.2879038-0.2106934-0.5756845-0.427002-0.8539438-0.6381226c-0.5759277-0.4384766-1.1160889-0.8460083-1.5457764-1.1063232
		L11.686677,33.5428772z M13.4202585,33.9576111c0.4364014,0.1077271,0.8627319,0.2150879,1.2615356,0.3201904
		c0.1470947,0.0389404,0.3253784,0.0908813,0.4892578,0.1367188l4.3285532,8.7098999
		c-0.4458008-0.1992188-0.895813-0.3938599-1.317749-0.522644c-0.4407959-0.1345215-1.0125122-0.4932251-1.6066895-0.9113159
		L13.4202585,33.9576111z M15.4866648,34.5028381c0.5234385,0.1508179,1.1184702,0.3325195,1.7592783,0.5343018l5.0841064,8.958313
		c-0.1973267-0.0591431-0.4133301-0.1063232-0.6846313-0.1063232c-0.4240112,0-1.0901489-0.2940674-1.7987671-0.6119385
		L15.4866648,34.5028381z M17.5871906,35.144928c0.5496826,0.1749878,1.1191406,0.3587036,1.7211304,0.5577393l5.4522095,8.7145996
		c-0.1505737,0.0071411-0.302393,0.0129395-0.4476318,0.0258179c-0.3817749,0.0317383-0.7428589,0.0618896-1.0023804-0.0301514
		c-0.1159058-0.0428467-0.2317505-0.1016235-0.3547974-0.1635132c-0.0806274-0.0404663-0.1803589-0.0769653-0.2686157-0.1174316
		L17.5871906,35.144928z M19.6724567,35.8240662c0.6746216,0.2242432,1.3687744,0.4585571,2.0725708,0.6986694l4.571167,7.1842041
		c-0.0595093,0.0456543-0.1187134,0.0906982-0.1794434,0.1392822c-0.3283081,0.2617188-0.670166,0.5248413-1.1018066,0.5496216
		L19.6724567,35.8240662z M22.1127644,36.6477356c0.5579224,0.1912231,1.1167603,0.3839111,1.6722412,0.5769653l3.8408203,5.7758789
		c-0.1766357,0.1968384-0.383728,0.282959-0.6255493,0.3630981c-0.1593628,0.0527954-0.3218384,0.1166992-0.4810791,0.210144
		L22.1127644,36.6477356z M24.1650105,37.3572693c0.6472778,0.2254028,1.2815552,0.4478149,1.8981323,0.6652832l2.5574951,3.9133301
		c-0.1298828,0.138916-0.2485352,0.2591553-0.3473511,0.3579712c-0.1587524,0.1555176-0.3065796,0.3118896-0.4776001,0.5234375
		L24.1650105,37.3572693z M26.440218,38.155304c0.4309692,0.1523438,0.8468628,0.2999878,1.2493286,0.4432373l1.7330933,2.1010132
		c-0.0269165,0.0505981-0.0527954,0.098999-0.0834351,0.1593628c-0.1227417,0.2440186-0.3009033,0.5670776-0.5570068,0.8799438
		L26.440218,38.155304z M28.1349201,38.7572937c0.7068481,0.2521973,1.362793,0.4873047,1.9241943,0.6896973l0.7058105,0.5856934
		c-0.4301758,0.055542-0.9377441,0.2470093-1.1826782,0.4777832L28.1349201,38.7572937z M30.7328815,39.6902161
		c0.3737793,0.1353149,0.7015991,0.2539673,0.9453125,0.3424683c-0.1957397-0.0031738-0.3929443-0.0093384-0.5574341-0.0212402
		L30.7328815,39.6902161z M30.8086262,39.4588928h0.4688721c0.1231079,0.0593262,0.2579346,0.1821289,0.3881836,0.3103027
		C31.4347248,39.6854553,31.1401081,39.5787048,30.8086262,39.4588928z M30.1315632,39.214447
		c-0.5405884-0.1946411-1.170166-0.4202881-1.8458862-0.6615601l2.3432007-0.2773438
		c0.1201172,0.3781738,0.2639771,0.7178345,0.4111938,0.9389038H30.1315632z M27.7673054,38.3681946
		c-0.3949585-0.140686-0.8017578-0.2851562-1.2241821-0.4343262l3.786377-1.0543823
		c0.0233765,0.3007812,0.1082764,0.727356,0.2310181,1.1591187L27.7673054,38.3681946z M26.1412067,37.7922058
		c-0.6079712-0.2142944-1.2329712-0.4333496-1.8709717-0.6555786l5.6621094-1.5635376
		c0.0255737,0.3686523,0.1294556,0.522644,0.227478,0.649231c0.0758057,0.0983887,0.1290894,0.2019653,0.1450195,0.4108887
		L26.1412067,37.7922058z M23.8647785,36.9951477c-0.5518188-0.1916504-1.1069946-0.3831787-1.6613159-0.5732422
		l7.2686768-2.3920898c0.0317383,0.2956543,0.1213379,0.4845581,0.2241821,0.6384888
		c0.1046753,0.1577759,0.1937866,0.3294067,0.2120361,0.6583252L23.8647785,36.9951477z M21.8202229,36.2917786
		c-0.7041016-0.2401123-1.3981934-0.4744263-2.0731812-0.6988525l7.9217529-3.0137329
		c0.050293,0.1692505,0.1606445,0.3434448,0.4013062,0.5176392c0.3182373,0.2301636,0.6325684,0.2841797,0.8849487,0.3270264
		c0.3131714,0.0527954,0.4540405,0.0918579,0.4802856,0.361084L21.8202229,36.2917786z M27.6307087,32.33255l-8.2478638,3.1389771
		c-0.6032715-0.1992188-1.1740112-0.3833618-1.7250366-0.5587769l8.6431274-4.0290508
		c0.2938232,0.2686768,0.541687,0.3357544,0.741394,0.3829956c0.194458,0.0476074,0.3348999,0.0809326,0.4849243,0.296814
		c0.1253662,0.1809692,0.1166382,0.3555298,0.1071167,0.5555401C27.6308918,32.1881409,27.6284504,32.2597351,27.6307087,32.33255z
		 M17.3164387,34.8048401c-0.6333618-0.199646-1.223938-0.380188-1.7434702-0.5302124l8.6934214-4.7464581
		c1.0639038,0.4190063,1.3538818,0.6854858,1.8449707,1.177002L17.3164387,34.8048401z M15.2377634,34.1809998
		c-0.1655884-0.0464478-0.345459-0.0988159-0.4940796-0.1381226c-0.3960571-0.1043091-0.8191528-0.2106934-1.2523804-0.3178101
		l4.7946177-3.6984844c0.5021973-0.0587158,0.9536743-0.0849609,1.2252808-0.0059814
		c0.5873413,0.1730347,1.5119629-0.3047485,2.4056396-0.7682495c0.3526611-0.1825562,0.6819458-0.3504028,0.9613037-0.4625244
		c0.1148682,0.1188965,0.4063721,0.331543,1.1005249,0.6192627L15.2377634,34.1809998z M22.8700275,28.5269489
		c-0.0856323,0.0323486-0.18573,0.081543-0.2801514,0.1243896L11.6726999,25.1868
		c0.5048828-0.2607422,0.9623413-0.49646,1.3834839-0.7128906l11.5193491,2.8085938
		C24.1108112,27.8261433,23.5081501,28.2888508,22.8700275,28.5269489z M13.3879099,24.3034382
		c0.5761108-0.2955933,1.039978-0.5321045,1.3440552-0.6845093l10.8366098,2.0855713
		c-0.133606,0.1755981-0.2650757,0.3866577-0.3897705,0.6700439c-0.1063843,0.2416382-0.2515259,0.4777832-0.4207764,0.7035522
		L13.3879099,24.3034382z M15.0736399,23.4379597c0.4333496-0.2261963,0.9372568-0.5053711,1.4959726-0.8259888l10.1367798,1.508728
		c-0.0284424,0.1053467-0.0716553,0.2180786-0.1378784,0.3442383c-0.1904907,0.3651123-0.3944702,0.5762329-0.611145,0.8000488
		c-0.0701294,0.0726318-0.1409912,0.1472168-0.211792,0.2265625L15.0736399,23.4379597z M16.9137897,22.415926
		c0.3953247-0.229187,0.8101196-0.4732056,1.2333374-0.7238159l8.4528198,0.9517822
		c0.0018921,0.255188,0.0391846,0.4763794,0.0796509,0.6671143c0.0424805,0.1975708,0.076416,0.375,0.0646973,0.5686035
		L16.9137897,22.415926z M18.495821,21.4857502c0.305603-0.1815796,0.6137085-0.3652954,0.921936-0.5494385l6.7324829,0.4139404
		c0.029541,0.0896606,0.0779419,0.175354,0.1444702,0.2670288c0.1265869,0.1750488,0.2600708,0.4127197,0.2792358,0.7794189
		L18.495821,21.4857502z M19.7890949,20.7151203c0.6450806-0.3847656,1.2754517-0.7609253,1.8449097-1.095459l4.5990601,0.4781494
		c-0.0640869,0.3960571-0.0985107,0.7833862-0.1077271,1.0087891L19.7890949,20.7151203z M26.2771931,19.8585529
		l-4.288269-0.4456787c0.789917-0.4595337,1.4301147-0.8158569,1.7749634-0.9649048l2.6445923,0.3970337
		c0.0133667,0.236145,0.010498,0.4642944-0.0463257,0.6500244C26.3293171,19.601778,26.3030109,19.7303791,26.2771931,19.8585529z
		 M26.1266193,17.3402424c0.1864014-0.0888672,0.3687744-0.1700439,0.5473633-0.2496338
		c-0.0932007,0.1075439-0.175415,0.2234497-0.2409058,0.3428955L26.1266193,17.3402424z M25.9849567,17.1386433l0.1069336-0.3567505
		c0.2282104,0.0119019,0.4276123,0.0223999,0.609436,0.0317383C26.4685993,16.9154377,26.230196,17.0213947,25.9849567,17.1386433z
		 M26.3463459,17.660677c-0.0100098,0.0422974-0.0294189,0.0856934-0.0294189,0.1264038
		c0,0.149231,0.0214233,0.3348999,0.0444336,0.5317383c0.010498,0.0897217,0.0153809,0.1833496,0.0247192,0.2761841
		l-2.2224121-0.333313c0.4604492-0.2059326,0.9180908-0.4170532,1.3540039-0.630188
		c0.0978394-0.0476074,0.1887207-0.0896606,0.2848511-0.1361084L26.3463459,17.660677z M25.6891193,17.2807331
		c-0.09375,0.0454102-0.1824341,0.0869141-0.277771,0.1333008c-0.4393311,0.2133179-0.8998413,0.4262085-1.3632202,0.6323853
		l0.9923706-1.6799927c0.0721436,0.1746216,0.1975098,0.3713989,0.6390991,0.3936157
		c0.0550537,0.0029907,0.1070557,0.0056152,0.1621704,0.0085449L25.6891193,17.2807331z M23.6601887,18.2265949
		c-0.3369141,0.1472168-0.9312744,0.4755859-1.6678467,0.9025879l2.2835693-3.4929209
		c0.1297607,0.1771851,0.2709351,0.3483887,0.5092163,0.406312c0.0592041,0.0150757,0.0911865,0.0424805,0.1211548,0.0726318
		L23.6601887,18.2265949z M21.5212727,19.40378c-0.5535889,0.3250122-1.1643677,0.6896973-1.7902832,1.0637207l3.3320923-5.6895761
		c0.1848145,0.0773315,0.3829346,0.1547241,0.553772,0.2297363c0.2357178,0.1029663,0.3743286,0.2634888,0.4990234,0.4289551
		L21.5212727,19.40378z M19.2987995,20.725008c-0.3084106,0.18396-0.6167603,0.3678589-0.9226074,0.5494385l2.9818726-7.0997324
		c0.5266113,0.1432495,1.0151367,0.3214111,1.4781494,0.5091553L19.2987995,20.725008z M18.0259724,21.4815998
		c-0.4354248,0.2579346-0.8598022,0.5071411-1.2650757,0.7416382l2.552002-8.0616465
		c0.4958496,0.0913086,0.7913208,0.0337524,1.0475464-0.0206299c0.2209473-0.0491943,0.4381104-0.0734253,0.7547607-0.0160522
		L18.0259724,21.4815998z M16.6001911,14.4532785l-1.9938974,8.9553232c-0.317688,0.1593018-0.8052979,0.407959-1.4074707,0.7172852
		l1.1959229-7.4612427C15.0730906,15.872529,15.8109446,15.1348581,16.6001911,14.4532785z M39.4649963,30.5519123
		c1.2060547,1.0107422,1.0009766,2.8535137,0.9980469,2.8876934v7.1953125c0,2.2714844-0.4755859,6.0732422-0.7158203,7.6328125
		c-0.2441406,0.1308594-0.4921875,0.2568359-0.7382812,0.375c-0.0146484,0.0068359-1.4228516,0.6328125-2.9970703,1.1601562
		c-0.1064453-0.8789062-0.6103516-5.2431641-0.6103516-9.5634766l-0.0009766-7.2099609
		c-0.0019531-0.0185547-0.2070312-1.8623028,0.9980469-2.873045l0.0546875-0.0458984
		c0.5576172-0.4677734,1.2441406-1.0439453,1.7783203-1.7998047C38.3370667,29.6046467,38.693512,29.9034748,39.4649963,30.5519123z
		 M38.7364807,24.5997639c0.2275391,1.1376953,0.0712891,2.0546875-0.2792969,2.8134766
		c-0.0048828-0.8271484,0.0419922-1.9589844,0.1191406-3.5615234
		C38.6339417,24.1026936,38.6876526,24.3526936,38.7364807,24.5997639z M42.3360901,46.6300354
		c-0.1396484-1.4228516-0.2998047-4.5693359-0.2998047-5.9951172l-0.0009766-7.2109375
		c-0.0019531-0.0185547-0.2060547-1.8613262,1.0087891-2.8808575c1.3066406-1.0966797,1.4130859-1.1865234,1.1318359-6.9238281
		l-0.2412109-5.6464844c-0.0097656-0.2841797-0.0771484-1.2099609-0.5185547-1.2099609
		c-0.4423828,0-0.5078125,0.9267578-0.5175781,1.2148438v7.2333984c-0.0009766,0.6533203-0.1328125,1.1455078-0.2177734,1.1455078
		c-0.0976791-0.0234375-0.2148438-0.5566406-0.2158203-1.1835938v-7.1933594
		c0.0029297-0.1416016,0.0019531-0.8603516-0.25-1.1162109c-0.1289062-0.1328125-0.3320312-0.1328125-0.4609375,0
		c-0.2519531,0.2568359-0.2519531,0.9755859-0.2490234,1.1123047l-0.0966797,7.21875
		c0.0078125,0.5664062-0.0742188,1.140625-0.1464844,1.203125c-0.0966797-0.0625-0.1787338-0.6357422-0.1708984-1.2070312
		l-0.0966797-7.2109375c0.0029297-0.140625,0.0029297-0.859375-0.2490234-1.1162109
		c-0.1289062-0.1328125-0.3320312-0.1328125-0.4609375,0c-0.2519531,0.2558594-0.2529297,0.9746094-0.25,1.1142578v7.1953125
		c-0.0009766,0.6269531-0.1181641,1.1601562-0.2158203,1.1835938c-0.0849609,0-0.2158203-0.4921875-0.2177734-1.1455078v-7.2382812
		c-0.0097656-0.2832031-0.0751953-1.2099609-0.517601-1.2099609c-0.4413834,0-0.5087662,0.9257812-0.5185318,1.2089844
		l-0.1767578,4.140625c-0.7070312-2.3642578-1.9990234-5.4453125-3.9306641-5.4453125
		c-2.8203106,0-4.2763653,6.5644531-4.5400372,7.8798828c-0.5869141,2.9375,1.296875,4.5175781,2.5429668,5.5634766
		l0.0546875,0.0458984c1.2060547,1.0107422,1.0009766,2.8544903,0.9980469,2.88867v7.1943359
		c0,4.4541016-0.7246094,9.5146484-0.8378906,10.2783203c-0.8613262,0.109375-1.7421856,0.1650391-2.6201153,0.1650391
		c-8.5386963,0-15.8814707-5.2158203-19.0122681-12.6282349c0.2746582,0.1940308,0.5494385,0.3894043,0.8185425,0.5852661
		c0.6428223,0.4682617,1.2492065,0.9095459,1.7801514,1.2254028c0.4222412,0.2507935,0.9762573,0.6714478,1.5619507,1.1174927
		c0.9952402,0.7555542,2.1222544,1.6127319,2.9071665,1.8508301c0.4953003,0.1508179,1.0397339,0.3968506,1.5667114,0.6333618
		c0.7595215,0.3428345,1.4777832,0.666687,1.9683228,0.666687c0.5396729,0,0.8912354,0.1761475,1.2008057,0.333313
		c0.1293335,0.0650635,0.2515869,0.1270142,0.3817139,0.1746216c0.1611328,0.0587158,0.3421021,0.0777588,0.5365601,0.0777588
		c0.1801147,0,0.3721924-0.0174561,0.5698242-0.0333252c0.2087402-0.019043,0.4246216-0.036499,0.638916-0.036499
		c0.5484009,0,0.9555664-0.3269653,1.3150635-0.6143188c0.0881348-0.0698242,0.1746216-0.1396484,0.2611694-0.2015991
		c0.1634521-0.1190186,0.3396606-0.1777344,0.5269775-0.2396851c0.2817383-0.092041,0.572998-0.1888428,0.8063354-0.5
		c0.2142944-0.2857056,0.3674927-0.4365234,0.5611572-0.6269531c0.1206055-0.1190796,0.2531738-0.2508545,0.4214478-0.4333496
		c0.3452148-0.3762207,0.5452271-0.7746582,0.6912231-1.0651245c0.0429077-0.0841064,0.0809937-0.1603394,0.1166992-0.2238159
		c0.1237793-0.2158813,0.9492188-0.5301514,1.3905029-0.4936523c1.36273,0.1063843,1.3857403-0.0333252,1.3944683-0.0952148
		c0.0036621-0.0333252-0.0109253-0.1051636-0.1169434-0.1347656l0.0018311-0.0049438
		c-0.0013428-0.0003662-0.0241089-0.008728-0.0282593-0.0103149c-0.0817261-0.0178833-0.244751-0.1793823-0.3772564-0.3134766
		c-0.18573-0.18573-0.3778076-0.3778076-0.5778198-0.4666748c-0.2761841-0.1222534-0.7991943-1.7587891-0.7991943-2.5032349
		c0-0.3793945-0.1103516-0.5222168-0.2087402-0.649231c-0.0960693-0.1237793-0.1873169-0.241272-0.1873169-0.6571655
		c0-0.4825439-0.1412964-0.6952515-0.2666626-0.8825073c-0.1119385-0.1682739-0.2087402-0.3127441-0.2087402-0.6635132
		c0-0.5667114-0.352356-0.6270142-0.6928711-0.68573c-0.2396851-0.0412598-0.5111084-0.0873413-0.7833252-0.2841187
		c-0.361145-0.260376-0.3500366-0.4841309-0.3357544-0.7683105c0.0103149-0.2142925,0.0222168-0.4571514-0.1499634-0.7079449
		c-0.203186-0.2920532-0.4190674-0.3428345-0.6286011-0.3936157c-0.2047729-0.0476685-0.4158936-0.0984497-0.6928711-0.3746338
		l-0.0848999-0.0856934c-0.5325928-0.5333862-0.8262329-0.8270264-2.0175171-1.2889404
		c-0.7567749-0.2928467-1.0591431-0.4980469-1.1869507-0.6063232c0.9707031-0.4174805,1.8765259-1.274231,2.2846069-2.2016602
		c0.2285767-0.519043,0.4730225-0.7714233,0.7317505-1.0396729c0.2182617-0.2254028,0.444458-0.4587402,0.6516113-0.8540039
		c0.2952271-0.5634766,0.2166748-0.9317627,0.1333008-1.3190918c-0.0460205-0.2174683-0.0936279-0.4396973-0.0801392-0.7190552
		c0.027771-0.5507812-0.1976318-0.8618774-0.3460693-1.0666504c-0.0722046-0.1000366-0.1293335-0.1793823-0.1293335-0.2396851
		c0-0.2730713,0.0793457-1.1698608,0.2317505-1.6682739c0.1150513-0.37146,0.0587158-0.852417,0.0095215-1.2762451
		c-0.0222168-0.1889038-0.0436401-0.3682861-0.0436401-0.5031738c0-0.2730103,0.4587402-0.7428589,0.7476196-0.9730225
		l0.25-0.2000122L27.2375813,16.59659c0,0-0.7929077-0.0380859-1.5452881-0.0778198
		c-0.3468628-0.019043-0.3928833-0.1428223-0.4563599-0.3126831c-0.055542-0.147644-0.1238403-0.331727-0.3920898-0.3984385
		c-0.1881104-0.0476074-0.2960205-0.1983643-0.4333496-0.3904419c-0.1594849-0.2238159-0.3396606-0.4761963-0.6960449-0.6317749
		c-0.6928711-0.3031616-1.5063477-0.647644-2.3952637-0.8778076c-0.4746094-0.1221924-0.7476196-0.0634766-1.0111084-0.0047607
		c-0.2626953,0.0603638-0.536499,0.1174927-1.0532227,0.0031738c-0.8491821-0.18573-1.2904663-0.1079102-1.6468506-0.0460205
		c-0.100769,0.019043-0.1952515,0.0349121-0.2912598,0.0444336c-0.0145264,0.0012207-0.0414429,0.0006104-0.0582275,0.0014648
		c3.5205078-2.7955322,7.9621582-4.4790039,12.7963257-4.4790039c4.4521465,0,8.6914043,1.3964844,12.2578106,4.0361328
		c0.0136719,0.0097656,1.3193359,0.9990234,2.0146484,1.6992188c4.0986328,3.9287119,6.3554688,9.2177744,6.3554688,14.8925791
		C50.6827698,36.568512,47.5665588,42.7472229,42.3360901,46.6300354z"/>
</g>
<g id="Calque_2">
</g>
</svg>
