<?xml version="1.0" encoding="utf-8"?>
<!-- Generator: Adobe Illustrator 25.4.1, SVG Export Plug-In . SVG Version: 6.00 Build 0)  -->
<svg version="1.1" xmlns="http://www.w3.org/2000/svg" xmlns:xlink="http://www.w3.org/1999/xlink" x="0px" y="0px"
	 viewBox="0 0 60.109684 60.109684" enable-background="new 0 0 60.109684 60.109684" xml:space="preserve">
<g id="Bleu_traces">
	<path fill="#5C6A6B" d="M52.8651085,12.4825754c-0.0341797,0.0244141-3.4736328,2.4418945-4.6308594,3.1142578
		c-2.3730469,1.3774424-3.9589844,4.1674814-5.0078125,6.0131845c-0.3320312,0.5830078-0.6181641,1.0859375-0.8652344,1.4384766
		c-1.0380859,1.4853516-7.8486328,6.1396484-8.9902344,6.7109375c-0.9355469,0.4667969-1.7402363,2.0888672-2.5185566,3.6572247
		c-0.2773438,0.5576172-0.5380859,1.0839844-0.796875,1.5419922c-0.8857422,1.5654297-1.5488281,1.3623047-1.5488281,1.359375
		c-0.2912598-0.1747437-0.4326172-0.2642822-0.5769043-0.4776001c0.0227051-0.1703491,0.0336914-0.343689,0.0134277-0.5184937
		c-0.0585938-0.5-0.265625-1.0429688-0.5039062-1.5673828c0.1386719-1.2216797,0.6748047-2.6376934,0.9648438-3.4023418
		c0.0966797-0.2548828,0.1699219-0.4482422,0.1992188-0.5546875c0.1982422-0.6972656,2.6650391-3.6816406,3.6621113-4.5253906
		c0.6386719-0.5400391,1.1777344-1.7265625,0.9335938-2.6992188c-0.1171875-0.4677734-0.4648438-1.0703125-1.4580097-1.2832031
		c-1.9677734-0.4204102-3.5927734,3.0556641-4.3662109,4.7275391c-0.1044922,0.2275391-0.1943359,0.421875-0.2675781,0.5683594
		c-0.6259766,1.2529297-0.8476562,4.4316406-0.8476562,5.1308594c0,0.3466778,0.2568359,0.8720684,0.5537109,1.4804668
		c0.3408203,0.6992188,0.7275391,1.4902344,0.8056641,2.1621094c0.0205078,0.171875,0.0166016,0.3427734-0.0117188,0.5078125
		c-0.1103516,0.6376953-0.5673828,1.0546875-0.78125,1.21875c-0.4013672-0.4628906-1.9472656-2.2451172-2.4707031-2.8349609
		c-0.5693359-0.6396484-0.9404297-2.3251934-0.9423828-2.3320293c-0.0058594-0.0351562-0.5273438-3.5458984-0.5273438-4.3544922
		c0-0.4414062,1.1220703-2.7265625,2.0244141-4.5634766c0.7207031-1.4682617,1.34375-2.7363281,1.4443359-3.1357422
		c0.0273438-0.1103516,0.0009766-0.2119141-0.0751953-0.2861328c-0.3457031-0.331543-1.7597656-0.0048828-5.0146484,0.9033203
		c-1.1582031,0.3232422-2.2519531,0.628418-2.6289062,0.6533203c-0.8242188,0.0551758-2.734374,1.5019531-5.8388662,4.4228516
		c-1.2890625,1.2128906-3.0644531,1.4492188-3.9404297,1.3164062c-0.25-0.0380859-0.4140625-0.1269531-0.4882812-0.2617188
		c-0.0947266-0.1738281-0.0283203-0.3935547-0.0019531-0.4667969c0.40625-0.4003906,5.6865234-5.6083984,6.7675781-6.6162109
		c0.6591797-0.6153564,1.961669-1.3696289,2.9101553-1.8808594l5.4726562-2.7368174
		c0.0146484-0.0092773,1.5115967-0.9295044,6.3293457-2.135437c1.2775879-0.0181274,8.1324482-1.6213989,9.4802265-2.2200317
		c1.3515625-0.6010742,9.2783203-5.3144526,9.6152344-5.5151362L48.7752647,4.762361
		c-0.0830078,0.0488281-8.2480469,4.9038081-9.5820312,5.4965816c-1.3378906,0.5947266-8.1718769,2.1943359-9.3740253,2.1943359
		c-1.1503906,0-8.3505859-1.340332-9.4150391-1.5532227c-0.7158203-0.1435547-5.7773428-1.1875-6.3759756-1.3369141
		c-0.1308594-0.0332031-0.2568359,0.0048828-0.3486328,0.1025391c-0.1933594,0.2109375-0.2080078,0.6953125-0.0351562,1.2055664
		c0.2734375,0.8051758,0.8994141,1.3666992,1.6757812,1.5014648c1.4746084,0.2563477,3.0058584,0.7368164,3.8710928,1.2001953
		c-1.7861328,0.3676758-7.9179678,1.6445312-8.4023428,1.921875c-0.265625,0.1518555-1.1337891,0.5224619-1.9003906,0.849122
		c-0.7832031,0.3344727-1.4589849,0.6230469-1.6503911,0.737793c-0.1914062,0.1152344-0.2353516,0.4077148-0.1113281,0.7446289
		c0.2792969,0.7587891,1.2802739,1.53125,3.1660161,1.2163086c1.8066406-0.3007812,3.1445312-0.7329102,4.2197266-1.0805664
		c0.5488281-0.1772461,1.0234375-0.3305664,1.453125-0.4316406c0.7148428-0.168457,1.6298819-0.2900391,2.2890615-0.3637695
		c-0.9599609,0.5029297-2.5595694,1.394043-3.343749,2.125c-1.1210938,1.0463867-6.7412109,6.5908203-6.7978516,6.6464844
		l-0.0341797,0.0488281c-0.0078125,0.0175781-0.1894536,0.4257812,0.0019531,0.7792969
		c0.125,0.2304688,0.3691406,0.375,0.7265625,0.4306641c0.9394531,0.1474609,2.8378906-0.1083984,4.2119141-1.4023438
		c3.7431631-3.5205078,5.131835-4.300293,5.6376944-4.3339844c0.4101562-0.027832,1.46875-0.3227539,2.6953125-0.6645508
		c1.6445312-0.4594727,4.3974609-1.2265625,4.6855469-1.0102539c-0.0908203,0.3662109-0.7363281,1.6801758-1.4199219,3.0712891
		c-1.2050781,2.453125-2.0585938,4.2265625-2.0585938,4.7070312c0,0.8330078,0.5097656,4.2578125,0.5332031,4.4130859
		c0.015625,0.0732403,0.3935547,1.7861309,1.0185547,2.4902325c0.6035156,0.6787109,2.5654297,2.9423828,2.5654297,2.9423828
		l0.0898438,0.1035156l0.1171875-0.0703125c0.0211182-0.0129395,0.3322754-0.2070923,0.6142578-0.5712891v0.9910889
		c-2.2462158,0.0878296-4.0498047,1.9290161-4.0498047,4.1964111c0,1.5341797,0.8232422,2.9316406,2.1552734,3.6767578
		l0.0009766,0.9296875c-0.0019531,0.0273438-0.0107422,0.2714844,0.1572266,0.4482422
		c0.0712891,0.0761719,0.2021484,0.1660156,0.4228516,0.1660156h0.2792969v6.9697266
		c0,0.0166016,0.0029297,0.0332031,0.0078125,0.0488281c0.0341797,0.1074219,0.3496094,1.0488281,0.9667969,1.0488281
		c0.5820312,0,1.1503906-0.7431641,1.2138672-0.828125c0.0263672-0.0351562,0.0371094-0.0791016,0.0302734-0.1220703
		c-0.0136719-0.0810547-0.0800781-0.4306641-0.3056641-0.5761719c0.1015625-0.0371094,0.1894531-0.1083984,0.2490234-0.2050781
		c0.0849609-0.1376953,0.1025391-0.3085938,0.0478516-0.4570312c-0.078125-0.2060547-0.4628906-0.8203125-0.4912109-0.8583984
		c-0.0009766-0.0019531-0.0556641-0.1591797,0.140625-0.3056641c0.2158203-0.1621094,0.3632812-0.4111328,0.3837891-0.6503906
		c0.0166016-0.1875-0.0410156-0.3564453-0.1660156-0.4873047c-0.2460938-0.2607422-0.328125-0.4951172-0.3066406-0.5712891
		c0.0097656-0.03125,0.0800781-0.1123047,0.1308594-0.171875c0.1376953-0.1601562,0.3261719-0.3798828,0.34375-0.6494141
		c0.0185547-0.2685547-0.1494141-0.4189453-0.2724609-0.5283203c-0.0625-0.0556641-0.1210938-0.1083984-0.1210938-0.1464844
		c0.0048828-0.03125,0.1162109-0.1035156,0.1699219-0.1376953c0.1542969-0.1005859,0.3671875-0.2382812,0.3457031-0.4912109
		c-0.0166016-0.2041016-0.0087891-0.6640625-0.0039062-0.90625l0.2099609-0.0009766
		c0.0292969,0.0029297,0.2978516,0.0410156,0.4853516-0.1210938c0.0771484-0.0654297,0.1699219-0.1904297,0.1699219-0.4091797
		v-0.9931641c1.3476562-0.7470703,2.1816406-2.1445312,2.1816406-3.6708984c0-2.267395-1.8035889-4.1085815-4.0498047-4.1964111
		v-1.5687866c0.0065918-0.017395,0.0124512-0.0348511,0.0186768-0.0526123
		c0.1361084,0.1334229,0.2883301,0.2305298,0.4959717,0.355896l0.0488281,0.0263672
		c0.0234375,0.0097656,0.0986328,0.0341797,0.2128906,0.0341797c0.3271484,0,0.9824219-0.2021484,1.7382812-1.5390625
		c0.2636719-0.4658203,0.5263672-0.9960938,0.8046875-1.5576172c0.7197266-1.4492188,1.5351582-3.091795,2.3730488-3.5107403
		c1.1777344-0.5898438,8.0185547-5.2519531,9.1123047-6.8144531c0.2548828-0.3652344,0.5449219-0.875,0.8798828-1.4648438
		c1.0322266-1.8154297,2.5917969-4.559082,4.8896484-5.8930674c1.1689453-0.6791992,4.5126953-3.0292969,4.6542969-3.1289062
		L52.8651085,12.4825754z M27.1063175,33.0543518c-0.2675781-0.5478516-0.5205078-1.0664043-0.5205078-1.3378887
		c0-0.5927734,0.2119141-3.7822266,0.8125-4.9863281c0.0742188-0.1484375,0.1650391-0.3447266,0.2724609-0.5761719
		c0.6992188-1.5126953,2.1152344-4.574707,3.7333984-4.574707c0.0888672,0,0.1787109,0.0092773,0.2685547,0.0288086
		c0.6660175,0.1425781,1.0732441,0.4936523,1.2109394,1.0439453c0.2060547,0.8251953-0.2617188,1.8925781-0.8291016,2.3720703
		c-0.9541035,0.8085938-3.5361347,3.8808594-3.7636738,4.6855469c-0.0292969,0.1015625-0.0986328,0.2851562-0.1904297,0.5273438
		c-0.2578125,0.6787109-0.7060547,1.8603497-0.9111328,2.9882793C27.161005,33.1676331,27.1336613,33.1109924,27.1063175,33.0543518
		z M15.3768263,12.0523996c-0.9472656-0.1650391-1.3115234-0.9541016-1.4238281-1.2861328
		c-0.1484375-0.4370117-0.1152344-0.7919922-0.0029297-0.8876953c0.6181641,0.1547852,5.6533194,1.1928711,6.3896475,1.3408203
		c0.5390625,0.1077271,6.119751,1.1607056,8.5378418,1.4710083c-0.9555664,0.2529907-1.7531738,0.4888916-2.427002,0.7045898
		c-0.1240234,0.0053101-2.1237793,0.0793457-3.3149414,0.0089722c-0.7624512-0.0441284-2.255249,0.0720215-3.3249512,0.1716309
		l-0.0861816-0.0603027C18.9451847,12.9698801,17.1160831,12.3546457,15.3768263,12.0523996z M15.8914747,17.2140217
		c-0.4423828,0.1040039-0.9228516,0.2587891-1.4785156,0.4384766c-1.0654297,0.3442383-2.390625,0.7719727-4.1728516,1.0688477
		c-1.5996094,0.2685547-2.4736333-0.2983398-2.7685552-0.9135742C7.3524117,17.55826,7.3768258,17.386385,7.4061227,17.3609943
		c0.171875-0.1035156,0.9033208-0.4155273,1.610352-0.7172852c0.8125-0.3466797,1.6523438-0.7050791,1.9345703-0.8667002
		c0.3330078-0.1906738,4.4464111-1.085083,7.6712637-1.7541504c0.053833-0.0063477,3.274292-0.3642578,4.4937744-0.2937012
		c0.666748,0.0393677,1.576416,0.0335083,2.2856445,0.0197754c-1.4714355,0.5266113-2.0174561,0.8620605-2.0454102,0.880127
		l-4.2541504,2.1267099l-0.0153809,0.0012207C19.067255,16.7584553,17.1717472,16.9122639,15.8914747,17.2140217z
		 M31.5477238,42.0592346c0,0.000061,0,0.000061,0,0.0001221l-0.1489258-0.7805176
		c0.0189209-0.0168457,0.0362549-0.02948,0.0545654-0.0446777C31.511591,41.5006409,31.5477238,41.775177,31.5477238,42.0592346z
		 M29.3626652,43.3034973l-3.3010254-0.0892944c-0.0095215-0.0853271-0.006958-0.1757812-0.019043-0.2595215
		c-0.03125-0.2194824,0.0212402-0.4375,0.1043701-0.6524048h3.9609375
		c-0.1970215,0.2424316-0.3977051,0.4781494-0.5770264,0.7539673C29.473505,43.1443787,29.4190617,43.2187805,29.3626652,43.3034973
		z M28.4339542,44.5909729l-2.3126221-0.4202271c0.0012207-0.2406616-0.0223389-0.473999-0.041748-0.7113037l3.1195068,0.0841064
		C28.9388371,43.9237366,28.6829777,44.2792664,28.4339542,44.5909729z M26.7548771,46.2447815l-0.8253174-0.3469238v-0.1657715
		c0.0068359-0.0126953,0.0126953-0.0273438,0.0166016-0.0419922c0.005249-0.0217896-0.0024414-0.0420532-0.0058594-0.0630493
		c0.0268555-0.0927734,0.0581055-0.182251,0.0759277-0.2824707l1.2800293,0.4696655
		C27.1155949,45.9749451,26.9351749,46.1174011,26.7548771,46.2447815z M26.1409855,46.6098938l-0.2114258-0.135437v-0.3118896
		l0.5727539,0.2403564C26.3824406,46.4773254,26.2618351,46.5491638,26.1409855,46.6098938z M26.9149113,46.4313049
		c0.1726074-0.1229858,0.3448486-0.2609253,0.5174561-0.4127197v1.315918
		c-0.1861572-0.0200195-0.3865967-0.0430298-0.5980225-0.0690308L26.9149113,46.4313049z M26.0537052,45.0987244
		c0.0301514-0.2232056,0.041626-0.4535522,0.0499268-0.6853027l2.151123,0.3914795
		c-0.2578125,0.3087158-0.5117188,0.5809326-0.7631836,0.8206177L26.0537052,45.0987244z M27.6751652,45.7852478
		c0.234375-0.2247925,0.4707031-0.4767456,0.7094727-0.758728l0.0551758,2.4337769
		c-0.1009521-0.0315552-0.2004395-0.0690308-0.3114014-0.0690308c-0.0928955,0-0.2574463-0.0126953-0.4532471-0.0317383V45.7852478z
		 M26.2596378,42.0578308c0.1687012-0.3053589,0.3891602-0.5574341,0.6512451-0.8065186
		c0.2194824,0.1344604,0.4747314,0.2161255,0.7501221,0.2161255c0.2955322,0,0.5703125-0.0900269,0.7996826-0.243042
		l2.5368652,0.1099854c-0.2366943,0.2238159-0.4708252,0.4559937-0.7023926,0.7234497H26.2596378z M26.214716,40.0211487
		c0,0.0427856,0.0090332,0.0830688,0.0126953,0.124939c-0.0458984,0.00354-0.0898438,0.006897-0.1530762,0.0101318
		c-0.2834473,0.0148926-0.5495605,0.0428467-0.7998047,0.0821533l1.5842285-1.9595947
		c0.2084961-0.0440063,0.4199219-0.0805054,0.6391602-0.0897827v0.4024048
		C26.7784367,38.6736755,26.214716,39.2801208,26.214716,40.0211487z M27.824091,38.5914001v-0.367981
		c0.105835,0.0140381,0.2225342,0.0261841,0.3249512,0.0407104l-0.2669678,0.3331299
		C27.8630314,38.5942688,27.8433781,38.5935974,27.824091,38.5914001z M27.4979191,38.9339905v0.223877h0.3261719v-0.223877
		c0.5374756,0.0820312,0.9570312,0.5268555,0.9570312,1.0871582c0,0.6181641-0.5019531,1.1201172-1.1201172,1.1201172
		s-1.1201172-0.5019531-1.1201172-1.1201172C26.5408878,39.4608459,26.9604435,39.0160217,27.4979191,38.9339905z
		 M31.1911564,41.4847717l0.2628174,1.3765259c-0.1264648,0.5892334-0.3822021,1.1394653-0.7578125,1.6063843l-0.2290039-2.2342529
		C30.7059269,41.9566345,30.9470158,41.7141418,31.1911564,41.4847717z M31.2291203,41.1042175l-2.4844971-0.1358032
		c0.1875-0.2142334,0.3104248-0.4820557,0.3455811-0.7788086l2.2036133,0.5194092
		c0.0333252,0.0887451,0.0563965,0.1819458,0.0831299,0.2736206C31.3279972,41.0221252,31.2803898,41.0585632,31.2291203,41.1042175
		z M29.3592472,40.0046082c0.3361816-0.0587158,0.6542969-0.1186523,0.9577637-0.1791382l0.6169434,0.1517944
		c0.0922852,0.1436768,0.1677246,0.2983398,0.2407227,0.4542236L29.3592472,40.0046082z M30.2586613,39.5889587
		c-0.3654785,0.0725708-0.7628174,0.1433716-1.173584,0.2121582c-0.0046387-0.0296021-0.0064697-0.0598755-0.0129395-0.0888672
		l0.6164551-0.9384155c0.2677002,0.1645508,0.5201416,0.3502197,0.7397461,0.5724487L30.2586613,39.5889587z M28.9722843,39.4203186
		c-0.1625977-0.3529053-0.4626465-0.6261597-0.831543-0.7572021l0.2890625-0.361084
		c0.1182861,0.0176392,0.2163086,0.0371704,0.3284912,0.0554199c0.2518311,0.0744019,0.4908447,0.1734619,0.71875,0.2944946
		L28.9722843,39.4203186z M26.4517765,38.3961487l-1.5535889,1.9215698
		c-0.2996826,0.0646973-0.5662842,0.1507568-0.8199463,0.2443848C24.511713,39.5345154,25.3825626,38.7479553,26.4517765,38.3961487
		z M23.7742863,42.0592346c0-0.4237671,0.0838623-0.8244019,0.2099609-1.2056885
		c0.5753174-0.2338257,1.2515869-0.4090576,2.1027832-0.4528809c0.0759277-0.0039673,0.1275635-0.0094604,0.1799316-0.0153198
		c0.072998,0.2775879,0.2248535,0.5211792,0.432373,0.7076416c-0.5598145,0.5340576-1.0008545,1.1739502-0.8979492,1.8966064
		c0.1152344,0.8023682,0.1057129,1.6838989-0.0507812,2.447998C24.5302677,44.747345,23.7742863,43.467926,23.7742863,42.0592346z
		 M26.2313175,46.9537659l0.0311279-0.1307983c0.1317139-0.0666504,0.2625732-0.1467896,0.3930664-0.2287598l-0.034668,0.3595581
		H26.2313175z M28.308466,48.3785706c-0.1425781,0.0917969-0.3193359,0.2070312-0.3193359,0.4111328
		c0,0.1835938,0.1279297,0.2978516,0.2304688,0.3896484c0.1103516,0.0976562,0.171875,0.1582031,0.1650391,0.2636719
		c-0.0117188,0.1611328-0.1464844,0.3193359-0.2666016,0.4580078c-0.0898438,0.1054688-0.1679688,0.1962891-0.1962891,0.2949219
		c-0.0771484,0.2714844,0.1474609,0.6347656,0.3828125,0.8847656c0.0595703,0.0625,0.0859375,0.1425781,0.078125,0.2353516
		c-0.0126953,0.1474609-0.1123047,0.3115234-0.2548828,0.4179688c-0.3867188,0.2910156-0.2568359,0.6621094-0.2363281,0.7089844
		c0.1640625,0.2607422,0.4277344,0.6982422,0.4775391,0.8300781c0.0195312,0.0537109,0.0117188,0.1201172-0.0205078,0.171875
		c-0.015625,0.0263672-0.0517578,0.0703125-0.1152344,0.0771484c-0.2226562,0.0244141-0.3242188,0.1699219-0.3242188,0.2939453
		c0,0.1210938,0.0917969,0.2529297,0.2988281,0.2763672c0.0341797,0.0058594,0.1025391,0.1318359,0.1396484,0.2890625
		c-0.1777344,0.2197266-0.5839844,0.6396484-0.9091797,0.6396484c-0.3115234,0-0.5703125-0.5673828-0.6484375-0.7978516v-6.7184448
		c0.5739746,0.0709229,1.1185303,0.1308594,1.338501,0.1308594c0.1273193,0,0.2479248,0.0428467,0.3665771,0.0960083
		c-0.0002441,0.175293,0.0024414,0.3469238,0.0117188,0.4564209C28.511591,48.2428284,28.4276066,48.3014221,28.308466,48.3785706z
		 M29.3113956,46.8844299c-0.0634766,0.0546875-0.1855469,0.0546875-0.2490234,0.0449219h-0.3916016L28.620966,44.745575
		c0.2275391-0.284729,0.4602051-0.6040039,0.696167-0.9436646l0.0489502,2.7473755v0.1740112
		C29.3660831,46.8375549,29.3250675,46.8727112,29.3113956,46.8844299z M29.5889835,45.4051819l-0.034668-1.9517212
		c0.0603027-0.0900879,0.1186523-0.1697998,0.1796875-0.263855c0.1608887-0.2472534,0.342041-0.4555664,0.5178223-0.675415
		l0.2248535,2.1931763C30.2195988,44.9774475,29.9228458,45.2129822,29.5889835,45.4051819z"/>
</g>
<g id="Calque_2">
</g>
</svg>
